<svg width="24" height="24" viewBox="0 0 24 24" fill="none" xmlns="http://www.w3.org/2000/svg">
<path d="M12.0008 4.99907C12.002 4.5991 11.9232 4.20294 11.769 3.83387C11.6148 3.46481 11.3884 3.1303 11.1031 2.85002C10.8177 2.56974 10.4792 2.34935 10.1075 2.2018C9.7357 2.05426 9.33819 1.98255 8.9383 1.99089C8.53842 1.99922 8.14424 2.08744 7.77894 2.25034C7.41365 2.41324 7.08462 2.64755 6.81121 2.93948C6.53779 3.23141 6.32552 3.57506 6.18686 3.95023C6.0482 4.32539 5.98596 4.7245 6.00381 5.12407C5.41601 5.27521 4.87031 5.55812 4.40804 5.95139C3.94577 6.34465 3.57905 6.83795 3.33565 7.39392C3.09225 7.9499 2.97857 8.55397 3.0032 9.16039C3.02782 9.7668 3.19013 10.3597 3.47781 10.8941C2.97199 11.305 2.57423 11.8333 2.31915 12.433C2.06406 13.0327 1.95936 13.6857 2.01417 14.3351C2.06898 14.9845 2.28162 15.6106 2.63361 16.1591C2.9856 16.7076 3.46627 17.1617 4.03381 17.4821C3.96372 18.0243 4.00555 18.5752 4.15669 19.1006C4.30784 19.626 4.5651 20.1149 4.91259 20.537C5.26008 20.9591 5.69042 21.3055 6.17703 21.5548C6.66364 21.8041 7.19618 21.951 7.74178 21.9864C8.28738 22.0218 8.83445 21.945 9.34919 21.7607C9.86394 21.5764 10.3354 21.2885 10.7346 20.9148C11.1337 20.5412 11.452 20.0896 11.6698 19.5881C11.8876 19.0866 12.0002 18.5458 12.0008 17.9991V4.99907Z" stroke="#FF8904" stroke-width="1.83268" stroke-linecap="round" stroke-linejoin="round"/>
<path d="M9 13C9.83956 12.7047 10.5727 12.167 11.1067 11.455C11.6407 10.743 11.9515 9.88867 12 9" stroke="#FF8904" stroke-width="1.83268" stroke-linecap="round" stroke-linejoin="round"/>
<path d="M6.00391 5.125C6.02368 5.60873 6.16024 6.0805 6.40191 6.5" stroke="#FF8904" stroke-width="1.83268" stroke-linecap="round" stroke-linejoin="round"/>
<path d="M3.47656 10.896C3.6595 10.747 3.85527 10.6145 4.06156 10.5" stroke="#FF8904" stroke-width="1.83268" stroke-linecap="round" stroke-linejoin="round"/>
<path d="M5.99825 18.0004C5.30908 18.0007 4.63152 17.823 4.03125 17.4844" stroke="#FF8904" stroke-width="1.83268" stroke-linecap="round" stroke-linejoin="round"/>
<path d="M12 13H16" stroke="#FF8904" stroke-width="1.83268" stroke-linecap="round" stroke-linejoin="round"/>
<path d="M12 18H18C18.5304 18 19.0391 18.2107 19.4142 18.5858C19.7893 18.9609 20 19.4696 20 20V21" stroke="#FF8904" stroke-width="1.83268" stroke-linecap="round" stroke-linejoin="round"/>
<path d="M12 8H20" stroke="#FF8904" stroke-width="1.83268" stroke-linecap="round" stroke-linejoin="round"/>
<path d="M16 8V5C16 4.46957 16.2107 3.96086 16.5858 3.58579C16.9609 3.21071 17.4696 3 18 3" stroke="#FF8904" stroke-width="1.83268" stroke-linecap="round" stroke-linejoin="round"/>
<path d="M16 13.5C16.2761 13.5 16.5 13.2761 16.5 13C16.5 12.7239 16.2761 12.5 16 12.5C15.7239 12.5 15.5 12.7239 15.5 13C15.5 13.2761 15.7239 13.5 16 13.5Z" stroke="#FF8904" stroke-width="1.83268" stroke-linecap="round" stroke-linejoin="round"/>
<path d="M18 3.5C18.2761 3.5 18.5 3.27614 18.5 3C18.5 2.72386 18.2761 2.5 18 2.5C17.7239 2.5 17.5 2.72386 17.5 3C17.5 3.27614 17.7239 3.5 18 3.5Z" stroke="#FF8904" stroke-width="1.83268" stroke-linecap="round" stroke-linejoin="round"/>
<path d="M20 21.5C20.2761 21.5 20.5 21.2761 20.5 21C20.5 20.7239 20.2761 20.5 20 20.5C19.7239 20.5 19.5 20.7239 19.5 21C19.5 21.2761 19.7239 21.5 20 21.5Z" stroke="#FF8904" stroke-width="1.83268" stroke-linecap="round" stroke-linejoin="round"/>
<path d="M20 8.5C20.2761 8.5 20.5 8.27614 20.5 8C20.5 7.72386 20.2761 7.5 20 7.5C19.7239 7.5 19.5 7.72386 19.5 8C19.5 8.27614 19.7239 8.5 20 8.5Z" stroke="#FF8904" stroke-width="1.83268" stroke-linecap="round" stroke-linejoin="round"/>
</svg>
