<svg width="28" height="28" viewBox="0 0 28 28" fill="none" xmlns="http://www.w3.org/2000/svg">
<path d="M18.6654 2.33398V7.00065M9.33203 2.33398V7.00065" stroke="#00C0FF" stroke-width="1.75" stroke-linecap="round" stroke-linejoin="round"/>
<path d="M15.1667 4.66602H12.8333C8.43355 4.66602 6.23367 4.66602 4.86683 6.03285C3.5 7.39969 3.5 9.59957 3.5 13.9993V16.3327C3.5 20.7324 3.5 22.9324 4.86683 24.2991C6.23367 25.666 8.43355 25.666 12.8333 25.666H15.1667C19.5664 25.666 21.7664 25.666 23.1331 24.2991C24.5 22.9324 24.5 20.7324 24.5 16.3327V13.9993C24.5 9.59957 24.5 7.39969 23.1331 6.03285C21.7664 4.66602 19.5664 4.66602 15.1667 4.66602Z" stroke="#00C0FF" stroke-width="1.75" stroke-linecap="round" stroke-linejoin="round"/>
<path d="M3.5 11.666H24.5" stroke="#00C0FF" stroke-width="1.75" stroke-linecap="round" stroke-linejoin="round"/>
</svg>
