<svg width="924" height="482" viewBox="0 0 924 482" fill="none" xmlns="http://www.w3.org/2000/svg">
<path opacity="0.2" d="M202.33 27.5774C333.925 -38.4244 481.061 32.2617 619.845 51.7144C662.002 57.6234 704.417 65.1504 745.626 79.6709C768.752 87.8191 794.655 97.3929 814.07 118.43C832.096 137.963 829.834 154.053 824.93 181.196C821.288 201.362 828.909 207.949 840.599 217.833C857.906 232.464 877.137 245.23 889.698 268.773C900.653 289.307 901.099 311.254 901.021 336.027C900.95 358.393 903.302 376.304 911.993 395.167C917.565 407.261 929.789 421.276 919.253 433.119C912.504 440.705 896.921 439.011 889.068 439.482C868.064 440.741 846.978 439.728 825.971 439.113C774.268 437.599 722.531 436.302 670.945 442.684C617.76 449.263 565.322 464.314 512.275 472.592C433.296 484.915 353.572 483.604 274.517 473.311C196.976 463.215 115.148 449.02 41.7133 409.562C19.5023 397.627 -21.2448 370.595 13.4851 340.022C36.3867 319.862 70.6281 313.998 88.5282 283.341C103.997 256.848 86.3012 227.784 74.666 206.087C63.109 184.537 42.8216 152.45 63.0969 128.911C83.6387 105.063 116.994 102.406 141.62 92.8542C157.304 86.7715 173.564 80.0306 183.811 60.7163C189.18 50.5952 191.091 35.6796 199.369 30.7137C199.915 30.3862 201.462 28.0119 202.33 27.5774Z" fill="#00C0FF"/>
<path opacity="0.5" d="M815.932 111.262H800.588V95.9226C800.588 92.0863 797.478 88.9766 793.64 88.9766C789.802 88.9766 786.691 92.0863 786.691 95.9226V111.262H771.347C767.508 111.262 764.398 114.372 764.398 118.208C764.398 122.045 767.508 125.154 771.347 125.154H786.691V140.494C786.691 144.33 789.802 147.44 793.64 147.44C797.478 147.44 800.588 144.33 800.588 140.494V125.154H815.932C819.771 125.154 822.881 122.045 822.881 118.208C822.881 114.372 819.771 111.262 815.932 111.262Z" fill="#00C0FF"/>
<path opacity="0.5" d="M115.529 309.73L108.055 317.202L100.58 309.729C98.711 307.861 95.6799 307.861 93.8102 309.73C91.9405 311.599 91.9413 314.629 93.8102 316.497L101.285 323.971L93.811 331.442C91.9413 333.312 91.9413 336.341 93.8102 338.209C95.6799 340.079 98.7102 340.079 100.58 338.209L108.055 330.737L115.529 338.209C117.398 340.078 120.429 340.079 122.299 338.209C124.169 336.34 124.169 333.311 122.3 331.442L114.825 323.97L122.299 316.497C124.169 314.628 124.169 311.599 122.299 309.73C120.429 307.862 117.399 307.862 115.529 309.73Z" fill="#00C0FF"/>
<path opacity="0.5" d="M815.632 465.065L806.96 461.977L810.049 453.307C810.821 451.138 809.69 448.754 807.52 447.981C805.351 447.208 802.967 448.34 802.193 450.509L799.104 459.179L790.432 456.091C788.262 455.318 785.878 456.449 785.104 458.618C784.332 460.787 785.463 463.171 787.633 463.944L796.306 467.032L793.216 475.702C792.443 477.871 793.575 480.255 795.745 481.027C797.913 481.799 800.298 480.668 801.071 478.499L804.16 469.829L812.833 472.917C815.003 473.691 817.387 472.559 818.159 470.39C818.933 468.221 817.801 465.837 815.632 465.065Z" fill="#00C0FF"/>
<path opacity="0.5" d="M150.945 153.622C139.122 153.622 129.502 144.006 129.502 132.186C129.502 120.367 139.122 110.75 150.945 110.75C162.769 110.75 172.388 120.367 172.388 132.186C172.388 144.006 162.769 153.622 150.945 153.622ZM150.945 120.959C144.752 120.959 139.713 125.996 139.713 132.187C139.713 138.377 144.752 143.414 150.945 143.414C157.138 143.414 162.176 138.377 162.176 132.187C162.176 125.995 157.138 120.959 150.945 120.959Z" fill="#00C0FF"/>
<path opacity="0.5" d="M713.062 214.864C705.001 214.864 698.441 208.307 698.441 200.248C698.441 192.189 705.001 185.633 713.062 185.633C721.123 185.633 727.682 192.189 727.682 200.248C727.682 208.308 721.123 214.864 713.062 214.864ZM713.062 192.593C708.839 192.593 705.404 196.027 705.404 200.249C705.404 204.47 708.839 207.904 713.062 207.904C717.285 207.904 720.72 204.47 720.72 200.249C720.72 196.027 717.285 192.593 713.062 192.593Z" fill="#00C0FF"/>
<path opacity="0.5" d="M69.552 480.275C61.4905 480.275 54.9316 473.718 54.9316 465.659C54.9316 457.6 61.4905 451.043 69.552 451.043C77.6135 451.043 84.1723 457.6 84.1723 465.659C84.1723 473.718 77.6127 480.275 69.552 480.275ZM69.552 458.004C65.3297 458.004 61.8945 461.438 61.8945 465.66C61.8945 469.882 65.3297 473.315 69.552 473.315C73.7751 473.315 77.2095 469.882 77.2095 465.66C77.2095 461.438 73.7743 458.004 69.552 458.004Z" fill="#00C0FF"/>
<path opacity="0.5" d="M764.449 324.578C760.15 324.578 756.65 321.081 756.65 316.783C756.65 312.485 760.149 308.988 764.449 308.988C768.748 308.988 772.246 312.485 772.246 316.783C772.247 321.081 768.748 324.578 764.449 324.578ZM764.449 312.701C762.197 312.701 760.364 314.532 760.364 316.783C760.364 319.034 762.196 320.866 764.449 320.866C766.701 320.866 768.533 319.034 768.533 316.783C768.533 314.533 766.702 312.701 764.449 312.701Z" fill="#00C0FF"/>
<path opacity="0.5" d="M78.446 213.145C74.1464 213.145 70.6484 209.649 70.6484 205.35C70.6484 201.052 74.1472 197.555 78.446 197.555C82.7455 197.555 86.2435 201.052 86.2435 205.35C86.2435 209.649 82.7447 213.145 78.446 213.145ZM78.446 201.268C76.1939 201.268 74.3621 203.099 74.3621 205.351C74.3621 207.602 76.1939 209.434 78.446 209.434C80.698 209.434 82.5298 207.602 82.5298 205.351C82.5298 203.099 80.6972 201.268 78.446 201.268Z" fill="#00C0FF"/>
<path d="M651.042 102.037H411.687V77.5468C411.687 70.4253 405.913 64.6523 398.789 64.6523H265.961C258.837 64.6523 253.062 70.4253 253.062 77.5468V114.917C253.062 114.922 253.062 114.927 253.062 114.932V438.002C253.062 445.124 258.837 450.898 265.961 450.898H651.042C658.166 450.898 663.941 445.124 663.941 438.002V114.932C663.941 107.811 658.166 102.037 651.042 102.037Z" fill="#00C0FF"/>
<path d="M392.053 72.0281C399.177 72.0281 404.952 77.8011 404.952 84.9225V109.414H644.306C651.429 109.414 657.204 115.187 657.204 122.308V133.251H663.942V114.932C663.942 107.81 658.167 102.037 651.043 102.037H411.689V77.5468C411.689 70.4253 405.915 64.6523 398.791 64.6523H265.963C260.358 64.6523 255.59 68.2272 253.811 73.2197C255.457 72.4569 257.291 72.0289 259.226 72.0289L392.053 72.0281Z" fill="#008CFF"/>
<path d="M651.042 453.301H265.962C257.523 453.301 250.656 446.438 250.656 438.001V114.931C250.656 114.921 250.656 114.91 250.657 114.899V77.5463C250.657 69.1101 257.523 62.2461 265.962 62.2461H398.79C407.229 62.2461 414.095 69.1101 414.095 77.5463V99.6308H651.043C659.482 99.6308 666.348 106.494 666.348 114.931V438.001C666.348 446.438 659.481 453.301 651.042 453.301ZM255.469 114.948V438.001C255.469 443.785 260.175 448.491 265.962 448.491H651.042C656.828 448.491 661.535 443.785 661.535 438.001V114.931C661.535 109.148 656.828 104.441 651.042 104.441H411.688C410.359 104.441 409.281 103.364 409.281 102.036V77.5455C409.281 71.7612 404.574 67.056 398.788 67.056H265.962C260.176 67.056 255.469 71.7612 255.469 77.5455V114.916C255.469 114.925 255.469 114.937 255.469 114.948Z" fill="#131E3A"/>
<path d="M253.062 135.301V438.004C253.062 445.126 258.837 450.899 265.961 450.899H651.042C658.166 450.899 663.941 445.126 663.941 438.004V135.301H253.062Z" fill="#C1C1C1"/>
<path d="M253.062 135.301V438.004C253.062 439.423 253.295 440.787 253.718 442.064C254.996 442.488 256.36 442.72 257.78 442.72H642.861C649.984 442.72 655.759 436.947 655.759 429.825V135.301H253.062Z" fill="#F2F0F0"/>
<path d="M651.042 453.303H265.962C257.523 453.303 250.656 446.44 250.656 438.003V132.895H666.348V438.003C666.348 446.44 659.481 453.303 651.042 453.303ZM255.469 137.705V438.003C255.469 443.787 260.175 448.492 265.962 448.492H651.042C656.828 448.492 661.535 443.787 661.535 438.003V137.705H255.469Z" fill="#131E3A"/>
<path d="M495.627 302.695L562.299 317.402L559.115 348.363L551.363 362.554L534.589 371.327C534.589 371.327 519.296 371.327 518.682 371.327C518.068 371.327 504.549 363.586 504.549 363.586L497.421 349.396L495.627 333.657V302.695Z" fill="#00C0FF"/>
<path d="M558.906 316.656C558.906 316.656 558.302 332.895 556.709 338.023C555.51 341.884 551.841 349.381 548.956 352.214C545.58 355.529 536.778 359.857 532.181 360.986C528.32 361.935 520.611 362.28 516.275 360.986C512.827 359.957 504.942 356.04 502.173 353.115C500.051 350.874 496.602 342.215 496.602 342.215L497.42 349.398L504.548 363.589C504.548 363.589 518.067 371.329 518.681 371.329C519.295 371.329 534.588 371.329 534.588 371.329L551.362 362.557L559.115 348.366L562.299 317.405L558.906 316.656Z" fill="#008CFF"/>
<path d="M571.15 251.381C570.127 252.404 568.47 252.404 567.449 251.381L532.533 216.478C531.512 215.457 531.512 213.801 532.533 212.778C533.555 211.756 535.213 211.756 536.235 212.778L571.15 247.681C572.173 248.703 572.173 250.36 571.15 251.381Z" fill="#131E3A"/>
<path d="M532.533 251.381C531.512 250.36 531.512 248.702 532.533 247.681L567.449 212.778C568.47 211.756 570.127 211.756 571.15 212.778C572.173 213.801 572.173 215.457 571.15 216.478L536.235 251.381C535.213 252.404 533.555 252.404 532.533 251.381Z" fill="#131E3A"/>
<path d="M398.712 251.381C397.689 252.404 396.033 252.404 395.011 251.381L360.096 216.478C359.075 215.457 359.075 213.801 360.096 212.778C361.118 211.756 362.776 211.756 363.798 212.778L398.712 247.681C399.735 248.703 399.735 250.36 398.712 251.381Z" fill="#131E3A"/>
<path d="M360.096 251.381C359.075 250.36 359.075 248.702 360.096 247.681L395.011 212.778C396.033 211.756 397.689 211.756 398.712 212.778C399.736 213.801 399.734 215.457 398.712 216.478L363.798 251.381C362.776 252.404 361.118 252.404 360.096 251.381Z" fill="#131E3A"/>
<path d="M580.814 326.818C580.474 326.818 580.133 326.757 579.799 326.625C503.486 296.42 419.429 296.419 343.114 326.625C341.696 327.186 340.096 326.491 339.536 325.077C338.975 323.662 339.67 322.061 341.084 321.501C379.568 306.269 420.066 298.547 461.455 298.547C502.846 298.547 543.345 306.269 581.828 321.501C583.243 322.061 583.937 323.662 583.376 325.077C582.947 326.159 581.91 326.818 580.814 326.818Z" fill="#131E3A"/>
<path d="M527.324 375.191C507.916 375.191 492.125 359.407 492.125 341.448V305.284C492.125 302.319 493.36 301.086 494.882 301.086C496.405 301.086 497.639 302.319 497.639 303.841V340.004C497.639 356.367 510.956 369.68 527.324 369.68C543.695 369.68 557.011 356.367 557.011 340.004V317.33C557.011 315.809 558.246 314.575 559.767 314.575C561.289 314.575 562.524 315.809 562.524 317.33V340.004C562.525 359.407 546.734 375.191 527.324 375.191Z" fill="#131E3A"/>
<path d="M527.323 350.696C525.801 350.696 524.568 349.462 524.568 347.941V308.755C524.568 307.233 525.801 306 527.323 306C528.846 306 530.082 307.233 530.082 308.755V347.941C530.081 349.462 528.845 350.696 527.323 350.696Z" fill="#131E3A"/>
<path d="M289.976 119.199C277.829 119.199 267.947 109.32 267.947 97.1772C267.947 85.0351 277.829 75.1562 289.976 75.1562C302.122 75.1562 312.004 85.0351 312.004 97.1772C312.003 109.32 302.121 119.199 289.976 119.199ZM289.976 81.2261C281.177 81.2261 274.018 88.3822 274.018 97.178C274.018 105.974 281.176 113.13 289.976 113.13C298.774 113.13 305.933 105.974 305.933 97.178C305.932 88.3822 298.774 81.2261 289.976 81.2261Z" fill="#F2F0F0"/>
<path d="M294.925 87.6021L289.716 92.8094L284.506 87.6013C283.203 86.2994 281.091 86.2994 279.788 87.6021C278.485 88.9047 278.485 91.0168 279.788 92.3186L284.997 97.5268L279.788 102.733C278.485 104.037 278.485 106.148 279.788 107.45C281.091 108.752 283.203 108.752 284.506 107.45L289.715 102.243L294.925 107.451C296.227 108.752 298.339 108.752 299.642 107.45C300.945 106.148 300.945 104.036 299.642 102.733L294.433 97.526L299.642 92.3186C300.945 91.016 300.945 88.9047 299.642 87.6021C298.341 86.2994 296.229 86.2994 294.925 87.6021Z" fill="#F2F0F0"/>
<path d="M298.437 430.1C289.192 430.1 281.804 427.215 276.479 421.528C267.26 411.683 267.759 396.949 267.848 395.28L268.685 157.927C268.692 155.845 270.392 154.168 272.468 154.172C274.55 154.18 276.231 155.873 276.224 157.954L275.387 395.409C275.387 395.488 275.384 395.566 275.379 395.645C275.372 395.765 274.67 408.603 282.012 416.409C285.854 420.493 291.38 422.564 298.437 422.564C300.519 422.564 302.207 424.251 302.207 426.333C302.207 428.413 300.519 430.1 298.437 430.1Z" fill="white"/>
<path d="M342.705 432.346H319.61C317.528 432.346 315.84 430.659 315.84 428.577C315.84 426.497 317.528 424.809 319.61 424.809H342.705C344.786 424.809 346.475 426.496 346.475 428.577C346.475 430.659 344.787 432.346 342.705 432.346Z" fill="white"/>
</svg>
