<svg width="28" height="28" viewBox="0 0 28 28" fill="none" xmlns="http://www.w3.org/2000/svg">
<path d="M4.66536 23.3333H23.332C23.9509 23.3333 24.5444 23.0875 24.9819 22.6499C25.4195 22.2123 25.6654 21.6188 25.6654 21V9.33333C25.6654 8.71449 25.4195 8.121 24.9819 7.68342C24.5444 7.24583 23.9509 7 23.332 7H14.0804C13.696 6.99801 13.3182 6.90112 12.9803 6.71795C12.6425 6.53477 12.3551 6.27098 12.1437 5.95L11.187 4.55C10.9757 4.22902 10.6883 3.96523 10.3504 3.78205C10.0126 3.59888 9.63468 3.50199 9.25036 3.5H4.66536C4.04653 3.5 3.45303 3.74583 3.01545 4.18342C2.57786 4.621 2.33203 5.21449 2.33203 5.83333V21C2.33203 22.2833 3.38203 23.3333 4.66536 23.3333Z" stroke="#00C0FF" stroke-width="1.83268" stroke-linecap="round" stroke-linejoin="round"/>
<path d="M9.33203 11.666V16.3327" stroke="#00C0FF" stroke-width="1.83268" stroke-linecap="round" stroke-linejoin="round"/>
<path d="M14 11.666V13.9993" stroke="#00C0FF" stroke-width="1.83268" stroke-linecap="round" stroke-linejoin="round"/>
<path d="M18.668 11.666V18.666" stroke="#00C0FF" stroke-width="1.83268" stroke-linecap="round" stroke-linejoin="round"/>
</svg>
