<svg width="28" height="28" viewBox="0 0 28 28" fill="none" xmlns="http://www.w3.org/2000/svg">
<path d="M18.6654 24.5V22.1667C18.6654 20.929 18.1737 19.742 17.2985 18.8668C16.4234 17.9917 15.2364 17.5 13.9987 17.5H6.9987C5.76102 17.5 4.57404 17.9917 3.69887 18.8668C2.8237 19.742 2.33203 20.929 2.33203 22.1667V24.5" stroke="#00C0FF" stroke-width="1.83268" stroke-linecap="round" stroke-linejoin="round"/>
<path d="M10.4987 12.8333C13.076 12.8333 15.1654 10.744 15.1654 8.16667C15.1654 5.58934 13.076 3.5 10.4987 3.5C7.92137 3.5 5.83203 5.58934 5.83203 8.16667C5.83203 10.744 7.92137 12.8333 10.4987 12.8333Z" stroke="#00C0FF" stroke-width="1.83268" stroke-linecap="round" stroke-linejoin="round"/>
<path d="M25.668 24.5007V22.1673C25.6672 21.1334 25.3231 20.1289 24.6896 19.3117C24.0561 18.4945 23.1691 17.9108 22.168 17.6523" stroke="#00C0FF" stroke-width="1.83268" stroke-linecap="round" stroke-linejoin="round"/>
<path d="M18.668 3.65234C19.6718 3.90936 20.5615 4.49316 21.1969 5.31171C21.8322 6.13025 22.1771 7.13698 22.1771 8.17318C22.1771 9.20938 21.8322 10.2161 21.1969 11.0346C20.5615 11.8532 19.6718 12.437 18.668 12.694" stroke="#00C0FF" stroke-width="1.83268" stroke-linecap="round" stroke-linejoin="round"/>
</svg>
