<svg width="28" height="28" viewBox="0 0 28 28" fill="none" xmlns="http://www.w3.org/2000/svg">
<g clip-path="url(#clip0_1067_35417)">
<path d="M10.7393 10.226V7.58976C10.7393 7.36772 10.8226 7.20113 11.0168 7.09025L16.3171 4.03776C17.0387 3.62155 17.899 3.42737 18.7868 3.42737C22.1168 3.42737 24.226 6.0082 24.226 8.75536C24.226 8.94954 24.2259 9.17157 24.1981 9.39361L18.7035 6.17453C18.3706 5.98035 18.0375 5.98035 17.7045 6.17453L10.7393 10.226ZM23.1157 20.4936V14.1942C23.1157 13.8056 22.9493 13.5281 22.6163 13.3339L15.6511 9.28245L17.9265 7.97812C18.1208 7.86723 18.2874 7.86723 18.4815 7.97812L23.7819 11.0306C25.3083 11.9187 26.3349 13.8056 26.3349 15.637C26.3349 17.746 25.0862 19.6887 23.1157 20.4936ZM9.10202 14.9437L6.82652 13.6117C6.63234 13.5008 6.54904 13.3342 6.54904 13.1122V7.00722C6.54904 4.03803 8.82454 1.79012 11.9049 1.79012C13.0705 1.79012 14.1525 2.17873 15.0686 2.87242L9.60178 6.03606C9.26887 6.23024 9.10227 6.50771 9.10227 6.89634L9.10202 14.9437ZM14 17.7741L10.7393 15.9427V12.0577L14 10.2263L17.2605 12.0577V15.9427L14 17.7741ZM16.0951 26.2103C14.9295 26.2103 13.8475 25.8217 12.9314 25.128L18.3982 21.9643C18.7312 21.7702 18.8977 21.4926 18.8977 21.104V13.0565L21.201 14.3884C21.3953 14.4993 21.4786 14.6659 21.4786 14.8879V20.9929C21.4786 23.9621 19.1752 26.2103 16.0951 26.2103ZM9.51823 20.022L4.21783 16.9695C2.69145 16.0814 1.66484 14.1945 1.66484 12.3631C1.66484 10.2263 2.94134 8.31156 4.91151 7.50673V13.8337C4.91151 14.2223 5.0781 14.4999 5.41102 14.694L12.3487 18.7176L10.0732 20.022C9.87899 20.1329 9.71241 20.1329 9.51823 20.022ZM9.21317 24.573C6.07739 24.573 3.77403 22.2142 3.77403 19.3005C3.77403 19.0784 3.80187 18.8564 3.82947 18.6344L9.2962 21.7979C9.62911 21.9922 9.96229 21.9922 10.2952 21.7979L17.2605 17.7743V20.4107C17.2605 20.6327 17.1772 20.7993 16.9829 20.9101L11.6825 23.9626C10.961 24.3788 10.101 24.573 9.21317 24.573ZM16.0951 27.8751C19.4529 27.8751 22.2556 25.4887 22.8941 22.325C26.002 21.5203 28 18.6065 28 15.6374C28 13.6947 27.1676 11.8079 25.669 10.4481C25.8078 9.86526 25.8911 9.28245 25.8911 8.69992C25.8911 4.73172 22.6719 1.76226 18.9534 1.76226C18.2043 1.76226 17.4827 1.87314 16.7613 2.12303C15.5124 0.901982 13.7917 0.125 11.9049 0.125C8.54707 0.125 5.74447 2.51139 5.10595 5.67502C1.99803 6.47986 0 9.39361 0 12.3628C0 14.3054 0.832424 16.1922 2.33094 17.5521C2.19221 18.1348 2.10891 18.7176 2.10891 19.3002C2.10891 23.2684 5.32799 26.2378 9.04658 26.2378C9.79571 26.2378 10.5172 26.127 11.2388 25.8771C12.4874 27.0981 14.208 27.8751 16.0951 27.8751Z" fill="white"/>
</g>
<defs>
<clipPath id="clip0_1067_35417">
<rect width="28" height="28" fill="white"/>
</clipPath>
</defs>
</svg>
