<svg width="31" height="28" viewBox="0 0 31 28" fill="none" xmlns="http://www.w3.org/2000/svg">
<g clip-path="url(#clip0_1067_35426)">
<path d="M15.5552 10.9922C13.9153 10.9922 12.5859 12.3266 12.5859 13.9727C12.5859 15.6187 13.9153 16.9531 15.5552 16.9531C17.1951 16.9531 18.5244 15.6187 18.5244 13.9727C18.5244 12.3266 17.1951 10.9922 15.5552 10.9922Z" fill="white"/>
<path d="M30.9978 13.9997C30.9978 11.6598 28.8391 9.60758 25.4021 8.257C25.448 7.95285 25.4896 7.65199 25.5191 7.35662C25.8581 3.99446 25.0511 1.56782 23.2478 0.522492C21.2302 -0.646908 18.3804 0.201868 15.4989 2.51651C12.6174 0.201868 9.7676 -0.646908 7.75 0.522492C5.94673 1.56782 5.13969 3.99446 5.47869 7.35662C5.50822 7.65199 5.54868 7.95395 5.5957 8.2592C5.30919 8.369 5.02815 8.48539 4.75804 8.60728C1.68954 9.99189 0 11.909 0 13.9997C0 16.3396 2.15867 18.3918 5.5957 19.7424C5.54868 20.0465 5.50822 20.3474 5.47869 20.6428C5.13969 24.0049 5.94673 26.4316 7.75 27.4769C8.36998 27.8298 9.07251 28.0102 9.7851 27.9996C11.4932 27.9996 13.4879 27.097 15.4989 25.4829C17.5089 27.097 19.5046 27.9996 21.2149 27.9996C21.9275 28.0101 22.63 27.8296 23.25 27.4769C25.0533 26.4316 25.8603 24.0049 25.5213 20.6428C25.4918 20.3474 25.4502 20.0465 25.4043 19.7424C28.8413 18.394 31 16.3385 31 13.9997M21.2018 1.48217C21.66 1.47107 22.1129 1.58248 22.514 1.80499C23.7662 2.53079 24.3282 4.49955 24.0549 7.20619C24.0363 7.39066 24.0144 7.57732 23.9881 7.76509C22.559 7.33294 21.0956 7.02473 19.6139 6.84384C18.7158 5.64507 17.717 4.52574 16.6285 3.49815C18.3378 2.17173 19.942 1.48217 21.2007 1.48217M20.6134 16.9644C20.0604 17.9282 19.4581 18.8628 18.8091 19.7643C17.709 19.8778 16.6037 19.9343 15.4978 19.9334C14.3923 19.9342 13.2874 19.8778 12.1876 19.7643C11.5403 18.8628 10.9399 17.9282 10.3887 16.9644C9.83569 16.0032 9.33307 15.0136 8.88292 13.9997C9.33307 12.9858 9.83569 11.9962 10.3887 11.035C10.939 10.075 11.5376 9.14381 12.1822 8.24493C13.2839 8.12865 14.3911 8.07074 15.4989 8.07143C16.6045 8.07077 17.7093 8.12721 18.8091 8.24053C19.4559 9.1408 20.0566 10.0735 20.6091 11.035C21.1617 11.9965 21.6643 12.986 22.1149 13.9997C21.6643 15.0134 21.1617 16.0029 20.6091 16.9644M22.8673 15.8663C23.2143 16.8166 23.4993 17.7886 23.7202 18.7761C22.7613 19.0763 21.7837 19.3129 20.7939 19.4843C21.1701 18.9148 21.5346 18.3223 21.8874 17.7066C22.2363 17.0983 22.5633 16.4845 22.8716 15.8707M13.4223 21.3488C14.1024 21.3905 14.7968 21.4147 15.5 21.4147C16.2032 21.4147 16.9019 21.3905 17.5832 21.3488C16.9373 22.1257 16.2414 22.8592 15.5 23.5449C14.7602 22.8594 14.0662 22.1257 13.4223 21.3488ZM10.205 19.4821C9.21486 19.3114 8.23694 19.0756 7.27759 18.7761C7.49767 17.7902 7.7815 16.8196 8.12728 15.8707C8.43128 16.4845 8.75716 17.0983 9.11147 17.7066C9.46578 18.3149 9.83212 18.9145 10.205 19.4843M8.12728 12.1276C7.78274 11.1822 7.49965 10.2153 7.27977 9.23315C8.23675 8.93333 9.21205 8.69603 10.1996 8.52273C9.82556 9.09041 9.45922 9.67895 9.106 10.2927C8.75279 10.9065 8.43019 11.5127 8.12181 12.1276M17.5767 6.64949C16.8965 6.60777 16.2021 6.58361 15.4934 6.58361C14.7907 6.58361 14.0981 6.60557 13.4157 6.64949C14.0596 5.87254 14.7537 5.13894 15.4934 4.45343C16.2351 5.13876 16.931 5.87236 17.5767 6.64949ZM21.8852 10.2927C21.5309 9.67639 21.1646 9.08345 20.7862 8.51394C21.7787 8.68542 22.7588 8.92237 23.7202 9.22327C23.4996 10.2091 23.2158 11.1796 22.8705 12.1287C22.5665 11.5149 22.2396 10.9011 21.8863 10.2938M6.94733 7.20729C6.67066 4.50175 7.23603 2.53188 8.48705 1.80609C8.88838 1.58393 9.34117 1.47254 9.79932 1.48327C11.058 1.48327 12.6622 2.17283 14.3715 3.49925C13.2823 4.52757 12.2828 5.64762 11.3839 6.84714C9.90266 7.02888 8.43939 7.33595 7.00967 7.76509C6.98451 7.57732 6.96155 7.39176 6.94405 7.20729M5.36387 9.95895C5.53228 9.88575 5.70397 9.81254 5.87893 9.73934C6.22291 11.1965 6.68934 12.6217 7.27321 13.9997C6.68824 15.3804 6.22143 16.8086 5.87784 18.2688C3.09147 17.1214 1.47629 15.5314 1.47629 13.9997C1.47629 12.5481 2.89791 11.0756 5.36387 9.95895ZM8.48705 26.1933C7.23603 25.4675 6.67066 23.4976 6.94733 20.7921C6.96483 20.6076 6.98779 20.4221 7.01295 20.2332C8.44212 20.6652 9.90554 20.9734 11.3872 21.1544C12.2856 22.3537 13.2844 23.4737 14.3725 24.5023C11.9897 26.3503 9.81244 26.9597 8.49033 26.1933M24.0538 20.7921C24.3271 23.4987 23.7651 25.4675 22.5129 26.1933C21.1919 26.9619 19.0136 26.3503 16.6318 24.5023C17.7197 23.4737 18.718 22.3536 19.6161 21.1544C21.0978 20.9736 22.5612 20.6653 23.9903 20.2332C24.0166 20.4221 24.0385 20.6076 24.057 20.7921M25.1265 18.2666C24.782 16.8072 24.3148 15.3798 23.7301 13.9997C24.3146 12.6188 24.7814 11.1907 25.1254 9.73056C27.9063 10.878 29.5259 12.4679 29.5259 13.9997C29.5259 15.5314 27.9107 17.1214 25.1243 18.2688" fill="white"/>
</g>
<defs>
<clipPath id="clip0_1067_35426">
<rect width="31" height="28" fill="white"/>
</clipPath>
</defs>
</svg>
