<svg width="1160" height="116" viewBox="0 0 1160 116" fill="none" xmlns="http://www.w3.org/2000/svg">
<g clip-path="url(#clip0_1067_13481)">
<path d="M19 38C29.4934 38 38 29.4934 38 19C38 8.50659 29.4934 0 19 0C8.50659 0 0 8.50659 0 19C0 29.4934 8.50659 38 19 38Z" fill="#0091E2"/>
<path d="M30.6996 17.126C30.6402 17.0777 30.1021 16.6732 28.9666 16.6732C28.666 16.6732 28.3654 16.6955 28.0685 16.7512C27.8496 15.2408 26.6027 14.5061 26.547 14.4727L26.2427 14.2945L26.0423 14.584C25.79 14.9736 25.6082 15.4004 25.5005 15.8531C25.2964 16.7141 25.4189 17.523 25.8568 18.2133C25.3298 18.5064 24.48 18.5807 24.3093 18.5844H10.2783C9.9109 18.5844 9.61402 18.8812 9.61402 19.2486C9.59918 20.477 9.80699 21.6979 10.2263 22.852C10.7088 24.1211 11.4287 25.0525 12.3638 25.624C13.4103 26.266 15.1136 26.6334 17.047 26.6334C17.9191 26.6371 18.7912 26.5555 19.6484 26.3959C20.8396 26.177 21.9863 25.7613 23.0402 25.1639C23.9086 24.6592 24.6916 24.0209 25.3558 23.2676C26.4654 22.0096 27.1297 20.6068 27.6232 19.3637H27.8199C29.0371 19.3637 29.7867 18.8775 30.1986 18.4693C30.4732 18.2096 30.6884 17.8941 30.8257 17.5416L30.9111 17.2855L30.6996 17.126ZM11.5771 18.1799H13.4586C13.5476 18.1799 13.6218 18.1057 13.6218 18.0166V16.343C13.6218 16.2539 13.5476 16.1797 13.4586 16.176H11.5771C11.488 16.176 11.4138 16.2502 11.4138 16.3393V18.0166C11.4138 18.1094 11.488 18.1799 11.5771 18.1799ZM14.1711 18.1799H16.0525C16.1416 18.1799 16.2158 18.1057 16.2158 18.0166V16.343C16.2158 16.2539 16.1416 16.1797 16.0525 16.176H14.1711C14.0783 16.176 14.0041 16.2502 14.0041 16.343V18.0166C14.0041 18.1094 14.0783 18.1799 14.1711 18.1799ZM16.7984 18.1836H18.6798C18.7689 18.1836 18.8431 18.1094 18.8431 18.0203V16.3467C18.8431 16.2576 18.7689 16.1834 18.6798 16.1797H16.7984C16.7093 16.1797 16.6351 16.2539 16.6351 16.343V18.0203C16.6351 18.1094 16.7093 18.1799 16.7984 18.1836ZM19.3998 18.1836H21.2812C21.3703 18.1836 21.4445 18.1094 21.4482 18.0203V16.3467C21.4482 16.2539 21.374 16.1797 21.2812 16.1797H19.3998C19.3107 16.1797 19.2365 16.2539 19.2365 16.343V18.0203C19.2365 18.1094 19.307 18.1836 19.3998 18.1836ZM14.1673 15.7715H16.0488C16.1379 15.7715 16.2121 15.6973 16.2121 15.6045V13.9309C16.2121 13.8418 16.1379 13.7676 16.0488 13.7676H14.1673C14.0746 13.7676 14.0041 13.8418 14.0004 13.9309V15.6045C14.0041 15.6973 14.0783 15.7715 14.1673 15.7715ZM16.7984 15.7715H18.6798C18.7689 15.7715 18.8431 15.6973 18.8431 15.6045V13.9309C18.8431 13.8418 18.7689 13.7676 18.6798 13.7676H16.7984C16.7093 13.7676 16.6351 13.8418 16.6351 13.9309V15.6045C16.6351 15.6973 16.7093 15.7715 16.7984 15.7715ZM19.3998 15.7715H21.2812C21.374 15.7715 21.4445 15.6973 21.4482 15.6045V13.9309C21.4482 13.8381 21.374 13.7676 21.2812 13.7676H19.3998C19.3107 13.7676 19.2365 13.8418 19.2365 13.9309V15.6045C19.2365 15.6973 19.307 15.7715 19.3998 15.7715ZM19.3998 13.3631H21.2812C21.374 13.3631 21.4482 13.2889 21.4482 13.1961V11.5187C21.4482 11.4297 21.374 11.3555 21.2812 11.3555H19.3998C19.3107 11.3555 19.2365 11.4297 19.2365 11.5187V13.1961C19.2365 13.2889 19.307 13.3631 19.3998 13.3631ZM22.0197 18.1836H23.9011C23.9902 18.1836 24.0644 18.1094 24.0644 18.0203V16.3467C24.0644 16.2539 23.9902 16.1834 23.9011 16.1797H22.0197C21.9306 16.1797 21.8564 16.2539 21.8564 16.343V18.0203C21.8564 18.1094 21.9306 18.1836 22.0197 18.1836Z" fill="white"/>
</g>
<path d="M146.537 15.2427C144.597 6.68768 140.553 4.41022 139.522 2.80028C139.096 2.09107 138.719 1.35387 138.394 0.59375C138.339 1.35375 138.239 1.83255 137.593 2.40888C136.295 3.56535 130.784 8.05442 130.32 17.7748C129.888 26.8378 136.986 32.4263 137.923 33.0039C138.645 33.3586 139.523 33.0115 139.951 32.686C143.373 30.3389 148.048 24.0815 146.541 15.2427" fill="#10AA50"/>
<path d="M138.686 28.1797C138.507 30.423 138.379 31.7264 137.926 33.0082C137.926 33.0082 138.224 35.1438 138.433 37.4061H139.173C139.349 35.813 139.619 34.2316 139.98 32.67C139.022 32.1988 138.723 30.1481 138.686 28.1797Z" fill="#B8C4C2"/>
<path d="M139.98 32.6704C139.011 32.2232 138.731 30.1294 138.688 28.1788C138.928 24.961 138.998 21.7329 138.897 18.5078C138.847 16.8155 138.921 2.83404 138.48 0.787109C138.782 1.48038 139.13 2.15279 139.521 2.79984C140.552 4.41104 144.598 6.68851 146.537 15.2436C148.047 24.0672 143.398 30.308 139.98 32.6704Z" fill="#12924F"/>
<path d="M267.598 29.5758C267.184 29.5758 266.778 29.4533 266.433 29.2236C266.088 28.994 265.819 28.6675 265.659 28.2852C265.499 27.9029 265.456 27.4819 265.534 27.0751C265.613 26.6683 265.811 26.2938 266.102 25.9988C266.393 25.7038 266.765 25.5014 267.171 25.417C267.576 25.3327 267.998 25.3702 268.383 25.5248C268.768 25.6794 269.098 25.9442 269.332 26.2859C269.567 26.6276 269.695 27.031 269.701 27.4453C269.708 27.7247 269.659 28.0027 269.557 28.2627C269.454 28.5227 269.3 28.7592 269.104 28.9582C268.907 29.1572 268.673 29.3144 268.414 29.4206C268.155 29.5267 267.878 29.5795 267.598 29.5758ZM267.598 25.563C267.22 25.5605 266.849 25.6705 266.532 25.8789C266.216 26.0873 265.969 26.3848 265.822 26.7338C265.675 27.0828 265.635 27.4675 265.707 27.8392C265.779 28.2109 265.96 28.5529 266.226 28.8218C266.493 29.0908 266.833 29.2746 267.205 29.35C267.576 29.4254 267.961 29.389 268.311 29.2454C268.662 29.1018 268.962 28.8575 269.173 28.5433C269.385 28.2292 269.498 27.8594 269.499 27.4808C269.504 27.2291 269.459 26.979 269.365 26.7452C269.271 26.5115 269.132 26.2989 268.955 26.1201C268.777 25.9412 268.566 25.7998 268.333 25.7041C268.1 25.6084 267.85 25.5605 267.598 25.563ZM268.105 28.8032L267.563 27.634H267.126V28.8032H266.808V26.1432H267.592C268.176 26.1432 268.42 26.3965 268.42 26.8867C268.42 27.2768 268.236 27.52 267.894 27.5948L268.454 28.7994L268.105 28.8032ZM267.138 27.3592H267.598C267.971 27.3592 268.113 27.2325 268.113 26.893C268.113 26.5536 267.977 26.4383 267.558 26.4383H267.138V27.3592Z" fill="white" fill-opacity="0.5"/>
<path d="M236.305 27.6622C236.874 28.1169 238.01 28.3044 239.013 28.3044C240.312 28.3044 241.585 28.0637 242.83 26.9402C244.097 25.7888 244.969 24.0268 244.969 21.2136C244.969 18.5105 243.94 16.3166 241.829 15.0322C240.637 14.2836 239.094 13.9885 237.334 13.9885C236.827 13.9885 236.305 14.0151 236.008 14.1494C235.886 14.2453 235.8 14.379 235.763 14.5294C235.71 15.0107 235.71 18.6764 235.71 20.8437C235.71 23.0654 235.71 26.1637 235.763 26.5437C235.791 26.8654 235.954 27.4304 236.305 27.6672M230.901 12.7852C231.361 12.7852 233.11 12.865 233.923 12.865C235.444 12.865 236.495 12.7852 239.337 12.7852C241.72 12.7852 243.725 13.4274 245.158 14.6573C246.892 16.157 247.819 18.2432 247.819 20.7854C247.819 24.398 246.172 26.4854 244.515 27.6622C242.868 28.8934 240.725 29.5888 237.672 29.5888C236.047 29.5888 233.258 29.5356 230.93 29.509H230.882C230.773 29.2949 231.081 28.4602 231.271 28.4386C231.905 28.3677 232.072 28.3424 232.363 28.222C232.855 28.0206 232.97 27.7698 233.025 26.887C233.106 25.2276 233.079 23.2478 233.079 20.9995C233.079 19.3946 233.106 16.2634 233.053 15.2729C232.97 14.4445 232.621 14.2304 231.912 14.0696C231.41 13.9629 230.902 13.8826 230.391 13.8289C230.338 13.668 230.754 12.9422 230.889 12.7852" fill="white" fill-opacity="0.5"/>
<path d="M254.529 14.143C254.422 14.1696 254.286 14.4382 254.286 14.5712C254.258 15.5351 254.232 18.0494 254.232 19.7886C254.238 19.8218 254.255 19.8523 254.279 19.8762C254.303 19.9001 254.334 19.9163 254.367 19.9228C254.718 19.9494 255.585 19.9773 256.316 19.9773C257.345 19.9773 257.941 19.843 258.265 19.6822C259.132 19.254 259.533 18.3167 259.533 17.3008C259.533 14.9727 257.908 14.0898 255.499 14.0898C255.173 14.0857 254.848 14.1035 254.524 14.143M260.671 24.8464C260.671 22.4916 258.937 21.154 255.769 21.154C255.634 21.154 254.628 21.1274 254.389 21.1806C254.308 21.2072 254.226 21.2604 254.226 21.3149C254.226 23.0008 254.199 25.7026 254.281 26.773C254.335 27.2277 254.661 27.8699 255.065 28.0574C255.499 28.298 256.473 28.3512 257.15 28.3512C259.018 28.3512 260.671 27.3088 260.671 24.8464ZM249.638 12.832C249.882 12.832 250.602 12.9118 252.443 12.9118C254.176 12.9118 255.584 12.8586 257.259 12.8586C259.344 12.8586 262.213 13.6085 262.213 16.7118C262.213 18.2318 261.131 19.4681 259.723 20.0571C259.642 20.0837 259.642 20.1369 259.723 20.1635C261.726 20.6702 263.485 21.9026 263.485 24.2574C263.485 26.5589 262.051 28.0042 259.966 28.9136C258.699 29.476 257.123 29.6622 255.53 29.6622C254.313 29.6622 251.048 29.5356 249.233 29.5558C249.043 29.476 249.407 28.6185 249.569 28.4855C249.985 28.4727 250.397 28.408 250.797 28.293C251.446 28.1334 251.523 27.9244 251.604 26.9604C251.659 26.1308 251.659 23.1604 251.659 21.0464C251.659 18.1558 251.687 16.2039 251.659 15.24C251.632 14.4914 251.361 14.2494 250.847 14.1164C250.441 14.0354 249.764 13.9556 249.223 13.8758C249.088 13.7415 249.505 12.9384 249.639 12.832" fill="white" fill-opacity="0.5"/>
<path d="M152.535 29.5774C152.465 29.4061 152.437 29.2208 152.453 29.0365C152.446 28.9109 152.475 28.7861 152.535 28.6755C152.885 28.6251 153.232 28.5544 153.574 28.464C154.053 28.3449 154.233 28.084 154.261 27.4735C154.34 26.0307 154.345 23.3239 154.317 21.4213V21.3656C154.317 21.1604 154.317 20.8817 154.063 20.6854C153.618 20.4061 153.134 20.1927 152.627 20.0521C152.401 19.9849 152.275 19.8659 152.281 19.7265C152.288 19.5872 152.431 19.4225 152.726 19.3643C153.511 19.2845 155.566 18.7943 156.374 18.4219C156.457 18.5302 156.495 18.6661 156.481 18.8019C156.481 18.8855 156.469 18.9741 156.46 19.0653C156.437 19.3339 156.412 19.6391 156.412 19.9431C156.417 19.9801 156.432 20.0149 156.455 20.0437C156.479 20.0724 156.51 20.094 156.546 20.106C156.581 20.118 156.619 20.1199 156.655 20.1115C156.692 20.1031 156.725 20.0847 156.751 20.0584C158.288 18.8538 159.666 18.4244 160.372 18.4244C161.534 18.4244 162.439 18.9792 163.14 20.1217C163.156 20.1493 163.179 20.1723 163.206 20.1885C163.234 20.2047 163.265 20.2136 163.297 20.2142C163.326 20.2139 163.354 20.2067 163.38 20.193C163.406 20.1793 163.427 20.1596 163.444 20.1357C164.857 19.0641 166.257 18.4244 167.195 18.4244C169.41 18.4244 170.734 20.0825 170.734 22.8577C170.734 23.6557 170.727 24.6678 170.719 25.6115C170.713 26.4399 170.707 27.2163 170.707 27.7534C170.707 27.8801 170.882 28.2449 171.144 28.3171C171.468 28.4754 171.936 28.5565 172.528 28.6578H172.551C172.595 28.8174 172.501 29.4368 172.411 29.5635C172.264 29.5635 172.061 29.5508 171.808 29.5381C171.348 29.5153 170.717 29.4837 169.983 29.4837C168.51 29.4837 167.741 29.5115 167.006 29.5597C166.95 29.376 166.931 28.7832 166.999 28.6591C167.303 28.6115 167.604 28.5459 167.901 28.4627C168.37 28.3082 168.505 28.0954 168.534 27.4735C168.546 27.0314 168.631 23.1364 168.48 22.2117C168.341 21.2529 167.618 20.1306 166.038 20.1306C165.451 20.1306 164.504 20.3751 163.602 21.0591C163.546 21.1225 163.515 21.2038 163.513 21.2883V21.3073C163.62 21.8064 163.62 22.3891 163.62 23.2694C163.62 23.7761 163.62 24.3043 163.614 24.8325C163.607 25.9066 163.602 26.9199 163.62 27.6863C163.62 28.2081 163.935 28.3335 164.19 28.4336C164.328 28.464 164.437 28.4906 164.548 28.5159C164.759 28.5679 164.98 28.6211 165.308 28.673C165.357 28.8955 165.352 29.1263 165.295 29.3469C165.282 29.4296 165.249 29.5081 165.2 29.5761C164.382 29.5483 163.541 29.5242 162.329 29.5242C161.961 29.5242 161.362 29.5394 160.832 29.5533C160.402 29.5647 159.997 29.5761 159.766 29.5774C159.704 29.4303 159.676 29.2708 159.685 29.1113C159.672 28.961 159.701 28.81 159.77 28.6755L160.096 28.616C160.379 28.5653 160.625 28.5223 160.856 28.464C161.256 28.3373 161.407 28.1195 161.436 27.609C161.515 26.4183 161.576 22.9869 161.407 22.1281C161.121 20.75 160.336 20.0508 159.074 20.0508C158.335 20.0508 157.401 20.4067 156.638 20.978C156.565 21.0494 156.507 21.1352 156.469 21.2301C156.43 21.3249 156.411 21.4267 156.414 21.529C156.414 21.9381 156.414 22.4245 156.414 22.9464C156.414 24.6691 156.403 26.8135 156.445 27.7407C156.47 28.027 156.571 28.3665 157.107 28.4906C157.225 28.5248 157.428 28.5577 157.664 28.597C157.799 28.6198 157.948 28.6439 158.101 28.6717C158.15 28.9751 158.125 29.2856 158.029 29.5774C157.793 29.5774 157.503 29.5622 157.171 29.5483C156.664 29.5255 156.03 29.4976 155.314 29.4976C154.468 29.4976 153.878 29.5255 153.406 29.5483C153.087 29.5635 152.812 29.5761 152.537 29.5774" fill="white" fill-opacity="0.5"/>
<path d="M179.711 19.5691C179.253 19.5596 178.803 19.6861 178.418 19.9326C177.478 20.5039 176.999 21.6452 176.999 23.3222C176.999 26.461 178.571 28.6536 180.823 28.6536C181.427 28.6728 182.016 28.4644 182.473 28.0697C183.165 27.506 183.533 26.3534 183.533 24.7396C183.533 21.6477 181.996 19.5691 179.708 19.5691M180.142 29.8177C176.074 29.8177 174.625 26.8347 174.625 24.0442C174.625 22.0948 175.422 20.571 176.995 19.5134C178.096 18.8318 179.361 18.4582 180.656 18.4316C183.76 18.4316 185.928 20.6622 185.928 23.858C185.928 26.0291 185.062 27.7442 183.424 28.8158C182.637 29.2971 181.269 29.8177 180.142 29.8177Z" fill="white" fill-opacity="0.5"/>
<path d="M221.126 19.5691C220.668 19.5587 220.217 19.6853 219.831 19.9326C218.891 20.5039 218.412 21.6452 218.412 23.3222C218.412 26.461 219.984 28.6536 222.236 28.6536C222.842 28.6741 223.433 28.4656 223.891 28.0697C224.583 27.506 224.949 26.3534 224.949 24.7396C224.949 21.6477 223.414 19.5691 221.126 19.5691ZM221.559 29.8177C217.491 29.8177 216.043 26.8347 216.043 24.0455C216.043 22.0936 216.84 20.571 218.414 19.5134C219.515 18.8314 220.779 18.4577 222.074 18.4316C225.178 18.4316 227.346 20.6635 227.346 23.8568C227.346 26.0304 226.48 27.7442 224.842 28.8145C224.055 29.2971 222.687 29.8177 221.559 29.8177Z" fill="white" fill-opacity="0.5"/>
<path d="M207.429 19.4631C206.176 19.4631 205.365 20.4523 205.365 21.9837C205.365 23.5151 206.063 25.3353 208.026 25.3353C208.363 25.3353 208.974 25.1859 209.277 24.8527C209.733 24.4335 210.037 23.5671 210.037 22.6525C210.037 20.655 209.064 19.4631 207.435 19.4631M207.273 30.0321C206.919 30.0283 206.57 30.1155 206.259 30.2855C205.267 30.9188 204.807 31.5521 204.807 32.2881C204.807 32.9771 205.075 33.5256 205.65 34.012C206.347 34.6023 207.287 34.8898 208.523 34.8898C210.955 34.8898 212.045 33.5826 212.045 32.2881C212.045 31.3862 211.592 30.782 210.661 30.44C209.943 30.1778 208.745 30.0334 207.277 30.0334M207.439 36.2401C205.979 36.2401 204.928 35.9323 204.029 35.2407C203.155 34.5668 202.762 33.5661 202.762 32.8745C202.771 32.4289 202.941 32.0016 203.241 31.6712C203.494 31.3824 204.084 30.8415 205.446 29.9055C205.467 29.8965 205.485 29.8815 205.498 29.8623C205.51 29.8432 205.517 29.8207 205.517 29.7978C205.517 29.7722 205.509 29.7472 205.493 29.727C205.478 29.7067 205.456 29.6924 205.431 29.6863C204.309 29.2569 203.971 28.5463 203.868 28.1663C203.868 28.1524 203.868 28.1309 203.857 28.1068C203.825 27.9573 203.795 27.8155 203.999 27.6698C204.156 27.5583 204.407 27.4089 204.675 27.2505C205.055 27.0407 205.418 26.8041 205.764 26.5425C205.783 26.5225 205.796 26.4986 205.804 26.4725C205.812 26.4464 205.814 26.4189 205.809 26.392C205.805 26.3651 205.795 26.3395 205.779 26.3173C205.763 26.2951 205.742 26.2768 205.718 26.2638C204.058 25.7065 203.222 24.474 203.222 22.5905C203.217 22.0031 203.353 21.4232 203.62 20.9C203.887 20.3767 204.277 19.9255 204.755 19.5847C205.423 19.0565 207.1 18.4219 208.186 18.4219H208.249C209.366 18.4485 209.995 18.6828 210.867 19.0045C211.363 19.1838 211.889 19.2672 212.416 19.2503C213.34 19.2503 213.744 18.9577 214.091 18.6169C214.148 18.7704 214.178 18.9323 214.18 19.0957C214.201 19.4852 214.095 19.871 213.878 20.1952C213.69 20.4574 213.245 20.6474 212.838 20.6474C212.796 20.6474 212.756 20.6474 212.711 20.6411C212.497 20.626 212.285 20.5908 212.078 20.5359L211.974 20.5727C211.941 20.6208 211.962 20.674 211.989 20.7424C211.995 20.7558 212 20.7698 212.004 20.7842C212.078 21.1223 212.129 21.4651 212.155 21.8102C212.155 23.7799 211.378 24.6374 210.538 25.2733C209.725 25.8825 208.761 26.2559 207.75 26.3525C207.728 26.3525 207.623 26.3613 207.425 26.3791C207.299 26.3905 207.134 26.4057 207.11 26.4057H207.086C206.903 26.4563 206.427 26.6831 206.427 27.1049C206.427 27.4545 206.642 27.8889 207.672 27.9675L208.339 28.0143C209.698 28.1093 211.394 28.2271 212.193 28.4969C212.723 28.6831 213.18 29.0314 213.5 29.4924C213.82 29.9533 213.987 30.5035 213.976 31.0645C213.976 32.8315 212.719 34.4933 210.614 35.5092C209.621 35.9831 208.534 36.2269 207.434 36.2223" fill="white" fill-opacity="0.5"/>
<path d="M201.212 28.6339C200.616 28.5541 200.182 28.4731 199.668 28.2324C199.568 28.1281 199.501 27.9955 199.478 27.8524C199.424 27.0227 199.424 24.6148 199.424 23.0391C199.424 21.7534 199.208 20.6324 198.663 19.8281C198.013 18.9173 197.093 18.3828 195.902 18.3828C194.846 18.3828 193.438 19.1048 192.275 20.0953C192.247 20.1219 192.068 20.2917 192.072 20.0282C192.076 19.7647 192.117 19.2302 192.142 18.8882C192.153 18.7973 192.143 18.7051 192.112 18.6189C192.081 18.5327 192.031 18.4549 191.965 18.3917C191.204 18.7717 189.071 19.2783 188.282 19.3556C187.706 19.4671 187.561 20.0206 188.175 20.2119H188.184C188.676 20.3475 189.146 20.554 189.578 20.8249C189.822 21.0124 189.795 21.2797 189.795 21.4937C189.822 23.2861 189.822 26.0423 189.74 27.5408C189.714 28.1298 189.55 28.3439 189.117 28.4515L189.157 28.4376C188.827 28.5203 188.493 28.5829 188.155 28.6251C188.019 28.7581 188.019 29.5345 188.155 29.6954C188.426 29.6954 189.803 29.6156 190.943 29.6156C192.512 29.6156 193.324 29.6954 193.731 29.6954C193.895 29.5079 193.948 28.7859 193.84 28.6251C193.465 28.6081 193.093 28.5543 192.729 28.4642C192.297 28.3578 192.188 28.1425 192.161 27.6624C192.108 26.4033 192.108 23.7281 192.108 21.9079C192.108 21.4013 192.242 21.1593 192.404 21.0213C192.945 20.5399 193.84 20.2195 194.625 20.2195C195.385 20.2195 195.892 20.4601 196.272 20.7806C196.715 21.1668 196.992 21.7082 197.048 22.293C197.155 23.3063 197.127 25.3444 197.127 27.1063C197.127 28.0703 197.048 28.3122 196.695 28.4186C196.533 28.4984 196.1 28.5795 195.585 28.6327C195.423 28.7935 195.476 29.5421 195.585 29.703C196.289 29.703 197.106 29.6232 198.292 29.6232C199.781 29.6232 200.729 29.703 201.108 29.703C201.27 29.5155 201.325 28.8163 201.217 28.6327" fill="white" fill-opacity="0.5"/>
<path d="M378.786 4.75H383.494V26.3257C381.484 26.7382 379.439 26.951 377.387 26.961C371.637 26.9551 368.645 24.3865 368.645 19.4536C368.645 14.7036 371.819 11.6161 376.739 11.6161C377.429 11.6027 378.117 11.6826 378.786 11.8536V4.75ZM378.786 15.6061C378.274 15.4373 377.737 15.357 377.198 15.3686C374.823 15.3686 373.442 16.8209 373.442 19.3658C373.442 21.8441 374.757 23.2121 377.168 23.2121C377.71 23.2119 378.25 23.1722 378.786 23.0933V15.6121V15.6061Z" fill="#44B78B"/>
<path d="M390.975 11.9453V22.7516C390.975 26.472 390.696 28.2604 389.879 29.8029C389.045 31.3714 387.682 32.593 386.032 33.2502L381.664 31.1923C383.251 30.649 384.58 29.5366 385.394 28.0704C386.066 26.7392 386.279 25.1966 386.279 21.1389V11.9453H390.975Z" fill="#44B78B"/>
<path d="M390.981 4.77344H386.273V9.55669H390.981V4.77344Z" fill="#44B78B"/>
<path d="M528.78 22.7551C528.559 22.0859 527.98 21.6198 527.232 21.508C526.879 21.4553 526.475 21.4778 525.996 21.5764C525.163 21.7484 524.544 21.8139 524.093 21.8265C525.797 18.9499 527.182 15.6695 527.98 12.5816C529.269 7.58847 528.58 5.3138 527.775 4.28492C525.644 1.56158 522.534 0.0985833 518.783 0.0538182C516.781 0.0293485 515.025 0.424462 514.108 0.708598C513.255 0.558038 512.337 0.473977 511.375 0.458432C509.57 0.429644 507.976 0.82303 506.613 1.63154C505.859 1.37648 504.649 1.01692 503.251 0.787477C499.963 0.247705 497.313 0.668296 495.375 2.03759C493.028 3.69548 491.94 6.576 492.141 10.5991C492.205 11.8764 492.919 15.7628 494.044 19.4485C494.691 21.567 495.38 23.3262 496.093 24.6778C497.105 26.5944 498.187 27.723 499.402 28.1283C500.083 28.3552 501.32 28.5141 502.622 27.4302C502.787 27.63 503.007 27.8285 503.299 28.0129C503.67 28.2468 504.123 28.4379 504.576 28.5512C506.209 28.9593 507.738 28.8572 509.042 28.2852C509.05 28.5173 509.057 28.7389 509.062 28.9304C509.07 29.2408 509.079 29.5453 509.09 29.83C509.168 31.755 509.299 33.2519 509.687 34.2992C509.708 34.3567 509.737 34.4445 509.767 34.5377C509.961 35.1304 510.284 36.1227 511.108 36.8999C511.961 37.7049 512.992 37.9518 513.937 37.9518C514.411 37.9518 514.863 37.8896 515.26 37.8047C516.673 37.5017 518.279 37.0402 519.44 35.3866C520.538 33.8234 521.072 31.469 521.168 27.7593C521.181 27.6543 521.192 27.5542 521.203 27.4587L521.226 27.2627L521.485 27.2854L521.552 27.2899C522.991 27.3555 524.752 27.0502 525.833 26.548C526.687 26.1516 529.425 24.7063 528.78 22.7551Z" fill="black"/>
<path d="M526.321 23.1332C522.041 24.0163 521.746 22.567 521.746 22.567C526.266 15.8604 528.156 7.34738 526.525 5.26386C522.077 -0.419588 514.377 2.26834 514.248 2.338L514.207 2.34549C513.361 2.16988 512.415 2.06538 511.351 2.04796C509.414 2.0163 507.945 2.55578 506.83 3.40128C506.83 3.40128 493.094 -2.25755 493.733 10.5182C493.868 13.2361 497.628 31.0833 502.112 25.6926C503.751 23.7213 505.335 22.0547 505.335 22.0547C506.122 22.5772 507.063 22.8438 508.05 22.748L508.127 22.683C508.103 22.9277 508.114 23.167 508.158 23.4505C507.003 24.7412 507.342 24.9677 505.033 25.4432C502.696 25.9248 504.069 26.7821 504.965 27.0063C506.052 27.2779 508.565 27.6628 510.264 25.2851L510.196 25.5564C510.649 25.919 510.967 27.9146 510.913 29.7238C510.86 31.5328 510.824 32.7748 511.181 33.745C511.538 34.7151 511.893 36.898 514.929 36.2475C517.466 35.7039 518.78 34.2951 518.963 31.9452C519.093 30.2746 519.387 30.5216 519.405 29.028L519.641 28.3209C519.913 26.0563 519.684 25.3257 521.247 25.6655L521.627 25.6989C522.777 25.7512 524.283 25.5138 525.166 25.1032C527.069 24.2202 528.197 22.7459 526.321 23.1332H526.321Z" fill="#336791"/>
<path d="M507.631 11.7338C507.246 11.6801 506.896 11.7298 506.719 11.8637C506.62 11.9389 506.589 12.0262 506.581 12.0862C506.559 12.2452 506.67 12.4211 506.739 12.5118C506.932 12.7686 507.215 12.9451 507.496 12.9839C507.536 12.9897 507.577 12.9923 507.617 12.9923C508.084 12.9923 508.509 12.6285 508.546 12.3601C508.593 12.0239 508.105 11.7996 507.631 11.7338ZM520.411 11.7445C520.374 11.4809 519.905 11.4058 519.46 11.4677C519.015 11.5296 518.585 11.7302 518.621 11.9943C518.649 12.1998 519.02 12.5504 519.459 12.5504C519.496 12.5504 519.534 12.5479 519.572 12.5426C519.865 12.502 520.08 12.3159 520.182 12.2087C520.337 12.0452 520.427 11.8629 520.411 11.7445Z" fill="white"/>
<path d="M527.744 23.034C527.581 22.5405 527.055 22.3817 526.183 22.5619C523.591 23.0968 522.663 22.7263 522.358 22.5019C524.373 19.4331 526.03 15.7235 526.924 12.2625C527.347 10.623 527.581 9.10041 527.6 7.85936C527.621 6.49726 527.389 5.49631 526.911 4.88486C524.982 2.41989 522.151 1.09767 518.723 1.06139C516.367 1.03491 514.377 1.63787 513.991 1.80743C513.178 1.60534 512.292 1.48126 511.328 1.46543C509.559 1.43679 508.03 1.86026 506.764 2.72346C506.214 2.51878 504.793 2.03097 503.055 1.75101C500.051 1.26737 497.664 1.63384 495.96 2.84077C493.927 4.28103 492.989 6.85553 493.171 10.4926C493.232 11.7162 493.929 15.4805 495.029 19.0855C496.478 23.8303 498.052 26.5164 499.708 27.0689C499.902 27.1336 500.126 27.1788 500.372 27.1788C500.977 27.1788 501.718 26.9064 502.488 25.9798C503.429 24.8519 504.401 23.7515 505.405 22.6798C506.056 23.0293 506.771 23.2245 507.503 23.244C507.504 23.2632 507.506 23.2823 507.508 23.3013C507.382 23.4515 507.259 23.6039 507.138 23.7583C506.631 24.4019 506.526 24.5359 504.894 24.8718C504.43 24.9677 503.197 25.2218 503.179 26.086C503.159 27.0302 504.636 27.4268 504.804 27.4688C505.391 27.6156 505.956 27.688 506.494 27.688C507.805 27.688 508.958 27.2574 509.879 26.4241C509.851 29.7903 509.991 33.1072 510.395 34.1178C510.726 34.9452 511.535 36.9671 514.089 36.9669C514.464 36.9669 514.877 36.9233 515.331 36.826C517.997 36.2546 519.154 35.0763 519.602 32.4786C519.842 31.0903 520.253 27.7753 520.446 25.997C520.855 26.1244 521.38 26.1827 521.948 26.1826C523.133 26.1826 524.5 25.9308 525.358 25.5328C526.321 25.0855 528.059 23.9878 527.744 23.034ZM521.396 11.018C521.387 11.5429 521.314 12.0195 521.238 12.517C521.155 13.052 521.07 13.6051 521.049 14.2766C521.028 14.9301 521.109 15.6095 521.188 16.2666C521.348 17.5937 521.511 18.96 520.878 20.3081C520.773 20.1217 520.679 19.9289 520.597 19.7311C520.518 19.5402 520.347 19.2336 520.111 18.8093C519.189 17.1574 517.033 13.2892 518.137 11.7107C518.466 11.2409 519.3 10.7579 521.396 11.018ZM518.856 2.12439C521.927 2.19218 524.356 3.34096 526.076 5.53863C527.395 7.2243 525.942 14.8944 521.737 21.5114C521.695 21.4577 521.652 21.4041 521.61 21.3507L521.556 21.2842C522.643 19.4897 522.431 17.7142 522.241 16.1401C522.164 15.4941 522.09 14.8839 522.109 14.3107C522.128 13.7033 522.209 13.1822 522.286 12.6785C522.382 12.0576 522.479 11.4152 522.452 10.658C522.472 10.5785 522.48 10.4847 522.47 10.3733C522.401 9.64709 521.572 7.47375 519.882 5.50667C518.958 4.43073 517.61 3.22667 515.769 2.41457C516.561 2.25048 517.644 2.09747 518.856 2.12439ZM501.673 25.3015C500.823 26.3226 500.237 26.1269 500.044 26.0627C498.788 25.6435 497.329 22.9875 496.044 18.7759C494.932 15.1316 494.282 11.4671 494.23 10.4395C494.068 7.18961 494.855 4.92473 496.572 3.70757C499.365 1.72697 503.957 2.91245 505.802 3.51369C505.775 3.53989 505.748 3.56436 505.721 3.59098C502.693 6.64883 502.765 11.8733 502.773 12.1927C502.772 12.3159 502.783 12.4903 502.797 12.7303C502.849 13.609 502.946 15.2445 502.687 17.0965C502.446 18.8176 502.977 20.5021 504.142 21.7183C504.262 21.8429 504.388 21.9614 504.519 22.0735C504 22.6291 502.873 23.8578 501.673 25.3015ZM504.908 20.9843C503.969 20.0041 503.542 18.6407 503.738 17.2433C504.011 15.2869 503.91 13.583 503.856 12.6675C503.848 12.5394 503.842 12.4271 503.838 12.3386C504.28 11.9464 506.33 10.8481 507.792 11.1831C508.459 11.3358 508.865 11.7901 509.034 12.5714C509.909 16.6165 509.15 18.3025 508.54 19.6574C508.414 19.9365 508.296 20.2003 508.194 20.4732L508.116 20.6842C507.917 21.2177 507.732 21.7137 507.617 22.1846C506.618 22.1818 505.647 21.7551 504.908 20.9842V20.9843ZM505.062 26.4396C504.77 26.3668 504.508 26.2403 504.354 26.1353C504.482 26.0749 504.711 25.9926 505.108 25.9108C507.027 25.5157 507.324 25.2367 507.971 24.4147C508.12 24.2261 508.288 24.0125 508.521 23.7523L508.521 23.752C508.868 23.3634 509.027 23.4293 509.315 23.5488C509.548 23.6452 509.776 23.9377 509.868 24.2595C509.911 24.4115 509.96 24.7 509.8 24.9245C508.448 26.8182 506.477 26.7939 505.062 26.4396ZM515.108 35.7888C512.76 36.292 511.928 35.0937 511.38 33.7238C511.027 32.8395 510.853 28.8515 510.976 24.4474C510.978 24.3888 510.969 24.3322 510.953 24.279C510.939 24.1738 510.917 24.0698 510.888 23.9678C510.704 23.3269 510.257 22.7909 509.721 22.5687C509.508 22.4804 509.117 22.3185 508.647 22.4387C508.748 22.0259 508.921 21.5597 509.11 21.0549L509.189 20.8426C509.278 20.6032 509.389 20.3552 509.507 20.0926C510.145 18.6751 511.019 16.7335 510.071 12.3472C509.716 10.7043 508.529 9.90201 506.731 10.0884C505.653 10.2 504.666 10.6349 504.174 10.8844C504.069 10.9379 503.972 10.9898 503.882 11.0401C504.019 9.38483 504.538 6.29129 506.478 4.334C507.7 3.10188 509.327 2.4933 511.31 2.52612C515.216 2.59003 517.722 4.59482 519.135 6.26552C520.354 7.70506 521.013 9.15525 521.277 9.93742C519.297 9.73605 517.95 10.1268 517.268 11.1027C515.783 13.2256 518.08 17.3457 519.184 19.3259C519.387 19.6887 519.561 20.0024 519.616 20.1357C519.976 21.0071 520.441 21.5889 520.781 22.0135C520.886 22.1436 520.987 22.2699 521.063 22.3801C520.464 22.553 519.387 22.9524 519.485 24.949C519.406 25.9508 518.843 30.6412 518.557 32.2984C518.179 34.4877 517.374 35.3031 515.108 35.7889V35.7888ZM524.911 24.5707C524.298 24.8553 523.272 25.0688 522.297 25.1147C521.22 25.1651 520.672 24.9941 520.543 24.8888C520.483 23.6446 520.946 23.5146 521.436 23.377C521.513 23.3554 521.588 23.3343 521.661 23.309C521.706 23.3457 521.755 23.3821 521.809 23.4178C522.675 23.9889 524.218 24.0505 526.397 23.6007L526.421 23.596C526.127 23.8708 525.624 24.2395 524.911 24.5707Z" fill="white"/>
<path d="M650.698 10.0562H652.057L655.931 6.18835L656.121 4.54621C653.902 2.59051 651.22 1.23195 648.329 0.598867C645.438 -0.0342131 642.433 0.0790867 639.598 0.928064C636.763 1.77704 634.192 3.33367 632.127 5.4509C630.062 7.56813 628.572 10.1761 627.797 13.0284C628.228 12.8517 628.706 12.8231 629.156 12.9469L636.903 11.6712C636.903 11.6712 637.297 11.0198 637.501 11.0605C639.161 9.24011 641.455 8.12214 643.913 7.93544C646.372 7.74874 648.809 8.50744 650.725 10.0562H650.698Z" fill="#EA4335"/>
<path d="M661.447 13.0291C660.557 9.75519 658.729 6.81197 656.187 4.56055L650.751 9.98912C651.884 10.9136 652.792 12.0828 653.406 13.4088C654.021 14.7347 654.326 16.1826 654.298 17.6434V18.607C654.934 18.607 655.563 18.7319 656.15 18.9747C656.737 19.2175 657.27 19.5734 657.719 20.0221C658.169 20.4707 658.525 21.0033 658.768 21.5895C659.011 22.1757 659.137 22.8039 659.137 23.4384C659.137 24.0729 659.011 24.7011 658.768 25.2873C658.525 25.8735 658.169 26.4061 657.719 26.8547C657.27 27.3034 656.737 27.6593 656.15 27.9021C655.563 28.1449 654.934 28.2698 654.298 28.2698H644.621L643.656 29.247V35.042L644.621 36.0055H654.298C657 36.0266 659.638 35.1785 661.82 33.5868C664.002 31.9951 665.613 29.7444 666.415 27.1675C667.217 24.5906 667.166 21.8244 666.272 19.2782C665.377 16.732 663.685 14.5409 661.447 13.0291Z" fill="#4285F4"/>
<path d="M634.929 35.9512H644.606V28.2155H634.929C634.24 28.2154 633.559 28.0673 632.932 27.7812L631.572 28.202L627.672 32.0698L627.332 33.427C629.519 35.0763 632.189 35.9631 634.929 35.9512Z" fill="#34A853"/>
<path d="M634.932 10.8575C632.31 10.8731 629.759 11.7061 627.634 13.2401C625.509 14.7741 623.917 16.9325 623.08 19.4138C622.243 21.8951 622.203 24.5754 622.966 27.0804C623.729 29.5854 625.256 31.7899 627.335 33.3861L632.948 27.7811C632.234 27.4593 631.61 26.9695 631.128 26.3537C630.646 25.7379 630.321 25.0145 630.18 24.2456C630.04 23.4767 630.088 22.6853 630.321 21.9391C630.554 21.193 630.965 20.5145 631.519 19.9618C632.072 19.4091 632.752 18.9988 633.499 18.766C634.246 18.5332 635.039 18.4849 635.809 18.6252C636.579 18.7656 637.303 19.0904 637.92 19.5717C638.536 20.0531 639.027 20.6767 639.349 21.3889L644.962 15.7839C643.784 14.246 642.266 13.001 640.526 12.1463C638.786 11.2917 636.871 10.8506 634.932 10.8575Z" fill="#FBBC05"/>
<path d="M692.748 30.5495C691.081 30.5707 689.428 30.2559 687.887 29.6239C686.346 28.992 684.948 28.0558 683.777 26.8717C682.57 25.7377 681.612 24.3656 680.964 22.8424C680.316 21.3191 679.992 19.678 680.013 18.0231C679.993 16.3683 680.317 14.7274 680.965 13.2043C681.613 11.6812 682.571 10.309 683.777 9.17451C684.942 7.97806 686.337 7.02939 687.879 6.38565C689.42 5.74191 691.077 5.41643 692.748 5.4288C694.34 5.40761 695.92 5.70265 697.397 6.29675C698.874 6.89086 700.218 7.77219 701.351 8.88951L698.932 11.3459C697.275 9.74716 695.051 8.86881 692.748 8.90309C691.553 8.88843 690.368 9.12217 689.268 9.58945C688.168 10.0567 687.178 10.7473 686.36 11.6174C685.51 12.4596 684.839 13.4649 684.388 14.5728C683.937 15.6806 683.716 16.8682 683.737 18.0638C683.727 19.2458 683.954 20.4179 684.404 21.511C684.855 22.6041 685.519 23.5962 686.36 24.4288C688.043 26.1036 690.314 27.0564 692.69 27.0843C695.066 27.1122 697.359 26.213 699.081 24.5781C700.147 23.4123 700.801 21.9297 700.943 20.3574H692.788V16.8831H704.327C704.441 17.5828 704.486 18.2918 704.463 19.0002C704.535 20.4665 704.308 21.9321 703.797 23.3083C703.285 24.6846 702.499 25.943 701.487 27.0074C700.361 28.1777 699.001 29.098 697.495 29.7083C695.989 30.3187 694.372 30.6053 692.748 30.5495ZM719.577 28.2424C718.028 29.7246 715.966 30.5522 713.821 30.5522C711.676 30.5522 709.613 29.7246 708.065 28.2424C707.294 27.4961 706.687 26.5981 706.282 25.6051C705.877 24.6122 705.684 23.5461 705.714 22.4745C705.685 21.403 705.879 20.3372 706.283 19.3444C706.688 18.3516 707.295 17.4534 708.065 16.7067C709.615 15.2275 711.677 14.4021 713.821 14.4021C715.965 14.4021 718.026 15.2275 719.577 16.7067C720.347 17.4534 720.953 18.3516 721.358 19.3444C721.763 20.3372 721.957 21.403 721.928 22.4745C721.956 23.5471 721.76 24.6138 721.353 25.6068C720.946 26.5998 720.336 27.4973 719.563 28.2424H719.577ZM710.606 25.9759C711.018 26.4152 711.516 26.7653 712.069 27.0047C712.622 27.2441 713.218 27.3676 713.821 27.3676C714.423 27.3676 715.019 27.2441 715.572 27.0047C716.125 26.7653 716.623 26.4152 717.035 25.9759C717.484 25.5124 717.836 24.9638 718.069 24.3625C718.303 23.7611 718.413 23.1192 718.394 22.4745C718.414 21.8277 718.304 21.1834 718.071 20.5797C717.837 19.976 717.485 19.4251 717.035 18.9595C716.618 18.5248 716.116 18.1788 715.562 17.9425C715.007 17.7062 714.41 17.5844 713.807 17.5844C713.204 17.5844 712.607 17.7062 712.052 17.9425C711.498 18.1788 710.997 18.5248 710.579 18.9595C710.129 19.4251 709.777 19.976 709.543 20.5797C709.31 21.1834 709.2 21.8277 709.22 22.4745C709.203 23.1201 709.316 23.7626 709.551 24.364C709.787 24.9655 710.141 25.5136 710.593 25.9759H710.606ZM737.272 28.2424C735.724 29.7246 733.661 30.5522 731.516 30.5522C729.371 30.5522 727.309 29.7246 725.76 28.2424C724.99 27.4961 724.383 26.5981 723.978 25.6051C723.573 24.6122 723.38 23.5461 723.409 22.4745C723.38 21.403 723.574 20.3372 723.979 19.3444C724.384 18.3516 724.99 17.4534 725.76 16.7067C727.309 15.2244 729.371 14.3969 731.516 14.3969C733.661 14.3969 735.724 15.2244 737.272 16.7067C738.042 17.4534 738.649 18.3516 739.054 19.3444C739.458 20.3372 739.652 21.403 739.623 22.4745C739.653 23.5461 739.46 24.6122 739.055 25.6051C738.65 26.5981 738.043 27.4961 737.272 28.2424ZM728.302 25.9759C728.714 26.4152 729.212 26.7653 729.765 27.0047C730.318 27.2441 730.914 27.3676 731.516 27.3676C732.119 27.3676 732.715 27.2441 733.268 27.0047C733.821 26.7653 734.319 26.4152 734.731 25.9759C735.18 25.5124 735.531 24.9638 735.765 24.3625C735.998 23.7611 736.109 23.1192 736.09 22.4745C736.11 21.8277 736 21.1834 735.766 20.5797C735.533 19.976 735.181 19.4251 734.731 18.9595C734.313 18.5248 733.812 18.1788 733.257 17.9425C732.703 17.7062 732.106 17.5844 731.503 17.5844C730.9 17.5844 730.303 17.7062 729.748 17.9425C729.193 18.1788 728.692 18.5248 728.275 18.9595C727.825 19.4251 727.473 19.976 727.239 20.5797C727.006 21.1834 726.896 21.8277 726.916 22.4745C726.899 23.1201 727.011 23.7626 727.247 24.364C727.483 24.9655 727.837 25.5136 728.288 25.9759H728.302ZM748.906 37.7967C747.277 37.8484 745.68 37.3406 744.38 36.3581C743.227 35.4921 742.318 34.3416 741.744 33.0195L744.842 31.7302C745.18 32.5203 745.707 33.215 746.378 33.7524C747.096 34.3305 747.998 34.6337 748.92 34.6074C749.505 34.6429 750.09 34.5522 750.637 34.3414C751.183 34.1306 751.678 33.8047 752.087 33.3859C752.905 32.3997 753.31 31.135 753.215 29.8574V28.6902H753.092C752.574 29.3045 751.92 29.7898 751.182 30.1078C750.444 30.4259 749.641 30.5678 748.838 30.5224C747.818 30.5254 746.808 30.3172 745.872 29.9107C744.936 29.5043 744.095 28.9085 743.402 28.1609C742.649 27.4194 742.055 26.5331 741.656 25.5556C741.257 24.5782 741.06 23.53 741.078 22.4745C741.059 21.4128 741.255 20.3583 741.655 19.3741C742.054 18.39 742.648 17.4965 743.402 16.7474C744.094 15.9967 744.934 15.3979 745.87 14.9891C746.806 14.5802 747.817 14.3702 748.838 14.3724C749.703 14.3709 750.557 14.5609 751.339 14.9288C752.016 15.2238 752.619 15.664 753.106 16.2181H753.228V14.9288H756.599V29.3824C756.688 30.5257 756.542 31.6752 756.17 32.7603C755.799 33.8454 755.209 34.8433 754.438 35.6931C753.703 36.3948 752.835 36.9425 751.885 37.3038C750.935 37.6651 749.922 37.8327 748.906 37.7967ZM749.151 27.3738C749.731 27.3865 750.307 27.2715 750.838 27.037C751.369 26.8025 751.842 26.4541 752.222 26.0167C753.061 25.0571 753.503 23.8152 753.459 22.5424C753.51 21.2481 753.068 19.9827 752.222 19.0002C751.842 18.5621 751.37 18.2132 750.839 17.9786C750.308 17.744 749.731 17.6294 749.151 17.6431C748.555 17.6309 747.963 17.7456 747.414 17.9796C746.866 18.2136 746.374 18.5615 745.971 19.0002C745.072 19.9474 744.583 21.2105 744.611 22.5152C744.598 23.1552 744.711 23.7916 744.944 24.3878C745.177 24.984 745.526 25.5284 745.971 25.9895C746.372 26.4325 746.863 26.785 747.411 27.0237C747.96 27.2624 748.553 27.3817 749.151 27.3738ZM762.593 6.33809V30.0609H759.045V6.33809H762.593ZM772.324 30.5495C771.261 30.5768 770.205 30.3847 769.22 29.9854C768.236 29.5861 767.344 28.9881 766.602 28.2288C765.849 27.4751 765.257 26.5764 764.862 25.5872C764.467 24.598 764.277 23.539 764.305 22.4745C764.265 21.4074 764.44 20.3431 764.821 19.3452C765.201 18.3472 765.779 17.436 766.52 16.6659C767.219 15.931 768.063 15.3498 768.999 14.9595C769.935 14.5692 770.943 14.3785 771.957 14.3995C772.89 14.3897 773.814 14.5698 774.675 14.9288C775.45 15.2413 776.157 15.7023 776.755 16.2859C777.268 16.7807 777.724 17.3316 778.114 17.9281C778.429 18.4317 778.697 18.9633 778.916 19.5159L779.282 20.4388L768.41 24.9038C768.738 25.6582 769.288 26.2955 769.987 26.7316C770.686 27.1677 771.501 27.3821 772.324 27.3467C773.125 27.3488 773.913 27.1437 774.611 26.7512C775.308 26.3588 775.893 25.7924 776.306 25.1074L779.024 26.9395C778.331 27.9305 777.443 28.7708 776.415 29.4095C775.192 30.1809 773.77 30.5772 772.324 30.5495ZM767.784 22.2302L775.015 19.2309C774.792 18.7021 774.394 18.266 773.887 17.9959C773.319 17.6759 772.677 17.5119 772.025 17.5209C770.919 17.5495 769.869 18.0129 769.103 18.8102C768.644 19.2482 768.289 19.7819 768.061 20.3731C767.833 20.9642 767.738 21.5984 767.784 22.2302Z" fill="white" fill-opacity="0.5"/>
<path d="M797.861 30.5504C796.353 30.5764 794.854 30.2978 793.456 29.7312C792.058 29.1646 790.789 28.3217 789.725 27.2532C788.662 26.1846 787.825 24.9125 787.266 23.5131C786.707 22.1137 786.437 20.616 786.472 19.1097C786.437 17.6035 786.707 16.1057 787.266 14.7063C787.825 13.3069 788.662 12.0348 789.725 10.9663C790.789 9.89776 792.058 9.05489 793.456 8.48828C794.854 7.92167 796.353 7.643 797.861 7.66901C799.388 7.62134 800.906 7.91882 802.302 8.53923C803.697 9.15965 804.934 10.087 805.921 11.2519L803.964 13.1519C803.239 12.2424 802.311 11.5165 801.253 11.0331C800.195 10.5496 799.037 10.3223 797.875 10.3697C796.756 10.3445 795.643 10.5456 794.604 10.9607C793.564 11.3758 792.62 11.9965 791.827 12.7854C791.002 13.6133 790.358 14.6025 789.935 15.6908C789.511 16.7792 789.318 17.9432 789.367 19.1097C789.318 20.2763 789.511 21.4403 789.935 22.5286C790.358 23.617 791.002 24.6061 791.827 25.434C792.62 26.2229 793.564 26.8436 794.604 27.2587C795.643 27.6739 796.756 27.8749 797.875 27.8497C799.174 27.8643 800.459 27.5863 801.636 27.0365C802.812 26.4867 803.849 25.6792 804.67 24.674L806.627 26.6283C805.603 27.8519 804.316 28.8304 802.863 29.4919C801.296 30.2142 799.587 30.5759 797.861 30.5504Z" fill="white" fill-opacity="0.5"/>
<path d="M811.888 30.0604H809.074V8.14258H811.888V30.0604Z" fill="white" fill-opacity="0.5"/>
<path d="M816.483 16.8703C817.957 15.4083 819.95 14.5879 822.028 14.5879C824.106 14.5879 826.099 15.4083 827.573 16.8703C828.294 17.6303 828.857 18.5252 829.231 19.5034C829.604 20.4817 829.78 21.5239 829.748 22.5703C829.78 23.6166 829.604 24.6589 829.231 25.6371C828.857 26.6154 828.294 27.5102 827.573 28.2703C826.099 29.7322 824.106 30.5526 822.028 30.5526C819.95 30.5526 817.957 29.7322 816.483 28.2703C815.762 27.5102 815.199 26.6154 814.826 25.6371C814.452 24.6589 814.277 23.6166 814.308 22.5703C814.277 21.5239 814.452 20.4817 814.826 19.5034C815.199 18.5252 815.762 17.6303 816.483 16.8703ZM818.576 26.506C819.019 26.9738 819.553 27.3464 820.146 27.601C820.738 27.8557 821.376 27.987 822.021 27.987C822.666 27.987 823.304 27.8557 823.897 27.601C824.489 27.3464 825.023 26.9738 825.467 26.506C825.958 25.9791 826.34 25.3598 826.59 24.6841C826.84 24.0084 826.952 23.2898 826.921 22.5703C826.952 21.8507 826.84 21.1322 826.59 20.4565C826.34 19.7808 825.958 19.1614 825.467 18.6346C825.023 18.1668 824.489 17.7942 823.897 17.5395C823.304 17.2849 822.666 17.1535 822.021 17.1535C821.376 17.1535 820.738 17.2849 820.146 17.5395C819.553 17.7942 819.019 18.1668 818.576 18.6346C818.084 19.1614 817.702 19.7808 817.453 20.4565C817.203 21.1322 817.091 21.8507 817.122 22.5703C817.094 23.2885 817.21 24.0051 817.462 24.6783C817.714 25.3516 818.097 25.9682 818.59 26.4924L818.576 26.506Z" fill="white" fill-opacity="0.5"/>
<path d="M845.334 30.061H842.616V27.9846H842.534C842.05 28.7732 841.366 29.4195 840.55 29.8574C839.703 30.3473 838.742 30.6048 837.764 30.6038C836.969 30.6581 836.173 30.5325 835.434 30.2364C834.695 29.9403 834.033 29.4814 833.496 28.8938C832.467 27.5935 831.949 25.9618 832.042 24.3067V15.0781H834.855V23.791C834.855 26.5867 836.092 27.9846 838.566 27.9846C839.115 28.0017 839.661 27.8874 840.157 27.6514C840.654 27.4153 841.087 27.0643 841.42 26.6274C842.149 25.7046 842.538 24.5592 842.521 23.3838V15.0781H845.334V30.061Z" fill="white" fill-opacity="0.5"/>
<path d="M854.888 30.549C853.934 30.5522 852.99 30.3488 852.122 29.9528C851.254 29.5569 850.482 28.9778 849.86 28.2554C848.451 26.7014 847.696 24.6646 847.753 22.569C847.696 20.4734 848.451 18.4366 849.86 16.8826C850.482 16.1602 851.254 15.5811 852.122 15.1852C852.99 14.7892 853.934 14.5858 854.888 14.589C855.958 14.5722 857.014 14.8242 857.96 15.3219C858.791 15.7396 859.495 16.3723 859.999 17.154H860.121L859.999 15.0776V8.14258H862.812V30.0604H860.094V27.984H859.971C859.468 28.7657 858.764 29.3984 857.933 29.8161C856.995 30.3094 855.948 30.5613 854.888 30.549ZM855.35 27.984C855.986 27.9933 856.617 27.8673 857.2 27.6146C857.784 27.3619 858.307 26.9882 858.735 26.5183C859.69 25.4317 860.179 24.0127 860.094 22.569C860.179 21.1253 859.69 19.7063 858.735 18.6197C858.304 18.1472 857.78 17.7697 857.194 17.5114C856.609 17.2531 855.977 17.1197 855.337 17.1197C854.697 17.1197 854.064 17.2531 853.479 17.5114C852.894 17.7697 852.37 18.1472 851.939 18.6197C851.464 19.1542 851.1 19.7769 850.867 20.4523C850.633 21.1277 850.536 21.8424 850.58 22.5554C850.536 23.2685 850.633 23.9832 850.867 24.6586C851.1 25.3339 851.464 25.9567 851.939 26.4911C852.367 26.9695 852.894 27.3503 853.482 27.6079C854.071 27.8655 854.708 27.9937 855.35 27.984Z" fill="white" fill-opacity="0.5"/>
<g clip-path="url(#clip1_1067_13481)">
<path d="M997.378 17.3549C997.378 15.2837 994.805 13.3208 990.86 12.1035C991.771 8.05022 991.366 4.82541 989.583 3.79296C989.172 3.55078 988.692 3.43606 988.167 3.43606V4.85728C988.458 4.85728 988.692 4.91464 988.888 5.02297C989.748 5.52007 990.121 7.4129 989.83 9.84743C989.76 10.4465 989.647 11.0774 989.507 11.7211C988.268 11.4152 986.915 11.1794 985.493 11.0265C984.64 9.84743 983.755 8.77675 982.863 7.8399C984.924 5.90884 986.859 4.85089 988.174 4.85089V3.42969C986.435 3.42969 984.159 4.67883 981.858 6.84568C979.557 4.69157 977.281 3.45518 975.543 3.45518V4.87639C976.851 4.87639 978.792 5.92797 980.853 7.84627C979.968 8.78313 979.083 9.84743 978.242 11.0265C976.813 11.1794 975.46 11.4152 974.221 11.7275C974.076 11.0902 973.968 10.472 973.893 9.8793C973.596 7.44477 973.962 5.55194 974.816 5.04847C975.005 4.93375 975.252 4.88277 975.543 4.88277V3.46155C975.012 3.46155 974.531 3.57627 974.114 3.81845C972.337 4.85089 971.939 8.06933 972.856 12.1099C968.924 13.3335 966.363 15.2901 966.363 17.3549C966.363 19.4263 968.936 21.3892 972.881 22.6064C971.971 26.6598 972.375 29.8845 974.158 30.917C974.569 31.1591 975.049 31.2738 975.581 31.2738C977.319 31.2738 979.595 30.0247 981.896 27.8579C984.197 30.0121 986.473 31.2485 988.211 31.2485C988.742 31.2485 989.223 31.1338 989.64 30.8915C991.417 29.859 991.815 26.6406 990.898 22.6001C994.818 21.3828 997.378 19.4199 997.378 17.3549ZM989.147 13.1041C988.913 13.9263 988.622 14.7738 988.294 15.6215C988.035 15.1117 987.763 14.6018 987.466 14.0919C987.175 13.5821 986.865 13.085 986.555 12.6006C987.453 12.7345 988.319 12.9002 989.147 13.1041ZM986.252 19.8915C985.759 20.7519 985.253 21.5677 984.728 22.3261C983.786 22.4089 982.832 22.4535 981.871 22.4535C980.916 22.4535 979.961 22.4089 979.026 22.3324C978.501 21.5739 977.989 20.7646 977.496 19.9106C977.015 19.0757 976.579 18.2281 976.181 17.3742C976.573 16.5201 977.015 15.6661 977.49 14.8312C977.983 13.9709 978.488 13.1551 979.013 12.3967C979.955 12.3138 980.91 12.2692 981.871 12.2692C982.825 12.2692 983.78 12.3138 984.715 12.3903C985.24 13.1487 985.752 13.9581 986.245 14.8121C986.726 15.647 987.162 16.4946 987.56 17.3487C987.162 18.2026 986.726 19.0566 986.252 19.8915ZM988.294 19.0631C988.625 19.8936 988.917 20.7401 989.166 21.5994C988.338 21.8034 987.466 21.9755 986.562 22.1093C986.871 21.6187 987.181 21.1152 987.472 20.5989C987.763 20.0891 988.035 19.5728 988.294 19.0631ZM981.883 25.8632C981.295 25.2512 980.707 24.5693 980.126 23.8237C980.695 23.8492 981.276 23.8683 981.864 23.8683C982.459 23.8683 983.047 23.8557 983.622 23.8237C983.079 24.5346 982.499 25.2155 981.883 25.8632ZM977.18 22.1093C976.282 21.9755 975.416 21.8098 974.588 21.6059C974.822 20.7837 975.113 19.9361 975.441 19.0884C975.701 19.5983 975.973 20.1082 976.27 20.618C976.567 21.1279 976.87 21.625 977.18 22.1093ZM981.852 8.84686C982.44 9.45867 983.028 10.1406 983.609 10.8863C983.04 10.8608 982.459 10.8417 981.871 10.8417C981.276 10.8417 980.688 10.8544 980.113 10.8863C980.656 10.1754 981.236 9.49458 981.852 8.84686ZM977.174 12.6006C976.864 13.0914 976.554 13.5948 976.263 14.111C975.973 14.6209 975.701 15.1308 975.441 15.6405C975.11 14.81 974.818 13.9635 974.569 13.1041C975.397 12.9065 976.27 12.7345 977.174 12.6006ZM971.452 20.5798C969.214 19.6174 967.767 18.3556 967.767 17.3549C967.767 16.3544 969.214 15.0862 971.452 14.1302C971.996 13.8944 972.59 13.6841 973.204 13.4865C973.564 14.7356 974.038 16.0357 974.626 17.3678C974.044 18.6934 973.576 19.9871 973.222 21.2299C972.597 21.0323 972.002 20.8156 971.452 20.5798ZM974.853 29.687C973.994 29.1899 973.621 27.2971 973.912 24.8625C973.981 24.2635 974.095 23.6325 974.234 22.9888C975.473 23.2947 976.826 23.5306 978.248 23.6835C979.102 24.8625 979.987 25.9332 980.878 26.87C978.817 28.8012 976.883 29.859 975.568 29.859C975.283 29.8527 975.043 29.7953 974.853 29.687ZM989.849 24.8307C990.146 27.2652 989.779 29.158 988.926 29.6615C988.736 29.7762 988.49 29.8272 988.199 29.8272C986.89 29.8272 984.949 28.7757 982.888 26.8573C983.774 25.9205 984.659 24.8562 985.499 23.6771C986.928 23.5242 988.281 23.2883 989.52 22.9761C989.666 23.6198 989.779 24.238 989.849 24.8307ZM992.283 20.5798C991.739 20.8156 991.145 21.026 990.532 21.2235C990.171 19.9744 989.697 18.6743 989.109 17.3423C989.691 16.0166 990.159 14.7229 990.513 13.4801C991.139 13.6777 991.733 13.8944 992.289 14.1302C994.527 15.0925 995.975 16.3544 995.975 17.3549C995.968 18.3556 994.521 19.6238 992.283 20.5798Z" fill="#61DAFB"/>
<path d="M981.866 20.2684C983.462 20.2684 984.755 18.9645 984.755 17.3558C984.755 15.7473 983.462 14.4434 981.866 14.4434C980.27 14.4434 978.977 15.7473 978.977 17.3558C978.977 18.9645 980.27 20.2684 981.866 20.2684ZM967.773 36.2895H966.819V37.9453H966.281V33.8522H967.625C968.083 33.8522 968.434 33.9572 968.679 34.1671C968.927 34.3769 969.05 34.6824 969.05 35.0834C969.05 35.3384 968.982 35.5604 968.844 35.7498C968.708 35.9391 968.519 36.0806 968.275 36.1742L969.229 37.9115V37.9453H968.654L967.773 36.2895ZM966.819 35.8482H967.642C967.908 35.8482 968.119 35.7787 968.275 35.6401C968.433 35.5014 968.512 35.3159 968.512 35.0834C968.512 34.8305 968.437 34.6365 968.286 34.5016C968.138 34.3666 967.922 34.2982 967.639 34.2964H966.819V35.8482ZM970.974 38.0016C970.565 38.0016 970.233 37.8667 969.976 37.5967C969.72 37.325 969.591 36.9623 969.591 36.5088V36.4132C969.591 36.1115 969.648 35.8426 969.761 35.6065C969.877 35.3683 970.037 35.1828 970.241 35.0498C970.447 34.9149 970.67 34.8473 970.91 34.8473C971.303 34.8473 971.608 34.9776 971.825 35.2381C972.042 35.4986 972.151 35.8715 972.151 36.3569V36.5734H970.107C970.115 36.8734 970.201 37.1161 970.367 37.3016C970.534 37.4852 970.746 37.5771 971.002 37.5771C971.185 37.5771 971.339 37.5396 971.465 37.4646C971.592 37.3897 971.702 37.2903 971.797 37.1667L972.112 37.414C971.859 37.8057 971.48 38.0016 970.974 38.0016ZM970.91 35.2747C970.702 35.2747 970.527 35.3515 970.386 35.5051C970.245 35.657 970.157 35.8707 970.124 36.1461H971.635V36.1068C971.621 35.8426 971.55 35.6382 971.423 35.4939C971.297 35.3478 971.126 35.2747 970.91 35.2747ZM974.614 37.9453C974.584 37.8853 974.56 37.7786 974.541 37.6248C974.301 37.8759 974.015 38.0016 973.682 38.0016C973.385 38.0016 973.14 37.9172 972.949 37.7485C972.759 37.5779 972.664 37.3625 972.664 37.102C972.664 36.7853 972.783 36.5397 973.021 36.3655C973.261 36.1892 973.598 36.1011 974.031 36.1011H974.533V35.8623C974.533 35.6804 974.479 35.5361 974.371 35.4293C974.263 35.3206 974.104 35.2663 973.894 35.2663C973.71 35.2663 973.556 35.313 973.431 35.4068C973.307 35.5004 973.244 35.6139 973.244 35.747H972.726C972.726 35.5952 972.779 35.449 972.885 35.3083C972.992 35.166 973.137 35.0535 973.32 34.971C973.504 34.8886 973.705 34.8473 973.925 34.8473C974.272 34.8473 974.545 34.9354 974.742 35.1117C974.939 35.286 975.041 35.5268 975.049 35.834V37.2341C975.049 37.5134 975.084 37.7354 975.155 37.9003V37.9453H974.614ZM973.757 37.549C973.919 37.549 974.073 37.5068 974.218 37.4225C974.363 37.3381 974.468 37.2285 974.533 37.0935V36.4695H974.128C973.496 36.4695 973.18 36.6559 973.18 37.0288C973.18 37.1919 973.234 37.3194 973.342 37.4112C973.45 37.503 973.588 37.549 973.757 37.549ZM977.067 37.5771C977.252 37.5771 977.412 37.5208 977.55 37.4083C977.687 37.2959 977.764 37.1554 977.779 36.9867H978.267C978.257 37.1609 978.198 37.3268 978.088 37.4843C977.978 37.6418 977.832 37.7673 977.647 37.861C977.465 37.9547 977.272 38.0016 977.067 38.0016C976.657 38.0016 976.329 37.8638 976.086 37.5883C975.844 37.3109 975.723 36.9324 975.723 36.4525V36.3655C975.723 36.0693 975.777 35.806 975.885 35.5755C975.993 35.3449 976.147 35.166 976.348 35.0386C976.551 34.911 976.79 34.8473 977.065 34.8473C977.403 34.8473 977.684 34.9495 977.907 35.1538C978.132 35.3581 978.252 35.6233 978.267 35.9493H977.779C977.764 35.7525 977.689 35.5914 977.555 35.4658C977.424 35.3384 977.26 35.2747 977.065 35.2747C976.803 35.2747 976.599 35.3702 976.454 35.5614C976.311 35.7507 976.239 36.0253 976.239 36.3851V36.4835C976.239 36.8339 976.311 37.1038 976.454 37.2931C976.597 37.4825 976.802 37.5771 977.067 37.5771ZM979.547 34.1671V34.9036H980.11V35.3056H979.547V37.1919C979.547 37.3137 979.572 37.4055 979.622 37.4673C979.672 37.5273 979.758 37.5574 979.878 37.5574C979.938 37.5574 980.02 37.5462 980.124 37.5236V37.9453C979.988 37.9828 979.856 38.0016 979.728 38.0016C979.497 38.0016 979.323 37.9312 979.206 37.7907C979.089 37.6502 979.031 37.4505 979.031 37.1919V35.3056H978.481V34.9036H979.031V34.1671H979.547ZM985.333 37.9453H984.795L982.751 34.7912V37.9453H982.212V33.8522H982.751L984.8 37.0204V33.8522H985.333V37.9453ZM988.066 37.9453C988.036 37.8853 988.012 37.7786 987.993 37.6248C987.753 37.8759 987.467 38.0016 987.134 38.0016C986.837 38.0016 986.592 37.9172 986.401 37.7485C986.211 37.5779 986.116 37.3625 986.116 37.102C986.116 36.7853 986.235 36.5397 986.473 36.3655C986.713 36.1892 987.05 36.1011 987.483 36.1011H987.985V35.8623C987.985 35.6804 987.931 35.5361 987.823 35.4293C987.715 35.3206 987.556 35.2663 987.346 35.2663C987.162 35.2663 987.008 35.313 986.883 35.4068C986.759 35.5004 986.696 35.6139 986.696 35.747H986.178C986.178 35.5952 986.231 35.449 986.337 35.3083C986.445 35.166 986.59 35.0535 986.772 34.971C986.956 34.8886 987.157 34.8473 987.377 34.8473C987.724 34.8473 987.997 34.9354 988.194 35.1117C988.391 35.286 988.493 35.5268 988.501 35.834V37.2341C988.501 37.5134 988.536 37.7354 988.607 37.9003V37.9453H988.066ZM987.21 37.549C987.371 37.549 987.525 37.5068 987.67 37.4225C987.815 37.3381 987.92 37.2285 987.985 37.0935V36.4695H987.58C986.948 36.4695 986.632 36.6559 986.632 37.0288C986.632 37.1919 986.686 37.3194 986.794 37.4112C986.902 37.503 987.04 37.549 987.21 37.549ZM990.009 34.1671V34.9036H990.573V35.3056H990.009V37.1919C990.009 37.3137 990.034 37.4055 990.085 37.4673C990.135 37.5273 990.22 37.5574 990.341 37.5574C990.401 37.5574 990.482 37.5462 990.587 37.5236V37.9453C990.451 37.9828 990.319 38.0016 990.191 38.0016C989.96 38.0016 989.786 37.9312 989.669 37.7907C989.552 37.6502 989.493 37.4505 989.493 37.1919V35.3056H988.944V34.9036H989.493V34.1671H990.009ZM991.738 37.9453H991.222V34.9036H991.738V37.9453ZM991.18 34.0967C991.18 34.0125 991.206 33.9412 991.256 33.8831C991.308 33.8249 991.384 33.796 991.484 33.796C991.585 33.796 991.661 33.8249 991.713 33.8831C991.765 33.9412 991.791 34.0125 991.791 34.0967C991.791 34.1811 991.765 34.2513 991.713 34.3076C991.661 34.3638 991.585 34.392 991.484 34.392C991.384 34.392 991.308 34.3638 991.256 34.3076C991.206 34.2513 991.18 34.1811 991.18 34.0967ZM993.562 37.2398L994.309 34.9036H994.836L993.754 37.9453H993.361L992.268 34.9036H992.795L993.562 37.2398ZM996.546 38.0016C996.137 38.0016 995.804 37.8667 995.547 37.5967C995.291 37.325 995.163 36.9623 995.163 36.5088V36.4132C995.163 36.1115 995.219 35.8426 995.333 35.6065C995.448 35.3683 995.608 35.1828 995.812 35.0498C996.019 34.9149 996.242 34.8473 996.482 34.8473C996.874 34.8473 997.179 34.9776 997.396 35.2381C997.614 35.4986 997.723 35.8715 997.723 36.3569V36.5734H995.678C995.686 36.8734 995.772 37.1161 995.938 37.3016C996.105 37.4852 996.317 37.5771 996.574 37.5771C996.756 37.5771 996.91 37.5396 997.037 37.4646C997.163 37.3897 997.274 37.2903 997.368 37.1667L997.684 37.414C997.431 37.8057 997.051 38.0016 996.546 38.0016ZM996.482 35.2747C996.273 35.2747 996.099 35.3515 995.957 35.5051C995.816 35.657 995.729 35.8707 995.695 36.1461H997.207V36.1068C997.192 35.8426 997.121 35.6382 996.995 35.4939C996.868 35.3478 996.697 35.2747 996.482 35.2747Z" fill="#61DAFB"/>
</g>
<g clip-path="url(#clip2_1067_13481)">
<path d="M1114.91 13.8645C1114.91 14.6371 1114.99 15.2634 1115.13 15.7228C1115.3 16.1821 1115.51 16.6832 1115.8 17.2261C1115.9 17.3931 1115.94 17.5601 1115.94 17.7063C1115.94 17.9151 1115.82 18.1239 1115.55 18.3327L1114.24 19.2096C1114.06 19.3349 1113.87 19.3975 1113.7 19.3975C1113.5 19.3975 1113.29 19.2931 1113.08 19.1052C1112.79 18.792 1112.54 18.4579 1112.34 18.1239C1112.13 17.7689 1111.92 17.3722 1111.69 16.892C1110.08 18.8129 1108.05 19.7733 1105.6 19.7733C1103.86 19.7733 1102.47 19.2722 1101.46 18.27C1100.44 17.2678 1099.92 15.9316 1099.92 14.2612C1099.92 12.4865 1100.54 11.0459 1101.81 9.96014C1103.07 8.87443 1104.75 8.33157 1106.89 8.33157C1107.59 8.33157 1108.31 8.39421 1109.08 8.4986C1109.85 8.603 1110.64 8.77003 1111.46 8.95794V7.43377C1111.46 5.84695 1111.13 4.74036 1110.49 4.09311C1109.83 3.44585 1108.71 3.13267 1107.11 3.13267C1106.39 3.13267 1105.64 3.21618 1104.87 3.4041C1104.11 3.59201 1103.36 3.82168 1102.64 4.11399C1102.31 4.26014 1102.06 4.34366 1101.91 4.38541C1101.77 4.42717 1101.66 4.44805 1101.58 4.44805C1101.29 4.44805 1101.14 4.23926 1101.14 3.8008V2.77772C1101.14 2.44366 1101.19 2.19311 1101.29 2.04695C1101.39 1.9008 1101.58 1.75464 1101.87 1.60849C1102.6 1.23267 1103.47 0.91948 1104.48 0.66893C1105.5 0.397502 1106.57 0.272227 1107.71 0.272227C1110.18 0.272227 1111.98 0.835963 1113.14 1.96344C1114.28 3.09091 1114.86 4.803 1114.86 7.0997V13.8645H1114.91ZM1106.49 17.0382C1107.18 17.0382 1107.88 16.9129 1108.63 16.6623C1109.37 16.4118 1110.04 15.9524 1110.59 15.3261C1110.93 14.9294 1111.17 14.4909 1111.3 13.9898C1111.42 13.4887 1111.51 12.8832 1111.51 12.1733V11.2964C1110.91 11.1502 1110.26 11.025 1109.6 10.9415C1108.94 10.8579 1108.29 10.8162 1107.65 10.8162C1106.26 10.8162 1105.25 11.0876 1104.56 11.6513C1103.88 12.2151 1103.55 13.0085 1103.55 14.0524C1103.55 15.0338 1103.8 15.7645 1104.32 16.2656C1104.81 16.7876 1105.54 17.0382 1106.49 17.0382ZM1123.13 19.2931C1122.76 19.2931 1122.51 19.2305 1122.34 19.0843C1122.18 18.959 1122.03 18.6667 1121.91 18.27L1117.04 2.13047C1116.92 1.71289 1116.85 1.44146 1116.85 1.2953C1116.85 0.961238 1117.02 0.773326 1117.35 0.773326H1119.38C1119.78 0.773326 1120.04 0.835963 1120.19 0.982117C1120.36 1.10739 1120.48 1.3997 1120.6 1.7964L1124.09 15.6184L1127.32 1.7964C1127.42 1.37882 1127.55 1.10739 1127.71 0.982117C1127.88 0.856842 1128.17 0.773326 1128.54 0.773326H1130.2C1130.59 0.773326 1130.86 0.835963 1131.03 0.982117C1131.19 1.10739 1131.34 1.3997 1131.42 1.7964L1134.7 15.7854L1138.28 1.7964C1138.41 1.37882 1138.55 1.10739 1138.7 0.982117C1138.86 0.856842 1139.13 0.773326 1139.5 0.773326H1141.43C1141.76 0.773326 1141.95 0.940359 1141.95 1.2953C1141.95 1.3997 1141.93 1.5041 1141.91 1.62937C1141.89 1.75464 1141.85 1.92168 1141.76 2.15135L1136.77 18.2909C1136.64 18.7085 1136.5 18.9799 1136.33 19.1052C1136.17 19.2305 1135.9 19.314 1135.55 19.314H1133.76C1133.37 19.314 1133.1 19.2514 1132.93 19.1052C1132.77 18.959 1132.62 18.6876 1132.54 18.27L1129.33 4.803L1126.14 18.2492C1126.03 18.6667 1125.91 18.9382 1125.74 19.0843C1125.58 19.2305 1125.29 19.2931 1124.91 19.2931H1123.13ZM1149.76 19.8568C1148.68 19.8568 1147.61 19.7316 1146.57 19.481C1145.53 19.2305 1144.73 18.959 1144.19 18.6459C1143.86 18.4579 1143.63 18.2492 1143.55 18.0612C1143.46 17.8733 1143.42 17.6645 1143.42 17.4766V16.4118C1143.42 15.9733 1143.59 15.7645 1143.9 15.7645C1144.02 15.7645 1144.15 15.7854 1144.27 15.8272C1144.39 15.8689 1144.58 15.9524 1144.79 16.036C1145.49 16.3492 1146.26 16.5997 1147.07 16.7667C1147.9 16.9338 1148.71 17.0173 1149.53 17.0173C1150.84 17.0173 1151.86 16.7876 1152.56 16.3283C1153.26 15.8689 1153.64 15.2008 1153.64 14.3448C1153.64 13.7601 1153.45 13.2799 1153.08 12.8832C1152.71 12.4865 1152 12.1316 1150.99 11.7975L1147.98 10.8579C1146.47 10.3777 1145.35 9.66783 1144.66 8.72827C1143.98 7.80959 1143.63 6.78651 1143.63 5.7008C1143.63 4.82388 1143.81 4.05135 1144.19 3.38322C1144.56 2.71508 1145.06 2.13047 1145.68 1.67113C1146.3 1.19091 1147.01 0.835963 1147.84 0.585414C1148.66 0.334864 1149.53 0.230469 1150.45 0.230469C1150.9 0.230469 1151.38 0.251348 1151.83 0.313985C1152.31 0.376623 1152.75 0.460139 1153.18 0.543656C1153.6 0.648051 1153.99 0.752447 1154.36 0.877722C1154.74 1.003 1155.03 1.12827 1155.23 1.25355C1155.52 1.42058 1155.73 1.58761 1155.86 1.77552C1155.98 1.94256 1156.04 2.17223 1156.04 2.46453V3.44585C1156.04 3.88432 1155.88 4.11399 1155.56 4.11399C1155.4 4.11399 1155.13 4.03047 1154.78 3.86344C1153.6 3.32058 1152.27 3.04915 1150.8 3.04915C1149.62 3.04915 1148.68 3.23706 1148.04 3.63377C1147.4 4.03047 1147.07 4.63596 1147.07 5.49201C1147.07 6.07662 1147.28 6.57772 1147.69 6.97443C1148.1 7.37113 1148.87 7.76783 1149.97 8.12278L1152.91 9.06234C1154.4 9.54256 1155.48 10.2107 1156.12 11.0667C1156.77 11.9228 1157.08 12.9041 1157.08 13.9898C1157.08 14.8876 1156.89 15.7019 1156.54 16.4118C1156.17 17.1217 1155.67 17.7481 1155.03 18.2492C1154.38 18.7711 1153.62 19.147 1152.73 19.4184C1151.79 19.7107 1150.82 19.8568 1149.76 19.8568Z" fill="white" fill-opacity="0.5"/>
<path fill-rule="evenodd" clip-rule="evenodd" d="M1153.68 30.0042C1146.86 35.0779 1136.95 37.7713 1128.44 37.7713C1116.5 37.7713 1105.74 33.324 1097.62 25.9328C1096.98 25.3482 1097.56 24.5548 1098.32 25.0141C1107.11 30.1504 1117.95 33.2614 1129.16 33.2614C1136.73 33.2614 1145.04 31.6746 1152.68 28.4174C1153.82 27.8955 1154.8 29.1691 1153.68 30.0042Z" fill="#FF9900"/>
<path fill-rule="evenodd" clip-rule="evenodd" d="M1156.52 26.7474C1155.65 25.6199 1150.76 26.2045 1148.54 26.4759C1147.88 26.5595 1147.77 25.9748 1148.37 25.5364C1152.27 22.7803 1158.67 23.5737 1159.42 24.4924C1160.16 25.432 1159.21 31.8836 1155.56 34.9737C1155 35.454 1154.47 35.2034 1154.71 34.577C1155.54 32.51 1157.39 27.854 1156.52 26.7474Z" fill="#FF9900"/>
</g>
<path d="M13.1975 80.5902H23.5042L12.8048 112.291C12.6949 112.617 12.4855 112.9 12.2062 113.101C11.927 113.301 11.5918 113.409 11.248 113.409H3.22686C2.96636 113.409 2.7096 113.347 2.47782 113.228C2.24604 113.109 2.0459 112.937 1.89396 112.725C1.74202 112.514 1.64264 112.269 1.60404 112.012C1.56545 111.754 1.58875 111.491 1.67202 111.244L11.6403 81.7081C11.7502 81.3822 11.9596 81.099 12.239 80.8984C12.5183 80.6978 12.8536 80.5903 13.1975 80.5902Z" fill="url(#paint0_linear_1067_13481)"/>
<path d="M28.1715 101.854H11.8276C11.6756 101.853 11.5272 101.899 11.4015 101.984C11.2758 102.07 11.1788 102.191 11.1231 102.332C11.0673 102.474 11.0554 102.629 11.089 102.777C11.1225 102.925 11.1999 103.06 11.311 103.163L21.8133 112.966C22.119 113.251 22.5217 113.41 22.9398 113.409H32.1944L28.1715 101.854Z" fill="#0078D4"/>
<path d="M13.1954 80.5899C12.8477 80.5885 12.5087 80.6984 12.2279 80.9034C11.9471 81.1084 11.7392 81.3979 11.6346 81.7295L1.6822 111.217C1.59333 111.464 1.56543 111.73 1.60086 111.991C1.63629 112.251 1.73401 112.5 1.88575 112.715C2.03749 112.93 2.23879 113.105 2.47262 113.226C2.70645 113.347 2.96593 113.41 3.22912 113.409H11.4573C11.7638 113.354 12.0502 113.219 12.2873 113.017C12.5245 112.816 12.7038 112.555 12.8071 112.261L14.7918 106.412L21.8812 113.024C22.1783 113.27 22.5509 113.406 22.9365 113.409H32.1566L28.1128 101.853L16.3245 101.856L23.5393 80.5899H13.1954Z" fill="url(#paint1_linear_1067_13481)"/>
<path d="M26.3618 81.7061C26.2521 81.3807 26.043 81.098 25.7641 80.8978C25.4851 80.6975 25.1504 80.5898 24.807 80.5898H13.3203C13.6637 80.5899 13.9984 80.6976 14.2773 80.8978C14.5562 81.0981 14.7653 81.3808 14.8751 81.7061L24.8438 111.243C24.9271 111.49 24.9505 111.753 24.9119 112.011C24.8734 112.269 24.774 112.513 24.6221 112.725C24.4701 112.937 24.27 113.109 24.0382 113.228C23.8063 113.347 23.5495 113.409 23.289 113.409H34.7761C35.0366 113.409 35.2934 113.347 35.5251 113.228C35.7569 113.109 35.957 112.937 36.1089 112.725C36.2608 112.513 36.3601 112.268 36.3986 112.011C36.4372 111.753 36.4138 111.49 36.3305 111.243L26.3618 81.7061Z" fill="url(#paint2_linear_1067_13481)"/>
<g clip-path="url(#clip3_1067_13481)">
<path d="M154.97 89.4L155.997 88.6584C155.675 88.213 155.103 88.0257 154.581 88.1948C154.058 88.3638 153.704 88.8506 153.704 89.4H154.97ZM162.57 113.467C153.476 113.467 146.104 106.094 146.104 97H143.57C143.57 107.493 152.077 116 162.57 116V113.467ZM179.037 97C179.037 106.094 171.665 113.467 162.57 113.467V116C173.064 116 181.57 107.493 181.57 97H179.037ZM162.57 80.5333C171.665 80.5333 179.037 87.9057 179.037 97H181.57C181.57 86.5066 173.064 78 162.57 78V80.5333ZM162.57 78C152.077 78 143.57 86.5066 143.57 97H146.104C146.104 87.9057 153.476 80.5333 162.57 80.5333V78ZM156.237 108.4V89.4H153.704V108.4H156.237ZM153.943 90.1416L170.41 112.942L172.464 111.458L155.997 88.6584L153.943 90.1416ZM168.904 88.1333V103.333H171.437V88.1333H168.904Z" fill="white" fill-opacity="0.5"/>
</g>
<g clip-path="url(#clip4_1067_13481)">
<path d="M306.018 79.0774C305.691 79.0938 305.371 79.1748 305.077 79.3156L292.232 85.4531C291.899 85.6119 291.607 85.8429 291.377 86.1291C291.147 86.4152 290.985 86.749 290.903 87.1058L287.734 100.892C287.66 101.21 287.652 101.539 287.71 101.86C287.767 102.181 287.888 102.487 288.067 102.76C288.11 102.827 288.157 102.892 288.207 102.954L297.098 114.008C297.328 114.295 297.62 114.525 297.952 114.684C298.285 114.843 298.649 114.925 299.018 114.925L313.276 114.922C313.645 114.922 314.009 114.84 314.341 114.682C314.674 114.523 314.966 114.293 315.196 114.007L324.084 102.951C324.314 102.665 324.477 102.331 324.559 101.974C324.641 101.617 324.641 101.246 324.559 100.889L321.385 87.1025C321.303 86.7457 321.141 86.4119 320.911 86.1258C320.681 85.8397 320.388 85.6086 320.056 85.4499L307.209 79.3155C306.838 79.1385 306.429 79.0566 306.018 79.0774Z" fill="#326CE5"/>
<path d="M306.144 83.7695C305.72 83.7696 305.376 84.152 305.376 84.6238C305.376 84.631 305.377 84.638 305.377 84.6451C305.377 84.7093 305.373 84.7865 305.376 84.8423C305.386 85.1144 305.445 85.3227 305.481 85.5734C305.545 86.1099 305.6 86.5547 305.566 86.9681C305.534 87.124 305.419 87.2665 305.316 87.3656L305.298 87.6909C304.831 87.7294 304.366 87.8008 303.908 87.9045C301.912 88.3578 300.193 89.3861 298.885 90.7745C298.791 90.71 298.699 90.6443 298.607 90.5773C298.47 90.5959 298.331 90.6383 298.15 90.533C297.806 90.3014 297.493 89.9817 297.114 89.5966C296.94 89.4124 296.814 89.237 296.608 89.0594C296.561 89.0191 296.489 88.9645 296.437 88.923C296.276 88.7944 296.085 88.7272 295.901 88.721C295.665 88.7129 295.438 88.8053 295.289 88.992C295.024 89.324 295.109 89.8315 295.478 90.1256C295.481 90.1286 295.485 90.1309 295.489 90.1338C295.54 90.1749 295.602 90.2275 295.648 90.2619C295.867 90.4237 296.068 90.5065 296.286 90.6349C296.746 90.9188 297.127 91.1542 297.429 91.4382C297.547 91.564 297.568 91.7858 297.584 91.8818L297.83 92.1019C296.511 94.0871 295.9 96.5393 296.261 99.0379L295.939 99.1315C295.854 99.2411 295.734 99.4135 295.609 99.465C295.213 99.5896 294.768 99.6353 294.231 99.6917C293.978 99.7127 293.761 99.7001 293.493 99.7508C293.434 99.762 293.352 99.7833 293.288 99.7984L293.281 99.8001C293.278 99.8009 293.273 99.8026 293.27 99.8034C292.816 99.9129 292.525 100.329 292.619 100.74C292.713 101.15 293.155 101.4 293.611 101.302C293.615 101.301 293.619 101.301 293.623 101.3C293.628 101.299 293.633 101.296 293.638 101.295C293.701 101.281 293.781 101.266 293.836 101.251C294.099 101.18 294.29 101.077 294.526 100.986C295.035 100.804 295.456 100.651 295.867 100.592C296.038 100.579 296.219 100.698 296.309 100.748L296.644 100.69C297.415 103.082 299.031 105.014 301.078 106.227L300.938 106.562C300.989 106.692 301.044 106.868 301.007 106.997C300.857 107.384 300.602 107.792 300.311 108.247C300.17 108.458 300.026 108.621 299.898 108.862C299.868 108.919 299.829 109.008 299.8 109.069C299.602 109.492 299.747 109.979 300.127 110.161C300.509 110.345 300.983 110.151 301.188 109.728C301.188 109.727 301.189 109.727 301.19 109.726C301.19 109.725 301.189 109.725 301.19 109.724C301.219 109.664 301.26 109.585 301.285 109.529C301.394 109.279 301.43 109.065 301.507 108.824C301.71 108.313 301.822 107.777 302.102 107.443C302.179 107.351 302.304 107.316 302.433 107.281L302.607 106.966C304.392 107.651 306.389 107.835 308.384 107.382C308.832 107.28 309.273 107.147 309.703 106.984C309.752 107.071 309.843 107.238 309.867 107.28C309.999 107.323 310.142 107.345 310.26 107.518C310.469 107.876 310.612 108.299 310.787 108.811C310.864 109.052 310.901 109.266 311.01 109.516C311.035 109.573 311.076 109.653 311.106 109.713C311.31 110.138 311.786 110.332 312.169 110.148C312.548 109.965 312.693 109.478 312.495 109.056C312.466 108.995 312.426 108.906 312.395 108.849C312.268 108.608 312.124 108.446 311.983 108.236C311.692 107.781 311.45 107.402 311.301 107.015C311.239 106.816 311.312 106.692 311.36 106.562C311.331 106.529 311.269 106.34 311.232 106.251C313.359 104.996 314.928 102.991 315.664 100.676C315.764 100.691 315.937 100.722 315.993 100.733C316.109 100.657 316.215 100.557 316.423 100.574C316.834 100.633 317.255 100.786 317.764 100.968C318 101.059 318.191 101.164 318.454 101.234C318.51 101.249 318.589 101.263 318.653 101.277C318.658 101.278 318.662 101.281 318.668 101.282C318.671 101.283 318.676 101.283 318.679 101.284C319.135 101.382 319.578 101.132 319.671 100.722C319.765 100.311 319.474 99.8947 319.021 99.7853C318.955 99.7703 318.861 99.7449 318.797 99.7328C318.53 99.6821 318.312 99.6946 318.06 99.6736C317.522 99.6173 317.077 99.5715 316.681 99.4469C316.52 99.3843 316.405 99.1924 316.349 99.1134L316.039 99.0231C316.2 97.8584 316.157 96.6463 315.878 95.4335C315.597 94.2095 315.1 93.0899 314.437 92.1036C314.517 92.0311 314.667 91.898 314.71 91.8587C314.722 91.7208 314.712 91.5762 314.855 91.4234C315.157 91.1395 315.538 90.9041 315.998 90.6201C316.216 90.4917 316.418 90.4089 316.637 90.2472C316.687 90.2106 316.754 90.1526 316.806 90.1108C317.175 89.8166 317.26 89.3092 316.995 88.9773C316.73 88.6453 316.217 88.614 315.848 88.9082C315.796 88.9498 315.725 89.0041 315.678 89.0446C315.471 89.2222 315.344 89.3976 315.17 89.5818C314.791 89.967 314.477 90.2883 314.133 90.5199C313.984 90.6066 313.766 90.5767 313.667 90.5708L313.374 90.7794C311.707 89.0309 309.437 87.913 306.992 87.6959C306.985 87.5934 306.976 87.4083 306.974 87.3525C306.874 87.2568 306.753 87.175 306.723 86.9681C306.689 86.5547 306.745 86.1099 306.81 85.5734C306.845 85.3227 306.905 85.1144 306.915 84.8423C306.917 84.7805 306.913 84.6907 306.913 84.6238C306.913 84.152 306.569 83.7695 306.144 83.7695ZM305.182 89.733L304.953 93.766L304.937 93.7743C304.922 94.1351 304.625 94.4232 304.26 94.4232C304.111 94.4232 303.973 94.3752 303.861 94.2934L303.854 94.2967L300.547 91.9524C301.564 90.953 302.864 90.2144 304.362 89.8743C304.633 89.8132 304.906 89.766 305.182 89.733ZM307.109 89.733C308.858 89.9481 310.476 90.7402 311.715 91.954L308.43 94.2835L308.418 94.2786C308.126 94.4916 307.716 94.4388 307.488 94.1538C307.398 94.042 307.347 93.9044 307.34 93.7611L307.337 93.7595L307.109 89.733ZM299.348 93.4589L302.368 96.1596L302.364 96.176C302.637 96.413 302.677 96.8241 302.45 97.1092C302.36 97.2217 302.237 97.3029 302.098 97.3408L302.095 97.3539L298.224 98.471C298.027 96.6697 298.452 94.9187 299.348 93.4589ZM312.919 93.4604C313.368 94.1876 313.708 94.9998 313.91 95.8803C314.11 96.7503 314.16 97.6187 314.078 98.4579L310.187 97.3375L310.184 97.3211C309.836 97.2259 309.622 96.8715 309.703 96.5161C309.734 96.3763 309.81 96.2502 309.918 96.1563L309.916 96.1481L312.919 93.4605V93.4604ZM305.525 96.3682H306.762L307.531 97.3293L307.255 98.5286L306.144 99.0625L305.031 98.5269L304.755 97.3276L305.525 96.3682ZM309.491 99.6572C309.543 99.6545 309.596 99.6593 309.647 99.6687L309.653 99.6604L313.657 100.337C313.071 101.983 311.95 103.409 310.452 104.364L308.898 100.61L308.903 100.603C308.76 100.272 308.903 99.8827 309.231 99.7245C309.315 99.684 309.403 99.6616 309.491 99.6572ZM302.767 99.6736C303.072 99.6779 303.346 99.89 303.417 100.201C303.451 100.347 303.434 100.491 303.379 100.618L303.391 100.633L301.853 104.349C300.416 103.426 299.271 102.045 298.658 100.35L302.627 99.6769L302.634 99.6851C302.678 99.6769 302.723 99.673 302.767 99.6736ZM306.12 101.302C306.229 101.298 306.338 101.321 306.437 101.369C306.571 101.434 306.675 101.536 306.741 101.658H306.756L308.712 105.193C308.455 105.279 308.194 105.352 307.93 105.412C306.434 105.752 304.942 105.649 303.592 105.189L305.543 101.66H305.546C305.602 101.555 305.685 101.467 305.785 101.404C305.886 101.341 306.001 101.306 306.12 101.302L306.12 101.302Z" fill="white" stroke="white" stroke-width="0.276684"/>
</g>
<g clip-path="url(#clip5_1067_13481)">
<path d="M452.215 100.807C454.332 100.807 456.048 99.1026 456.048 97.0001C456.048 94.8977 454.332 93.1934 452.215 93.1934C450.099 93.1934 448.383 94.8977 448.383 97.0001C448.383 99.1026 450.099 100.807 452.215 100.807Z" fill="#61DAFB"/>
<path d="M452.214 104.8C463.572 104.8 472.779 101.308 472.779 97.0004C472.779 92.693 463.572 89.2012 452.214 89.2012C440.856 89.2012 431.648 92.693 431.648 97.0004C431.648 101.308 440.856 104.8 452.214 104.8Z" stroke="#61DAFB"/>
<path d="M445.413 100.899C451.092 110.669 458.74 116.843 462.496 114.69C466.251 112.536 464.692 102.87 459.013 93.1001C453.334 83.3302 445.686 77.1561 441.93 79.3098C438.175 81.4635 439.734 91.1295 445.413 100.899Z" stroke="#61DAFB"/>
<path d="M445.414 93.1017C439.735 102.872 438.176 112.538 441.931 114.691C445.687 116.845 453.335 110.671 459.014 100.901C464.693 91.131 466.252 81.465 462.497 79.3113C458.741 77.1576 451.093 83.3318 445.414 93.1017Z" stroke="#61DAFB"/>
</g>
<path d="M598.284 115.929C597.761 115.929 597.273 115.79 596.82 115.546L592.186 112.793C591.489 112.41 591.837 112.271 592.046 112.201C592.987 111.887 593.161 111.818 594.137 111.26C594.241 111.19 594.381 111.225 594.485 111.295L598.04 113.421C598.179 113.49 598.353 113.49 598.458 113.421L612.361 105.371C612.501 105.302 612.57 105.162 612.57 104.988V88.9241C612.57 88.7499 612.501 88.6105 612.361 88.5408L598.458 80.5263C598.318 80.4566 598.144 80.4566 598.04 80.5263L584.136 88.5408C583.997 88.6105 583.927 88.7847 583.927 88.9241V104.988C583.927 105.127 583.997 105.302 584.136 105.371L587.934 107.567C589.99 108.612 591.28 107.392 591.28 106.173V90.3179C591.28 90.1089 591.454 89.8998 591.698 89.8998H593.475C593.684 89.8998 593.893 90.074 593.893 90.3179V106.173C593.893 108.926 592.395 110.528 589.781 110.528C588.98 110.528 588.353 110.528 586.575 109.657L582.917 107.567C582.011 107.044 581.453 106.068 581.453 105.023V88.959C581.453 87.9136 582.011 86.9379 582.917 86.4152L596.82 78.3659C597.691 77.878 598.876 77.878 599.747 78.3659L613.651 86.4152C614.556 86.9379 615.114 87.9136 615.114 88.959V105.023C615.114 106.068 614.556 107.044 613.651 107.567L599.747 115.616C599.294 115.825 598.771 115.929 598.284 115.929ZM602.57 104.883C596.472 104.883 595.217 102.096 595.217 99.7263C595.217 99.5172 595.391 99.3081 595.635 99.3081H597.447C597.656 99.3081 597.831 99.4475 597.831 99.6566C598.109 101.503 598.911 102.409 602.604 102.409C605.531 102.409 606.786 101.747 606.786 100.179C606.786 99.2733 606.437 98.6112 601.873 98.1582C598.074 97.7749 595.705 96.9386 595.705 93.907C595.705 91.0845 598.074 89.412 602.047 89.412C606.507 89.412 608.702 90.9452 608.981 94.2903C608.981 94.3949 608.946 94.4994 608.877 94.604C608.807 94.6736 608.702 94.7433 608.598 94.7433H606.786C606.612 94.7433 606.437 94.604 606.403 94.4297C605.984 92.5132 604.904 91.886 602.047 91.886C598.841 91.886 598.458 93.0011 598.458 93.8373C598.458 94.8479 598.911 95.1615 603.232 95.719C607.518 96.2765 609.539 97.078 609.539 100.075C609.504 103.141 606.995 104.883 602.57 104.883Z" fill="#539E43"/>
<g clip-path="url(#clip6_1067_13481)">
<path d="M772.249 94.1802C772.249 90.1669 771.104 88.1066 768.812 87.9939C767.9 87.9509 767.011 88.0958 766.145 88.4318C765.453 88.6787 764.988 88.9235 764.743 89.1707V98.7499C766.209 99.6687 767.511 100.096 768.646 100.029C771.047 99.8696 772.249 97.9223 772.249 94.1802ZM775.076 94.3467C775.076 96.3855 774.597 98.078 773.634 99.4237C772.561 100.947 771.074 101.731 769.173 101.774C767.739 101.82 766.263 101.371 764.743 100.431V109.137L762.285 108.262V88.9367C762.689 88.4425 763.208 88.0181 763.837 87.6579C765.3 86.8063 767.077 86.3687 769.17 86.3472L769.205 86.3819C771.117 86.3579 772.59 87.1423 773.626 88.7325C774.591 90.1912 775.076 92.0609 775.076 94.3467ZM790.098 100.061C790.098 102.795 789.824 104.689 789.275 105.742C788.724 106.795 787.675 107.636 786.126 108.262C784.87 108.756 783.512 109.025 782.054 109.07L781.648 107.523C783.13 107.322 784.173 107.12 784.778 106.919C785.97 106.516 786.787 105.898 787.236 105.071C787.597 104.397 787.774 103.11 787.774 101.205V100.566C786.093 101.329 784.332 101.708 782.49 101.708C781.28 101.708 780.212 101.329 779.292 100.566C778.26 99.736 777.743 98.6832 777.743 97.4072V87.188L780.201 86.3472V96.6327C780.201 97.7313 780.556 98.5776 781.266 99.1713C781.976 99.7649 782.896 100.05 784.023 100.028C785.149 100.004 786.357 99.5687 787.639 98.7171V86.7176H790.097L790.098 100.061ZM799.693 101.64C799.424 101.663 799.154 101.674 798.883 101.675C797.493 101.675 796.409 101.345 795.635 100.681C794.863 100.018 794.476 99.1018 794.476 97.933V88.2623H792.792V86.7178H794.476V82.6159L796.931 81.7428V86.7178H799.693V88.2623H796.931V97.8658C796.931 98.7874 797.178 99.44 797.673 99.8217C798.098 100.136 798.773 100.316 799.693 100.362V101.64H799.693ZM814.576 101.439H812.117V91.9614C812.117 90.997 811.892 90.1669 811.443 89.4741C810.924 88.6895 810.203 88.2973 809.278 88.2973C808.151 88.2973 806.742 88.8909 805.05 90.0782V101.439H802.592V78.7853L805.05 78.0117V88.3295C806.621 87.1877 808.336 86.6156 810.2 86.6156C811.502 86.6156 812.556 87.0535 813.363 87.9266C814.172 88.7994 814.576 89.8875 814.576 91.1878L814.576 101.439ZM827.64 93.7935C827.64 92.2516 827.347 90.9783 826.763 89.971C826.069 88.7435 824.991 88.0958 823.533 88.0289C820.839 88.1846 819.494 90.1132 819.494 93.8098C819.494 95.5047 819.774 96.9205 820.338 98.0568C821.059 99.5047 822.14 100.219 823.582 100.195C826.287 100.173 827.64 98.0405 827.64 93.7935ZM830.332 93.8095C830.332 96.0044 829.77 97.831 828.648 99.2895C827.414 100.923 825.709 101.742 823.533 101.742C821.377 101.742 819.696 100.923 818.483 99.2895C817.383 97.831 816.834 96.0044 816.834 93.8095C816.834 91.7467 817.428 90.0112 818.617 88.5982C819.873 87.0993 821.524 86.3472 823.566 86.3472C825.606 86.3472 827.269 87.0993 828.549 88.5982C829.738 90.0112 830.332 91.7467 830.332 93.8095ZM844.423 101.439H841.965V91.4242C841.965 90.3257 841.635 89.4686 840.973 88.8507C840.312 88.2356 839.429 87.9374 838.33 87.9613C837.163 87.9828 836.052 88.3643 834.998 89.1031V101.439H832.54V88.7997C833.954 87.7712 835.256 87.0993 836.445 86.7851C837.566 86.4924 838.556 86.3472 839.408 86.3472C839.991 86.3472 840.54 86.4034 841.057 86.5164C842.022 86.7393 842.807 87.153 843.412 87.7602C844.087 88.4318 844.423 89.2374 844.423 90.1805V101.439Z" fill="white" fill-opacity="0.5"/>
<path d="M738.008 78.8753C736.743 78.8811 735.535 78.9888 734.473 79.1768C731.342 79.7293 730.774 80.8855 730.774 83.0181V85.8344H738.172V86.7731H727.998C725.848 86.7731 723.965 88.064 723.376 90.5195C722.697 93.3342 722.667 95.0906 723.376 98.0296C723.902 100.217 725.158 101.776 727.308 101.776H729.851V98.4C729.851 95.9609 731.964 93.8096 734.473 93.8096H741.862C743.919 93.8096 745.561 92.118 745.561 90.0546V83.0178C745.561 81.0153 743.869 79.5108 741.862 79.1765C740.591 78.9654 739.273 78.8692 738.008 78.8753ZM734.007 81.1401C734.771 81.1401 735.395 81.7737 735.395 82.5526C735.395 83.3286 734.771 83.9565 734.007 83.9565C733.24 83.9565 732.619 83.3289 732.619 82.5526C732.619 81.7737 733.24 81.1401 734.007 81.1401Z" fill="url(#paint3_linear_1067_13481)"/>
<path d="M746.483 86.7734V90.0547C746.483 92.5987 744.323 94.7399 741.861 94.7399H734.472C732.448 94.7399 730.773 96.4701 730.773 98.4949V105.531C730.773 107.534 732.517 108.712 734.472 109.286C736.814 109.974 739.059 110.098 741.861 109.286C743.724 108.748 745.56 107.663 745.56 105.531V102.715H738.171V101.776H749.259C751.409 101.776 752.21 100.278 752.958 98.0299C753.73 95.7155 753.697 93.4892 752.958 90.5199C752.426 88.3821 751.411 86.7734 749.259 86.7734H746.483ZM742.327 104.592C743.093 104.592 743.715 105.22 743.715 105.996C743.715 106.775 743.093 107.409 742.327 107.409C741.562 107.409 740.939 106.775 740.939 105.996C740.939 105.22 741.563 104.592 742.327 104.592Z" fill="url(#paint4_linear_1067_13481)"/>
<path d="M849.209 84.5275H849.64V81.8278H850.66V81.5059H848.188V81.8278H849.208L849.209 84.5275ZM851.043 84.5275H851.411V82.0617L852.21 84.5272H852.619L853.452 82.07V84.5275H853.854V81.5061H853.323L852.412 84.0948L851.637 81.5061H851.043V84.5275Z" fill="white" fill-opacity="0.5"/>
<path opacity="0.444" d="M748.171 114.069C748.171 115.129 743.733 115.989 738.257 115.989C732.782 115.989 728.344 115.129 728.344 114.069C728.344 113.008 732.782 112.148 738.257 112.148C743.733 112.148 748.171 113.008 748.171 114.069Z" fill="url(#paint5_radial_1067_13481)"/>
</g>
<path fill-rule="evenodd" clip-rule="evenodd" d="M1004.17 102.702V104.707H1007.79C1008.54 104.707 1009.81 104.164 1009.85 102.647V101.872C1009.85 100.576 1008.79 99.8119 1007.79 99.8119H1005.99V98.8816H1009.57V96.8659H1006.13C1005.25 96.8659 1004.06 97.5969 1004.06 98.9591V99.6568C1004.06 101.019 1005.24 101.717 1006.13 101.717C1008.63 101.728 1005.54 101.717 1007.84 101.717V102.691M984.769 102.215C984.769 102.215 986.707 102.049 986.707 99.5461C986.707 97.0431 984.36 96.8105 984.36 96.8105H980.129V104.707H982.255V102.802L984.094 104.707H987.239L984.769 102.215ZM983.95 100.598H982.255V98.793H983.961C983.961 98.793 984.437 98.9702 984.437 99.6901C984.437 100.41 983.95 100.598 983.95 100.598ZM991.957 96.8659H989.797C988.258 96.8659 987.737 98.2614 987.737 98.9259V104.707H989.897V103.323H991.924V104.707H994.017V98.9259C994.017 97.2425 992.489 96.8659 991.957 96.8659ZM991.924 101.086H989.886V99.1695C989.886 99.1695 989.886 98.7376 990.562 98.7376H991.304C991.902 98.7376 991.913 99.1695 991.913 99.1695V101.086H991.924ZM995.003 96.8659H997.251V104.707H995.003V96.8659ZM998.17 96.8659V104.707H1003.43V102.68H1000.41V96.8659H998.17Z" fill="#CC0000"/>
<path fill-rule="evenodd" clip-rule="evenodd" d="M966.781 104.708H975.531C975.531 104.708 973.858 97.0773 979.396 93.9873C980.603 93.4004 984.446 91.2075 990.737 95.859C990.936 95.6929 991.124 95.56 991.124 95.56C991.124 95.56 985.365 89.812 978.953 90.4544C975.73 90.7423 971.765 93.6772 969.439 97.5535C967.114 101.43 966.781 104.708 966.781 104.708Z" fill="#CC0000"/>
<path fill-rule="evenodd" clip-rule="evenodd" d="M966.781 104.708H975.531C975.531 104.708 973.858 97.0773 979.396 93.9873C980.603 93.4004 984.446 91.2075 990.737 95.859C990.936 95.6929 991.124 95.56 991.124 95.56C991.124 95.56 985.365 89.812 978.953 90.4544C975.73 90.7423 971.765 93.6772 969.439 97.5535C967.114 101.43 966.781 104.708 966.781 104.708Z" fill="#CC0000"/>
<path fill-rule="evenodd" clip-rule="evenodd" d="M966.781 104.708H975.531C975.531 104.708 973.858 97.0777 979.396 93.9877C980.603 93.4007 984.446 91.2079 990.737 95.8594C990.936 95.6933 991.124 95.5604 991.124 95.5604C991.124 95.5604 985.365 89.8124 978.953 90.4548C975.719 90.7427 971.754 93.6776 969.428 97.5539C967.102 101.43 966.781 104.708 966.781 104.708ZM985.011 91.075L985.055 90.3329C984.955 90.2776 984.679 90.1447 983.981 89.9453L983.937 90.6763C984.302 90.7981 984.656 90.931 985.011 91.075Z" fill="#CC0000"/>
<path fill-rule="evenodd" clip-rule="evenodd" d="M983.96 93.422L983.916 94.1197C984.282 94.1308 984.647 94.1751 985.013 94.2526L985.057 93.566C984.68 93.4885 984.315 93.4442 983.96 93.422ZM979.863 89.9666H979.973L979.752 89.291C979.409 89.291 979.054 89.3132 978.689 89.3575L978.899 90.0109C979.22 89.9777 979.542 89.9666 979.863 89.9666ZM980.394 94.0422L980.649 94.8064C980.97 94.6513 981.291 94.5184 981.613 94.4188L981.369 93.6878C980.992 93.7986 980.671 93.9204 980.394 94.0422ZM975.366 91.1295L974.868 90.3653C974.591 90.5093 974.303 90.6643 974.004 90.8415L974.513 91.6168C974.801 91.4396 975.078 91.2735 975.366 91.1295ZM977.637 96.1133L978.168 96.9107C978.357 96.6338 978.578 96.3791 978.822 96.1243L978.323 95.3712C978.069 95.6038 977.836 95.8585 977.637 96.1133ZM976.031 99.6794L976.928 100.388C976.972 99.9563 977.05 99.5244 977.16 99.0924L976.363 98.4612C976.219 98.8709 976.119 99.2807 976.031 99.6794ZM971.18 94.4188L970.394 93.7321C970.106 94.009 969.829 94.2859 969.574 94.5627L970.427 95.2937C970.659 94.9947 970.914 94.6956 971.18 94.4188ZM967.835 99.3693L966.562 98.9042C966.351 99.3804 966.119 99.9341 966.008 100.233L967.281 100.698C967.425 100.322 967.658 99.7791 967.835 99.3693ZM975.865 102.492C975.887 103.079 975.942 103.556 975.998 103.888L977.327 104.364C977.227 103.932 977.127 103.445 977.061 102.924L975.865 102.492Z" fill="#CC0000"/>
<mask id="mask0_1067_13481" style="mask-type:luminance" maskUnits="userSpaceOnUse" x="1125" y="78" width="32" height="38">
<path d="M1156.25 95.5347L1146.02 105.767L1156.25 116H1144.56L1134.33 105.767L1144.56 95.5347H1156.25ZM1144.56 78L1125.56 96.998L1131.41 102.844L1156.25 78H1144.56Z" fill="white"/>
</mask>
<g mask="url(#mask0_1067_13481)">
<path d="M1134.33 105.768L1140.17 111.614L1156.25 95.5352H1144.56L1134.33 105.768Z" fill="#39CEFD"/>
</g>
<mask id="mask1_1067_13481" style="mask-type:luminance" maskUnits="userSpaceOnUse" x="1125" y="78" width="32" height="38">
<path d="M1156.25 95.5347L1146.02 105.767L1156.25 116H1144.56L1134.33 105.767L1144.56 95.5347H1156.25ZM1144.56 78L1125.56 96.998L1131.41 102.844L1156.25 78H1144.56Z" fill="white"/>
</mask>
<g mask="url(#mask1_1067_13481)">
<path d="M1144.56 78H1156.25L1131.41 102.844L1125.56 96.998L1144.56 78Z" fill="#39CEFD"/>
</g>
<mask id="mask2_1067_13481" style="mask-type:luminance" maskUnits="userSpaceOnUse" x="1125" y="78" width="32" height="38">
<path d="M1156.25 95.5347L1146.02 105.767L1156.25 116H1144.56L1134.33 105.767L1144.56 95.5347H1156.25ZM1144.56 78L1125.56 96.998L1131.41 102.844L1156.25 78H1144.56Z" fill="white"/>
</mask>
<g mask="url(#mask2_1067_13481)">
<path d="M1140.18 111.614L1144.56 115.996H1156.25L1146.02 105.768L1140.18 111.614Z" fill="#03569B"/>
</g>
<mask id="mask3_1067_13481" style="mask-type:luminance" maskUnits="userSpaceOnUse" x="1125" y="78" width="32" height="38">
<path d="M1156.25 95.5347L1146.02 105.767L1156.25 116H1144.56L1134.33 105.767L1144.56 95.5347H1156.25ZM1144.56 78L1125.56 96.998L1131.41 102.844L1156.25 78H1144.56Z" fill="white"/>
</mask>
<g mask="url(#mask3_1067_13481)">
<path d="M1148.85 108.61L1146.02 105.768L1140.18 111.614L1148.85 108.61Z" fill="url(#paint6_linear_1067_13481)"/>
</g>
<mask id="mask4_1067_13481" style="mask-type:luminance" maskUnits="userSpaceOnUse" x="1125" y="78" width="32" height="38">
<path d="M1156.25 95.5347L1146.02 105.767L1156.25 116H1144.56L1134.33 105.767L1144.56 95.5347H1156.25ZM1144.56 78L1125.56 96.998L1131.41 102.844L1156.25 78H1144.56Z" fill="white"/>
</mask>
<g mask="url(#mask4_1067_13481)">
<path d="M1134.33 105.764L1140.18 99.918L1146.02 105.764L1140.18 111.611L1134.33 105.764Z" fill="#16B9FD"/>
</g>
<path d="M1156.25 95.5347L1146.02 105.767L1156.25 116H1144.56L1134.33 105.767L1144.56 95.5347H1156.25ZM1144.56 78L1125.56 96.998L1131.41 102.844L1156.25 78H1144.56Z" fill="url(#paint7_radial_1067_13481)"/>
<defs>
<linearGradient id="paint0_linear_1067_13481" x1="16.954" y1="83.0222" x2="6.25023" y2="114.644" gradientUnits="userSpaceOnUse">
<stop stop-color="#114A8B"/>
<stop offset="1" stop-color="#0669BC"/>
</linearGradient>
<linearGradient id="paint1_linear_1067_13481" x1="20.2955" y1="97.7583" x2="17.8195" y2="98.5955" gradientUnits="userSpaceOnUse">
<stop stop-opacity="0.3"/>
<stop offset="0.071" stop-opacity="0.2"/>
<stop offset="0.321" stop-opacity="0.1"/>
<stop offset="0.623" stop-opacity="0.05"/>
<stop offset="1" stop-opacity="0"/>
</linearGradient>
<linearGradient id="paint2_linear_1067_13481" x1="18.936" y1="82.0996" x2="30.6855" y2="113.402" gradientUnits="userSpaceOnUse">
<stop stop-color="#3CCBF4"/>
<stop offset="1" stop-color="#2892DF"/>
</linearGradient>
<linearGradient id="paint3_linear_1067_13481" x1="722.126" y1="79.7547" x2="739.169" y2="94.2918" gradientUnits="userSpaceOnUse">
<stop stop-color="#5A9FD4"/>
<stop offset="1" stop-color="#306998"/>
</linearGradient>
<linearGradient id="paint4_linear_1067_13481" x1="745.585" y1="103.324" x2="739.474" y2="94.752" gradientUnits="userSpaceOnUse">
<stop stop-color="#FFD43B"/>
<stop offset="1" stop-color="#FFE873"/>
</linearGradient>
<radialGradient id="paint5_radial_1067_13481" cx="0" cy="0" r="1" gradientUnits="userSpaceOnUse" gradientTransform="translate(738.254 114.025) rotate(-90) scale(1.91981 8.44968)">
<stop stop-color="#B8B8B8" stop-opacity="0.498"/>
<stop offset="1" stop-color="#7F7F7F" stop-opacity="0"/>
</radialGradient>
<linearGradient id="paint6_linear_1067_13481" x1="1141.88" y1="112.742" x2="1146.24" y2="108.388" gradientUnits="userSpaceOnUse">
<stop stop-color="#1A237E" stop-opacity="0.4"/>
<stop offset="1" stop-color="#1A237E" stop-opacity="0"/>
</linearGradient>
<radialGradient id="paint7_radial_1067_13481" cx="0" cy="0" r="1" gradientUnits="userSpaceOnUse" gradientTransform="translate(1126.42 80.5899) scale(46.488 46.488)">
<stop stop-color="white" stop-opacity="0.1"/>
<stop offset="1" stop-color="white" stop-opacity="0"/>
</radialGradient>
<clipPath id="clip0_1067_13481">
<rect width="38" height="38" fill="white"/>
</clipPath>
<clipPath id="clip1_1067_13481">
<rect width="47" height="38" fill="white" transform="translate(958.5)"/>
</clipPath>
<clipPath id="clip2_1067_13481">
<rect width="63" height="38" fill="white" transform="translate(1097)"/>
</clipPath>
<clipPath id="clip3_1067_13481">
<rect width="38" height="38" fill="white" transform="translate(143.57 78)"/>
</clipPath>
<clipPath id="clip4_1067_13481">
<rect width="38" height="38" fill="white" transform="translate(287.145 78)"/>
</clipPath>
<clipPath id="clip5_1067_13481">
<rect width="43" height="38" fill="white" transform="translate(430.715 78)"/>
</clipPath>
<clipPath id="clip6_1067_13481">
<rect width="131" height="38" fill="white" transform="translate(722.855 78)"/>
</clipPath>
</defs>
</svg>
