<svg width="828" height="792" viewBox="0 0 828 792" fill="none" xmlns="http://www.w3.org/2000/svg">
<g opacity="0.2">
<mask id="mask0_1067_31926" style="mask-type:luminance" maskUnits="userSpaceOnUse" x="0" y="0" width="828" height="792">
<path d="M0 0H828V791.961H0V0Z" fill="white"/>
</mask>
<g mask="url(#mask0_1067_31926)">
<path d="M626.511 66.7085V66.7209L626.505 66.7051L626.511 66.7085ZM626.511 66.7085C626.658 66.7997 626.802 66.8887 626.943 66.9777L626.888 66.8054C626.763 66.7294 626.637 66.655 626.511 66.5824V66.7085ZM411.78 1.20506H411.784M427.6 55.2278H427.668C427.577 38.2511 427.48 21.2766 427.375 4.30105H427.041C427.144 21.2541 427.242 38.2072 427.332 55.1613L427.6 55.2278ZM435.613 57.4949C435.725 57.5208 435.836 57.5456 435.949 57.5658C435.705 42.2379 435.444 26.91 435.166 11.5821C435.055 11.5686 434.944 11.5581 434.832 11.5506C435.109 26.865 435.369 42.1816 435.613 57.4949ZM443.842 53.659L444.107 53.5576L443.892 45.6346C443.777 45.589 443.664 45.539 443.553 45.4848L443.776 53.6837L443.842 53.659ZM451.813 49.0336H452.148L452.107 47.9805C451.991 47.947 451.878 47.9049 451.768 47.8544L451.813 49.0336ZM451.763 39.1273L452.006 45.3485C451.891 45.3231 451.778 45.2911 451.668 45.2528L451.419 38.8728C451.531 38.9595 451.646 39.0451 451.763 39.1273ZM451.313 27.856L451.4 29.9801C451.29 30.0035 451.177 30.0089 451.065 29.9959L450.971 27.6747C451.093 27.7276 451.208 27.7885 451.313 27.856ZM451.165 24.2296L451.216 25.4628H450.881L450.823 24.0483C450.938 24.108 451.053 24.1676 451.165 24.2296ZM443.019 15.2581L443.042 15.9811C442.929 15.9111 442.816 15.8428 442.701 15.7762L442.665 14.5925L442.729 14.624L442.901 15.1398L443.019 15.2581ZM443.092 17.6795C442.98 17.6387 442.867 17.6016 442.754 17.568C442.864 21.289 442.973 25.0101 443.081 28.7322H443.416C443.309 25.0484 443.202 21.3645 443.092 17.6806V17.6795ZM443.143 30.9092L443.106 29.6208C443.238 29.6726 443.349 29.7166 443.445 29.756L443.47 30.6367L443.143 30.9092ZM443.488 31.2302C443.369 31.1695 443.255 31.1003 443.147 31.023C443.256 34.8488 443.364 38.6757 443.471 42.5026L443.803 42.444C443.7 38.705 443.595 34.9681 443.488 31.2302ZM419.728 2.06437C419.599 23.0718 419.479 44.0804 419.37 65.089C419.252 65.219 419.139 65.3543 419.033 65.4944C419.142 44.3485 419.263 23.2036 419.394 2.05874C419.492 2.06212 419.599 2.06324 419.728 2.06437ZM418.746 565.004H418.411C418.441 575.82 418.472 586.637 418.507 597.453L418.839 596.992C418.806 586.329 418.774 575.667 418.746 565.004ZM412.105 1.72087C411.687 24.2679 411.304 46.8149 410.957 69.363C410.845 69.4249 410.733 69.4858 410.62 69.5455C410.967 46.9365 411.35 24.3287 411.77 1.72087H412.105ZM409.137 563.523L408.801 563.413C408.914 577.553 409.041 591.691 409.183 605.831L409.513 605.406C409.374 591.446 409.249 577.485 409.137 563.523ZM404.702 0.172312C403.978 23.4559 403.318 46.7394 402.722 70.023H402.388C402.983 46.7394 403.643 23.4559 404.367 0.172312H404.702ZM399.579 553.788L399.242 553.589C399.506 574.576 399.821 595.562 400.189 616.547C400.288 616.331 400.396 616.113 400.512 615.894C400.151 595.193 399.839 574.491 399.579 553.788ZM394.174 74.5932C394.066 77.6467 393.959 80.7003 393.854 83.7539C393.739 83.8383 393.625 83.9235 393.511 84.0096C394.47 56.0634 395.56 28.1173 396.779 0.172312H397.115C396.041 24.786 395.067 49.404 394.194 74.0256L394.076 74.4964L394.174 74.5932ZM389.263 1.54856H389.127C387.303 34.1071 385.705 66.6779 384.333 99.2587C384.45 99.0751 384.57 98.8926 384.691 98.7091C384.82 95.6818 384.949 92.6545 385.081 89.6283C384.931 89.2735 384.885 88.8827 385.127 88.5471C386.396 59.4683 387.845 30.3977 389.474 1.33683L389.263 1.54856ZM381.87 0.515811L381.986 0.500044L382.005 0.210604L381.667 0.244391L381.637 0.688123L381.635 0.733172C379.224 36.0196 377.137 71.3275 375.374 106.652C375.482 106.691 375.592 106.725 375.704 106.754C377.469 71.3827 379.558 36.0286 381.972 0.696007V0.686997L381.977 0.622802L381.87 0.514684V0.515811ZM382.007 0.172312V0.176817L381.67 0.218488L381.673 0.172312H382.007ZM382.02 0L382.018 0.0337867L381.679 0.0900979L381.684 0H382.02ZM374.458 0.44148L374.12 0.464004L374.019 1.72087H374.355L374.458 0.44148ZM366.899 0.88296L366.56 0.925756L366.545 1.08005C366.657 1.06879 366.771 1.0564 366.884 1.04626L366.899 0.88296ZM359.008 1.54743L358.92 2.37633L359.26 2.33466L359.344 1.54856H359.008V1.54743ZM351.955 2.46643L351.612 2.52274L351.575 2.83809L351.919 2.77502L351.955 2.46643ZM344.313 4.14451L344.191 5.06576L343.834 5.21217L343.967 4.20983L344.313 4.14338V4.14451ZM344.465 2.99914L344.381 3.6332L344.032 3.71429L344.121 3.05207C344.236 3.03292 344.351 3.01603 344.465 2.99914ZM336.889 4.25488L336.539 4.3247L336.243 6.36091L336.596 6.25955L336.889 4.25488ZM329.153 5.55454C329.095 5.5658 329.039 5.57932 328.981 5.5917C328.971 5.65974 328.96 5.72769 328.949 5.79555L329.301 5.71671L329.333 5.51399L329.153 5.55454ZM328.857 6.37443L328.933 5.89578L329.285 5.81019L329.025 7.44547L328.674 7.52768L328.855 6.38231L328.918 6.36542L328.857 6.37443ZM321.526 7.91398L321.25 8.00633L321.034 9.25982L321.391 9.15733L321.608 7.89596L321.526 7.91398ZM320.579 11.9155L320.664 11.4087L321.028 11.269L320.928 11.8569C320.812 11.8796 320.696 11.8991 320.579 11.9155ZM314.119 9.23842L313.953 10.1281L313.587 10.2689L313.756 9.35892L314.119 9.23842ZM314.318 8.17076L314.176 8.93096L314.133 8.94673L313.812 9.05372L313.967 8.22932L314.318 8.17076ZM306.741 9.97835L306.542 10.0369L306.29 11.2983L306.655 11.1834L306.895 9.97835H306.741ZM305.979 12.8637L306.103 12.2398L306.464 12.1384L306.326 12.8322L305.979 12.8637ZM305.242 16.5949L305.539 15.0858L305.903 14.9709L305.603 16.4879C305.485 16.524 305.364 16.56 305.242 16.5949ZM298.339 16.4226L298.082 17.6378L297.705 17.8067L297.975 16.5228C298.096 16.4875 298.217 16.4541 298.339 16.4226ZM298.726 14.597L298.484 15.7379L298.318 15.828L298.105 15.9102L298.371 14.6612L298.726 14.597ZM299.161 12.554L299.1 12.839L298.745 12.9043L298.797 12.6554L299.161 12.554ZM299.524 10.8591L299.469 11.1158C299.335 11.1641 299.207 11.2268 299.087 11.3028L299.163 10.9458L299.524 10.8591ZM291.672 14.1048L291.598 14.4303L291.224 14.5655L291.299 14.2343C291.424 14.1893 291.549 14.1465 291.672 14.1048ZM292.05 12.447L291.684 12.5484L291.663 12.6441L291.655 12.6779L291.554 13.1171L291.922 13.0113L292.019 12.5867L292.024 12.5642L292.05 12.447ZM284.543 14.3841C284.54 14.3997 284.536 14.4151 284.532 14.4303L284.15 14.5835L284.173 14.49L284.543 14.3841ZM277.028 16.3314L276.654 16.4372L276.574 16.747L276.95 16.6321L277.028 16.3314ZM269.493 18.5354L269.116 18.6469L269.059 18.853L269.438 18.737L269.493 18.5354ZM262.026 20.6752L261.642 20.7969C261.626 20.8541 261.61 20.9111 261.593 20.968L261.979 20.8397L262.026 20.6752ZM261.546 21.1291L261.577 21.0232L261.969 20.8723L261.928 21.012L261.546 21.1291ZM261.465 21.4118L261.499 21.2924L261.879 21.1843L261.851 21.2834L261.465 21.4118ZM254.349 24.2116L253.956 24.3546L253.88 24.6024H253.962L253.844 24.7206L253.789 24.9042L254.167 24.8096L254.349 24.2127V24.2116ZM253.302 26.5158L253.595 25.545L253.987 25.4054L253.685 26.4043L253.302 26.5158ZM245.081 32.165L244.859 32.8677L244.465 33.0074L244.644 32.4364C244.822 32.3283 244.965 32.2393 245.081 32.165ZM245.596 30.5297L245.462 30.9554L245.056 31.1266L245.2 30.6716L245.596 30.5297ZM244.163 34.9253L243.731 35.3589C243.293 36.7622 242.858 38.1662 242.425 39.571L242.787 39.3987L242.831 39.3919C243.293 37.8929 243.758 36.3939 244.225 34.8938L244.163 34.9253ZM237.666 34.4366C237.433 35.1393 237.202 35.8443 236.97 36.5471L236.542 36.7802L237.254 34.6156L237.666 34.4366ZM239.656 28.4597C239.4 29.2188 239.147 29.979 238.894 30.738L238.478 30.9272C238.735 30.1547 238.994 29.3821 239.253 28.6095C239.387 28.5577 239.521 28.5081 239.656 28.4597ZM232.002 31.6165L231.586 31.7933L230.865 33.8487L231.277 33.6831L232.002 31.6165ZM224.248 35.0177L223.822 35.2046L223.295 36.6372L223.149 37.037C221.55 41.4068 219.98 45.7776 218.439 50.1485L218.802 50.126C220.362 45.7011 221.953 41.2772 223.574 36.8534L223.713 36.4705L224.248 35.0177ZM216.579 38.4482L216.145 38.6441L215.55 40.1904L215.46 40.4269L215.046 41.5104L215.28 41.4631L214.994 41.6455C213.374 45.8914 211.783 50.1373 210.221 54.3831L210.294 54.3673L210.66 54.1601C212.374 49.506 214.119 44.8632 215.894 40.2321L215.973 40.026L216.579 38.4482ZM208.748 42.3235L208.47 42.4801L207.952 43.7707L208.388 43.5838L208.943 42.1985L208.748 42.3235ZM206.904 46.3982L207.53 44.8249L207.981 44.5996L207.304 46.298L206.904 46.3982ZM199.642 49.6158L199.208 49.7892C198.294 51.9925 197.388 54.1988 196.489 56.4081L196.933 56.2065C197.827 54.0103 198.73 51.8131 199.642 49.6158ZM193.44 49.7341L193.307 50.0404L193.275 50.0663L192.815 50.3298L192.97 49.9773L193.44 49.7341ZM185.697 53.5204L185.645 53.6353L185.157 53.8977L185.215 53.7705L185.697 53.5204ZM177.774 57.7573L177.727 57.8586L177.225 58.1368L177.264 58.0524L177.774 57.7573ZM177.72 57.8699L177.202 58.183C136.237 144.627 111.082 231.089 101.737 317.555L102.083 317.476C111.449 230.933 136.662 144.394 177.72 57.8699ZM169.493 62.9357L168.954 63.2747C125.653 151.44 99.6506 239.606 90.9494 327.773L91.2906 327.722C100.012 239.46 126.08 151.199 169.493 62.9357ZM161.108 68.2796L160.548 68.64C116.969 154.209 90.5619 239.764 81.3314 325.319L81.6918 325.098C90.9606 239.503 117.433 153.901 161.108 68.2796ZM152.855 73.6461L152.276 74.0256C107.959 157.841 81.0363 241.646 71.5085 325.45L71.8993 324.977C81.4925 241.21 108.477 157.438 152.855 73.6461ZM144.311 79.258L143.714 79.65C97.1188 164.853 69.4452 250.044 60.699 335.234L61.1044 334.562C69.9453 249.472 97.6797 164.376 144.311 79.258ZM135.347 85.5581L134.694 86.0323C76.6407 188.778 47.6111 291.531 47.6111 394.289C47.6111 404.262 47.8837 414.235 48.431 424.209L48.7813 424.486C48.2243 414.43 47.9456 404.36 47.9456 394.289C47.9456 291.385 77.0765 188.475 135.347 85.5581ZM125.913 92.6657L125.189 93.2446C66.7671 193.602 37.5517 293.945 37.5517 394.289C37.5517 401.621 37.7082 408.952 38.0202 416.284L38.366 416.535C38.0468 409.124 37.8873 401.707 37.8873 394.289C37.8873 293.763 67.2254 193.231 125.913 92.6657ZM115.387 101.531L114.567 102.25C56.5218 199.618 27.4956 296.993 27.4956 394.376C27.4956 398.715 27.5531 403.054 27.6691 407.395L28.0182 407.936C27.893 403.417 27.8303 398.897 27.8301 394.376C27.8301 296.768 57.0128 199.154 115.387 101.531ZM105.276 109.426L105.142 109.644C104.853 109.9 104.564 110.158 104.277 110.416L104.431 110.163C104.711 109.917 104.991 109.672 105.276 109.426ZM103.789 111.857L102.926 112.633C50.9166 198.335 22.636 284.042 18.0917 369.743L18.353 371.18C22.6709 284.753 51.1486 198.31 103.789 111.857ZM91.6961 122.749L90.8086 123.549C46.2552 195.839 19.5445 268.135 10.6822 340.434L10.9007 341.408C19.6796 268.527 46.6099 195.641 91.6961 122.749ZM76.7139 138.154L75.2802 140.066C35.9074 204.428 11.4796 268.791 2.0013 333.153L2.20515 334.072C11.7037 268.639 36.6676 203.197 77.0991 137.746L76.7139 138.154ZM46.6144 179.283L46.0141 179.683C44.5186 182.422 43.0454 185.172 41.5948 187.934L41.2986 188.564L40.552 190.655C42.53 186.842 44.5509 183.05 46.6144 179.283ZM0 294.864C7.07269 266.895 17.1321 238.927 30.1783 210.961L31.8305 208.232C18.1559 237.095 7.66396 265.958 0.355887 294.82C0.237501 294.836 0.118857 294.851 0 294.864ZM0.368275 345.492C0.564238 343.817 0.771464 342.142 0.988825 340.468L1.40553 339.857C1.1258 341.989 0.862261 344.122 0.614918 346.258L0.38179 345.644L0.368275 345.492ZM7.91173 372.681L8.2068 373.524C8.32843 370.942 8.47371 368.362 8.64152 365.782L8.63363 365.773L8.70684 364.781C8.78905 363.558 8.87577 362.333 8.96925 361.11L8.68206 360.477C8.36902 364.542 8.11221 368.61 7.91173 372.681ZM58.5254 425.712L58.8137 424.846C58.4035 417.132 58.1486 409.412 58.049 401.688L57.7111 401.417C57.8121 409.52 58.0835 417.62 58.5254 425.712ZM68.4992 427.353L68.8574 427.77C68.508 421.461 68.2572 415.147 68.105 408.831L67.7728 408.914C67.9215 415.061 68.1636 421.207 68.4992 427.353ZM79.0745 437.545L79.4089 437.531C78.6839 426.824 78.228 416.1 78.0417 405.37L77.7083 405.442C77.8953 416.143 78.3503 426.844 79.0745 437.545ZM89.6035 445.376L89.9504 445.528C88.3951 425.102 87.7706 404.617 88.0786 384.135L87.743 384.219C87.4389 404.604 88.0583 424.99 89.6035 445.376ZM99.9333 451.777L100.325 452.474C99.4991 442.425 98.8863 432.359 98.4872 422.283L98.2034 422.205L98.1504 422.237C98.5404 432.095 99.1348 441.944 99.9333 451.777ZM111.334 468.472L111.694 468.7C110.173 453.435 109.118 438.128 108.532 422.799L108.199 422.848C108.781 438.084 109.827 453.299 111.334 468.472ZM122.055 477.056C122.162 477.043 122.272 477.027 122.386 477.009C121.964 472.985 121.572 468.958 121.21 464.928L120.83 464.437C121.204 468.643 121.613 472.85 122.055 477.056ZM142.097 548.584C141.3 544.296 140.536 540.003 139.804 535.704C139.913 535.681 140.022 535.659 140.133 535.639C140.869 539.962 141.637 544.28 142.438 548.592C142.324 548.592 142.211 548.589 142.097 548.584ZM147.963 577.464C146.312 569.976 144.758 562.468 143.302 554.94C143.393 554.854 143.491 554.768 143.592 554.683C145.097 562.47 146.706 570.236 148.419 577.979C148.265 577.81 148.113 577.638 147.963 577.464ZM159.14 587.539C159.289 587.686 159.436 587.836 159.581 587.986C154.819 566.479 150.83 544.808 147.621 523.015L147.323 523.285C150.501 544.836 154.442 566.268 159.14 587.539ZM173.377 612.17C173.534 612.333 173.687 612.498 173.838 612.668C165.199 576.1 158.731 539.533 154.432 502.97C154.344 503.123 154.249 503.273 154.149 503.419C158.426 539.668 164.835 575.918 173.377 612.17ZM186.669 631.812C186.798 631.878 186.927 631.941 187.06 632.002C173.026 574.4 164.093 516.797 160.262 459.195H159.926C163.752 516.734 172.667 574.273 186.669 631.812ZM195.366 632.676C195.482 632.675 195.597 632.675 195.71 632.677C182.034 573.533 173.45 514.388 169.956 455.245L169.635 455.47C173.136 514.538 181.713 573.607 195.366 632.676ZM205.078 637.852C205.234 638.032 205.388 638.214 205.543 638.398C191.445 575.445 182.801 512.5 179.614 449.554C179.487 450.355 179.567 451.477 179.694 453.173H179.467C182.788 514.731 191.325 576.289 205.078 637.852ZM215.791 648.098C215.913 648.14 216.036 648.178 216.16 648.215C201.982 583.961 193.185 519.7 189.77 455.434L189.452 455.767C192.877 519.883 201.656 583.995 215.791 648.098ZM245.019 733.482C246.091 735.854 246.669 737.837 246.777 739.747C249.032 747.709 251.359 755.65 253.757 763.57C254.092 764.251 254.413 764.943 254.734 765.634C223.014 661.471 204.643 557.288 199.619 453.103L199.275 452.911C203.769 546.441 219.017 639.969 245.019 733.482ZM266.685 784.87C266.821 784.95 266.959 785.027 267.104 785.099C266.46 782.966 265.82 780.832 265.188 778.697L264.621 777.827H264.928C233.536 671.901 215.147 565.994 209.76 460.092L209.424 460.074C214.928 568.33 234.015 676.589 266.685 784.87ZM276.515 795.931L276.185 794.798L276.606 795.048L276.993 796.371C276.856 796.238 276.722 796.114 276.586 795.993L276.515 795.931ZM278.288 801.949C277.877 800.565 277.469 799.181 277.062 797.797C277.2 797.871 277.337 797.946 277.476 798.018C277.88 799.392 278.286 800.766 278.693 802.14L278.288 801.949ZM287.486 811.964C287.106 810.635 286.729 809.306 286.353 807.977C286.456 807.927 286.56 807.881 286.662 807.838C287.077 809.308 287.495 810.778 287.915 812.249C287.772 812.154 287.628 812.059 287.486 811.964ZM295.585 818.549C295.727 818.651 295.87 818.753 296.015 818.853C263.283 698.569 244.464 578.285 239.557 458.001L239.22 457.931C244.116 578.137 262.905 698.342 295.585 818.549ZM303.475 823.936L303.721 824.07C301.465 815.319 299.274 806.553 297.148 797.77C296.996 797.644 296.849 797.513 296.708 797.376C298.838 806.186 301.034 814.979 303.294 823.756L303.475 823.936ZM310.633 827.813L311.029 828.027C310.157 824.43 309.294 820.833 308.442 817.236C308.293 817.07 308.14 816.908 307.983 816.749C308.856 820.44 309.739 824.128 310.633 827.813ZM318.087 831.851C318.158 831.92 318.228 831.99 318.344 832.084C317.792 829.664 317.245 827.243 316.702 824.823C316.591 824.723 316.451 824.601 316.276 824.449C316.822 826.887 317.372 829.326 317.929 831.764L318.087 831.851ZM324.697 834.162L325.056 834.242C324.79 832.989 324.525 831.737 324.261 830.486C324.141 830.449 324.019 830.415 323.898 830.382C324.163 831.642 324.429 832.901 324.697 834.162ZM331.326 834.603C331.394 834.536 331.461 834.46 331.528 834.381L331.236 832.894C331.11 832.829 330.984 832.765 330.858 832.702L331.233 834.611L331.326 834.603ZM316.799 751.758L316.862 752.147L316.682 753.138C316.469 751.813 316.258 750.489 316.048 749.166C316.209 749.654 316.332 750.106 316.454 750.558C316.561 750.949 316.668 751.341 316.799 751.758ZM322.774 741.914C322.889 741.914 323.001 741.913 323.112 741.909C311.323 659.323 303.736 576.738 300.349 494.152L300.009 494.017C303.392 576.649 310.981 659.282 322.774 741.914ZM329.182 730.194C329.261 729.918 329.34 729.65 329.417 729.388C319.836 653.155 313.524 576.922 310.482 500.689C310.367 500.627 310.253 500.563 310.14 500.496C313.189 577.063 319.537 653.628 329.182 730.194ZM336.507 723.393C336.625 723.413 336.739 723.43 336.848 723.441C329.933 661.743 324.955 599.843 321.922 537.833C321.812 537.849 321.7 537.862 321.589 537.872C324.62 599.853 329.595 661.724 336.507 723.393ZM343.52 711.409C343.623 711.332 343.728 711.256 343.834 711.181C338.067 651.719 333.918 592.11 331.393 532.421L331.053 532.3C333.58 592.105 337.738 651.83 343.52 711.409ZM349.706 687.184L350.016 686.849C346.056 637.169 343.103 587.413 341.158 537.613C341.05 537.622 340.94 537.631 340.825 537.643C342.774 587.545 345.735 637.402 349.706 687.184ZM357.917 681.131L358.252 681.127C355.033 634.187 352.603 587.195 350.962 540.173L350.624 540.101C352.265 587.149 354.696 634.166 357.917 681.131ZM366.388 677.212L366.703 676.875C364.122 632.562 362.147 588.216 360.779 543.849C360.667 543.788 360.554 543.728 360.439 543.668C361.811 588.208 363.794 632.727 366.388 677.212ZM375.126 676.768L375.462 676.759C373.434 635.43 371.85 594.08 370.711 552.716C370.6 552.786 370.491 552.854 370.383 552.919C371.521 594.218 373.102 635.503 375.126 676.768ZM383.629 672.158C383.736 672.064 383.844 671.965 383.951 671.861C382.37 631.892 381.13 591.91 380.23 551.92L379.892 551.783C380.793 591.906 382.039 632.03 383.629 672.158ZM392.024 657.846C392.113 657.57 392.215 657.298 392.335 657.014C391.326 622.335 390.518 587.649 389.909 552.96L389.575 552.959C390.188 587.919 391.005 622.882 392.024 657.846ZM374.311 2.26934C371.662 35.058 369.343 67.8726 367.356 100.708C367.265 100.691 367.175 100.671 367.085 100.648H367.025C369.008 67.8791 371.321 35.1306 373.964 2.40787L373.98 2.20515L374.006 1.89206H374.305L374.342 1.87404L374.319 2.17249L374.311 2.26934ZM366.663 3.41359C363.67 35.4518 361.044 67.5231 358.785 99.6213C358.678 99.5334 358.572 99.4437 358.468 99.3521C360.722 67.3626 363.34 35.3998 366.321 3.4699L366.372 2.9248L366.524 1.3098L366.865 1.25236L366.723 2.7615L366.663 3.41359ZM351.899 78.7997C351.637 81.8574 351.377 84.9151 351.123 87.9739L350.846 87.2756C351.076 84.522 351.309 81.7684 351.545 79.0148C351.666 78.9494 351.784 78.8796 351.899 78.7997ZM351.874 75.2048C351.986 75.18 352.099 75.1608 352.214 75.1473C352.833 68.0341 353.471 60.9208 354.13 53.8087C354.021 53.829 353.908 53.8425 353.79 53.8482C353.131 60.9652 352.492 68.0841 351.874 75.2048ZM354.327 48.1022C354.433 48.1044 354.544 48.1078 354.663 48.1134L354.878 45.8351C354.767 45.8251 354.656 45.8157 354.544 45.8069L354.327 48.1022ZM354.678 44.3879H354.879L355.007 44.4735L355.225 42.1985C355.105 42.0643 355.006 41.9132 354.931 41.7503L354.678 44.3879ZM347.073 45.5817L346.841 47.7665C346.73 47.7524 346.62 47.7385 346.509 47.7249L346.714 45.7957C346.829 45.7169 346.949 45.6455 347.073 45.5817ZM355.356 37.3411C355.454 37.3174 355.568 37.2949 355.7 37.2713C356.685 27.1217 357.714 16.9722 358.785 6.82267L358.488 6.88236H358.441C357.372 17.031 356.343 27.184 355.356 37.3411ZM358.678 4.64568L358.91 2.46868L359.252 2.41688L359.014 4.64568H358.678ZM351.612 3.26943H351.86L351.908 2.86511L351.612 2.9248L351.563 2.93269L351.521 3.28407C351.551 3.27844 351.581 3.27281 351.612 3.26943ZM351.832 3.49918C351.719 3.51382 351.604 3.52733 351.49 3.53972L351.205 5.9352L351.567 5.72798L351.832 3.49918ZM350.971 7.91398C350.612 10.9532 350.257 13.9929 349.906 17.033H350.242C350.594 13.9922 350.948 10.9537 351.308 7.91398H350.971ZM344.127 5.54891L343.961 6.80014L343.613 6.88123L343.781 5.60747L344.127 5.54891ZM343.532 8.94673L343.334 9.00754C343.216 9.90462 343.099 10.8018 342.983 11.6992H343.319L343.68 8.94673H343.532ZM342.359 16.5161L342.893 12.3873H343.23C343.043 13.821 342.859 15.2558 342.674 16.6895H342.672V16.5161H342.359ZM321.313 532.109C321.101 527.59 320.9 523.07 320.709 518.552H321.044C321.234 523.047 321.435 527.541 321.645 532.037C321.535 532.064 321.424 532.088 321.313 532.109ZM336.556 6.53097L336.068 9.90627C335.948 9.95695 335.829 10.0054 335.708 10.0527L336.082 7.46799C336.159 7.44644 336.235 7.42316 336.311 7.39817L336.097 7.36213L336.194 6.69766L336.556 6.53097ZM328.905 8.20905C328.698 9.5134 328.491 10.8179 328.287 12.1227L327.927 12.2544L328.56 8.24284L328.905 8.20905ZM301.916 146.927C301.329 152.239 300.762 157.549 300.212 162.859L299.872 162.893C300.423 157.571 300.991 152.25 301.58 146.927H301.916ZM302.54 141.35L302.374 142.823L302.008 143.085L302.204 141.337L302.54 141.35ZM312.723 63.3129C312.495 64.8604 312.267 66.4101 312.041 67.9575H311.703C311.928 66.4089 312.156 64.8604 312.385 63.3129H312.723ZM320.885 12.1035L320.269 15.7277L319.912 15.8325L320.528 12.2049L320.885 12.1035ZM312.694 16.9778L312.625 17.3562C312.511 17.3646 312.396 17.3703 312.282 17.3731L312.32 17.1648L312.694 16.9778ZM298.318 54.1939C298.424 54.034 298.531 53.8786 298.638 53.7254C299.408 49.3816 300.193 45.0388 300.994 40.695L300.657 40.6713C298.841 50.5342 297.099 60.4103 295.43 70.2989L295.707 70.6683C296.632 65.1816 297.58 59.6988 298.55 54.2198L298.318 54.1939ZM301.423 38.3705L301.239 39.3638L300.871 39.5102L301.111 38.215L301.423 38.3705ZM305.078 19.1683C304.882 20.1696 304.688 21.1696 304.494 22.1709C304.364 22.2275 304.237 22.2926 304.115 22.3657L304.719 19.2573L305.078 19.1672V19.1683ZM297.436 20.7135C297.181 21.9343 296.927 23.1552 296.675 24.376L296.325 24.4075L296.405 24.0257L296.77 23.5696L296.476 23.6822C296.678 22.7114 296.879 21.7395 297.083 20.7687L297.436 20.7135ZM295.954 27.8707H295.612C295.348 29.1579 295.085 30.4463 294.824 31.7336L295.195 31.5928C295.446 30.3517 295.699 29.1118 295.954 27.8707ZM294.971 32.6977L294.627 32.7056C292.236 44.5239 289.957 56.3648 287.792 68.2267L288.17 68.0172C290.325 56.2228 292.592 44.4491 294.971 32.6977ZM287.285 72.9016L287.069 72.2135C286.07 77.7602 285.096 83.3057 284.148 88.8512L284.448 89.081C285.37 83.6838 286.316 78.2906 287.285 72.9016ZM281.836 104.77L281.813 104.26L281.545 104.478C277.906 126.903 274.682 149.393 271.875 171.937L272.206 171.992C275.003 149.528 278.214 127.117 281.836 104.77ZM269.013 199.323C268.785 201.422 268.559 203.521 268.338 205.62L267.963 205.984C268.18 203.919 268.402 201.853 268.626 199.788L269.013 199.323ZM262.88 173.944C262.634 175.795 262.393 177.645 262.155 179.495C262.054 179.41 261.953 179.324 261.852 179.234C262.079 177.472 262.309 175.709 262.542 173.946C262.654 173.938 262.767 173.938 262.88 173.944ZM271.801 114.482C268.606 133.505 265.732 152.58 263.178 171.7L262.839 171.709C265.387 152.626 268.255 133.588 271.44 114.601L271.801 114.482ZM262.63 118.643C259.501 136.339 256.667 154.085 254.128 171.874H253.79C256.329 154.08 259.163 136.329 262.292 118.629L262.63 118.643ZM254.973 114.396C251.191 134.155 247.8 153.987 244.801 173.88L244.381 174.421C247.394 154.373 250.807 134.387 254.617 114.475L254.973 114.396ZM243.744 181.005L243.391 181.109C242.146 189.655 240.975 198.211 239.877 206.777L240.216 206.766C241.316 198.178 242.493 189.591 243.744 181.005ZM251.669 90.6588C245.172 120.049 239.592 149.635 234.937 179.373L234.558 179.634C239.235 149.705 244.85 119.93 251.394 90.3536L251.669 90.6588ZM234.005 185.425L233.636 185.615C232.197 195.1 230.855 204.599 229.608 214.111L229.972 213.914C231.219 204.404 232.563 194.907 234.005 185.425ZM224.536 187.977L224.366 189.041L223.98 189.342L224.211 187.888L224.536 187.977ZM243.471 91.6938C236.122 123.082 229.882 154.72 224.765 186.548L224.424 186.558C229.558 154.62 235.821 122.874 243.2 91.3796L243.471 91.6938ZM246.014 79.5869C246.252 78.6037 246.492 77.6205 246.734 76.6384L247.086 76.2161L247.196 76.1598C246.91 77.3221 246.626 78.4843 246.344 79.6466L246.014 79.5869ZM254.171 78.0406L254.306 77.9358L254.564 77.8266C254.924 76.2566 255.289 74.6878 255.655 73.119H255.312C254.929 74.7599 254.548 76.3997 254.171 78.0406ZM261.55 47.4388C261.668 47.4321 261.785 47.4231 261.901 47.414C263.039 42.9069 264.199 38.3986 265.38 33.8915L264.986 34.0762C263.82 38.5256 262.675 42.9791 261.55 47.4388ZM265.501 32.1188L265.825 31.9994L265.885 31.9735C266.18 30.8563 266.475 29.7391 266.772 28.6219C266.631 28.6838 266.502 28.7401 266.381 28.7908C266.086 29.9013 265.792 31.0095 265.501 32.1188ZM258.7 32.3767L258.115 34.476L257.917 34.5807L257.716 34.6596L258.295 32.5828L258.7 32.3767ZM259.676 28.9034L259.07 31.0568C258.946 31.1063 258.816 31.1547 258.681 31.2043L259.451 28.4687L259.808 28.3865L259.635 28.9034H259.676ZM267.92 23.0504L268.014 22.6968L268.403 22.5369L268.305 22.904L267.92 23.0504ZM268.159 22.1652L268.544 22.0233L268.986 20.3925L268.604 20.5198L268.159 22.1652ZM275.59 20.575L275.793 19.7833L276.184 19.6087L275.962 20.4736L275.59 20.575ZM275.137 22.3578L275.416 21.2586L275.818 21.039L275.505 22.2666L275.137 22.3578ZM273.532 28.7266L273.918 27.1825H274.263L273.918 28.5577L273.532 28.7266ZM273.508 30.202L273.129 30.3405C272.844 31.4892 272.559 32.6357 272.276 33.7822L272.357 33.7203L272.693 33.4905L273.508 30.202ZM272.112 35.8556L271.722 36.0403C270.781 39.8807 269.857 43.72 268.947 47.5593L269.295 47.5402C270.218 43.6446 271.157 39.7512 272.112 35.8556ZM276.663 46.6978C277.865 41.3055 279.093 35.919 280.348 30.5387L280.72 30.4148C279.454 35.8446 278.214 41.2806 277 46.7225L276.663 46.6978ZM267.069 57.0556C266.689 58.7067 266.311 60.3577 265.936 62.0099L265.578 62.0741C265.942 60.4704 266.309 58.8666 266.679 57.2629C266.824 57.184 266.955 57.1153 267.069 57.0556ZM263.467 73.0627L263.113 73.1134C262.702 74.9874 262.294 76.8614 261.89 78.7355L262.042 78.7963L262.146 79.1341C262.581 77.1103 263.022 75.0854 263.467 73.0627ZM254.763 113.713C255.686 108.901 256.633 104.089 257.604 99.2767L257.884 99.5796C256.977 104.077 256.092 108.575 255.227 113.072L254.763 113.713ZM267.813 88.9875C269.379 80.9869 271.003 72.998 272.687 65.0214L273.076 64.8018C271.338 73.0247 269.663 81.2606 268.052 89.5089L267.813 88.9875ZM275.195 93.052L275.533 93.061C275.913 90.9629 276.295 88.8659 276.683 86.7688L276.414 86.3803C276.003 88.6046 275.597 90.8289 275.195 93.052ZM276.922 83.6435L277.221 83.8609C280.303 67.3167 283.629 50.7724 287.203 34.2282L286.881 34.137C283.326 50.591 280.006 67.0948 276.922 83.6435ZM287.206 32.6335L287.588 32.451C287.896 31.0365 288.204 29.6231 288.515 28.2085L288.14 28.3549C287.827 29.7807 287.516 31.2065 287.206 32.6335ZM288.853 25.1193L288.862 25.1182H289.196C289.577 23.3973 289.961 21.6764 290.347 19.9567L289.958 20.1628C289.587 21.815 289.219 23.4671 288.853 25.1193ZM282.942 21.0097L282.614 22.3893L282.231 22.5493L282.573 21.1156L282.942 21.0097ZM283.533 18.5523L283.366 19.246C283.307 19.2537 283.247 19.2612 283.188 19.2686L283 19.3384L283.149 18.7178L283.533 18.5523ZM283.823 17.3495L283.677 17.9576L283.287 18.1435L283.445 17.4903L283.823 17.3495ZM284.048 16.4203L283.921 16.9452L283.54 17.0972L283.672 16.5499L284.048 16.4203ZM284.22 14.7952L284.454 14.7479L284.492 14.5936L284.392 14.6229L284.22 14.7952ZM282.142 24.3737L281.67 24.9132L281.662 24.9436L282.017 24.9019L282.142 24.3737ZM280.635 29.3111L280.985 27.8166L281.34 27.7659L281.013 29.1591L280.781 29.2469L280.635 29.3111ZM276.178 18.2797L276.557 18.1536L276.716 17.5387L276.335 17.6738L276.178 18.2797ZM276.887 16.8753L276.799 17.2132L276.422 17.3393L276.506 17.0116L276.887 16.8753ZM269.33 19.13L269.138 19.8339L268.749 19.9905L268.95 19.2517L269.33 19.13ZM269.414 18.8215L269.413 18.8271L269.091 18.9239L269.414 18.8215ZM261.759 21.5999C261.49 22.5312 261.223 23.4626 260.957 24.394C260.839 24.4101 260.72 24.4203 260.6 24.4244L261.374 21.7282L261.759 21.5999ZM251.888 32.4082L251.482 32.5974C251.12 33.8216 250.759 35.0447 250.4 36.2689L250.834 35.9795L251.888 32.4082ZM250.136 38.366H249.786L249.453 39.5102L250.007 38.8052L250.136 38.366ZM245.431 54.8629C244.448 58.397 243.48 61.9299 242.527 65.464L242.13 65.6487C243.077 62.1327 244.04 58.6166 245.018 55.1005L245.431 54.8629ZM251.658 57.1671C252.445 54.1479 253.241 51.1311 254.047 48.1168L254.483 47.7834C253.716 50.6486 252.958 53.5137 252.21 56.3799L251.658 57.1683V57.1671ZM255.048 44.3969L255.425 44.2809L256.137 41.659L256.026 41.6343L255.78 41.6985C255.535 42.5975 255.291 43.497 255.048 44.3969ZM256.393 39.4561L256.713 39.553L256.869 38.982L256.451 39.241L256.393 39.4561ZM238.846 52.5631C238.481 53.794 238.118 55.0254 237.756 56.2572L237.339 56.4903C237.704 55.2447 238.071 54.0002 238.441 52.7546L238.846 52.5631ZM242.377 40.865C241.725 42.9902 241.078 45.1169 240.436 47.2451L240.002 47.5289C240.65 45.3744 241.305 43.2189 241.966 41.0644L242.377 40.865ZM236.544 60.4118L236.13 60.6404C235.18 63.9177 234.245 67.1973 233.323 70.4746L233.503 70.3665L233.809 69.9847C234.709 66.7903 235.62 63.5993 236.544 60.4118ZM229.298 85.1268C229.998 82.5173 230.707 79.9079 231.426 77.2984L231.763 77.3322C231.049 79.9225 230.346 82.5139 229.65 85.1054L229.298 85.1268ZM227.754 92.2468L227.368 92.4011C226.925 94.0927 226.485 95.7854 226.049 97.477C226.167 97.468 226.285 97.4578 226.403 97.4454C226.85 95.7133 227.3 93.98 227.754 92.2468ZM223.501 108.924L222.883 110.028C222.135 113.061 221.399 116.092 220.675 119.124L220.926 119.513C221.768 115.983 222.626 112.453 223.501 108.924ZM219.918 123.77L219.234 125.593L219.089 125.847C210.284 163.628 203.338 201.408 198.252 239.189L198.619 238.97C203.797 200.57 210.897 162.171 219.918 123.77ZM188.146 395.887C188.079 395.882 188.012 395.88 187.945 395.88L187.811 395.876C187.817 399.56 187.84 403.243 187.88 406.927C187.993 406.896 188.104 406.868 188.213 406.841C188.174 403.189 188.152 399.538 188.146 395.887ZM197.928 406.528C197.91 404.75 197.897 402.972 197.887 401.195L198.221 401.182C198.231 402.965 198.245 404.748 198.263 406.531C198.151 406.524 198.04 406.523 197.928 406.528ZM207.8 405.378C207.927 405.342 208.04 405.308 208.133 405.276C208.117 403.316 208.105 401.354 208.097 399.393C207.986 399.339 207.874 399.286 207.761 399.235C207.769 401.283 207.782 403.33 207.8 405.378ZM219.738 218.155H219.922L220.117 217.856C221.254 209.519 222.471 201.183 223.768 192.847L223.382 193.156C222.088 201.478 220.874 209.811 219.738 218.155ZM213.389 199.918L213.757 199.482C219.499 163.536 226.829 127.591 235.748 91.6465L235.339 91.9078C223.934 137.921 215.131 183.938 208.934 229.956L210.006 224.591C211.16 216.296 212.398 208.001 213.721 199.707L213.389 199.918ZM208.181 235.639C208.331 234.488 208.482 233.337 208.635 232.185L208.806 233.442L208.524 235.599L208.181 235.639ZM217.862 406.203C217.843 403.951 217.829 401.698 217.821 399.447L218.154 399.365C218.163 401.644 218.178 403.924 218.197 406.203H217.862ZM219.767 460.979C219.655 460.938 219.541 460.899 219.427 460.864C224.799 571.628 243.558 682.391 275.706 793.152L276.33 794.1C244.018 683.06 225.164 572.019 219.767 460.979ZM178.216 395.547C178.222 400.417 178.26 405.288 178.33 410.157C178.214 410.063 178.101 409.965 177.991 409.865C177.923 405.101 177.887 400.336 177.881 395.571L178.062 395.556L178.216 395.547ZM188.349 243.328L188.816 242.39C193.667 207.621 200.181 172.851 208.36 138.078L207.958 138.327C199.736 173.329 193.199 208.329 188.349 243.328ZM219.554 92.9811L220.188 90.6948L220.266 90.6689L220.556 90.6205L219.967 92.7412C219.832 92.8223 219.695 92.9022 219.554 92.9811ZM222.184 83.6154H222.532C223.613 79.8227 224.713 76.0351 225.83 72.2529L225.378 72.6077C224.296 76.2719 223.231 79.9412 222.184 83.6154ZM233.916 45.9736C231.362 53.961 228.889 61.9737 226.496 70.0106L226.07 70.2696C228.428 62.341 230.871 54.4113 233.402 46.4815L233.676 46.1088L233.916 45.9736ZM223.311 57.2133C221.651 62.288 220.024 67.3737 218.432 72.4703L218.142 72.2766C219.695 67.3077 221.283 62.3388 222.908 57.3699L223.311 57.2133ZM216.656 77.0687L217.43 74.5628L217.764 74.6146L217.134 76.6565L216.656 77.0687ZM215.75 81.1782C215.153 83.138 214.563 85.0996 213.978 87.0628C213.878 86.9959 213.783 86.9218 213.694 86.8409C214.244 84.9984 214.799 83.1559 215.359 81.3145L215.75 81.1782ZM199.262 141.18L198.904 141.232L198.79 141.698L198.828 142.953L199.262 141.18ZM195.108 157.193C195.457 155.679 195.809 154.165 196.163 152.651C196.386 152.195 196.608 151.735 196.831 151.273C188.253 187.64 181.599 224.007 176.871 260.374L176.437 261.123C180.834 227.095 186.917 193.067 194.685 159.04L194.993 158.628L195.108 157.193ZM214.793 61.6811C212.468 68.5016 210.208 75.3441 208.013 82.2076L207.887 82.2392L207.697 82.095C209.835 75.4097 212.036 68.7444 214.298 62.1L214.793 61.6811ZM184.57 167.025L184.214 167.075C175.034 206.512 168.243 245.95 163.843 285.387L164.198 285.233C168.601 245.83 175.393 206.428 184.57 167.025ZM208.163 61.0087C205.36 68.782 202.643 76.5865 200.014 84.4206L199.808 84.4758L199.663 84.4161C202.278 76.6165 204.982 68.8466 207.773 61.1078L208.06 61.0774L208.163 61.0087ZM183.282 139.138L182.947 139.089C168.835 190.195 158.961 241.301 153.326 292.411L153.7 292.076C159.34 241.095 169.202 190.116 183.282 139.138ZM193.493 82.9881C192.49 85.8083 191.499 88.6329 190.521 91.4618L190.11 91.6262C191.132 88.6695 192.167 85.7172 193.215 82.7696L193.493 82.9881ZM201.614 60.9231C198.875 68.1171 196.214 75.3407 193.633 82.5928L193.303 82.5241C195.965 75.045 198.711 67.596 201.54 60.1787L201.614 60.9231ZM203.278 55.6546L203.756 55.3427L203.782 55.2751L203.374 55.4069L203.278 55.6546ZM196.175 58.0738C196.015 58.4657 195.856 58.8587 195.698 59.2507L195.261 59.4376L195.738 58.2585L196.175 58.0738ZM195.331 60.1618L194.895 60.3465C190.026 72.4524 185.39 84.6509 180.99 96.9352L181.471 96.5861C185.858 84.3572 190.479 72.2135 195.331 60.1618ZM189.493 58.1526C189.598 58.1526 189.702 58.1481 189.806 58.1413L190.098 57.46L189.493 58.1526ZM186.642 65.6352C181.305 78.4146 176.241 91.306 171.452 104.301L170.95 104.695C175.736 91.684 180.799 78.7764 186.136 65.981L186.642 65.6352ZM186.89 64.1768L187.086 64.0022L187.773 62.1101L187.756 62.1146L186.89 64.1768ZM185.6 53.7344C184.369 56.4349 183.15 59.1408 181.944 61.8522L181.408 62.2352C182.634 59.4755 183.872 56.7215 185.123 53.9732L185.6 53.7344ZM181.381 63.1192L181.038 63.0686C143.402 148.014 120.242 232.946 111.559 317.876L111.831 318.51C120.465 233.387 143.649 148.262 181.381 63.1192ZM117.803 382.166C117.858 378.583 117.938 375 118.042 371.416L118.377 371.401C118.274 374.96 118.194 378.519 118.139 382.079C118.028 382.112 117.916 382.14 117.803 382.166ZM132.446 482.45C131.984 478.105 131.558 473.76 131.165 469.414L131.502 469.429C131.9 473.834 132.334 478.236 132.802 482.634L132.446 482.45ZM127.946 377.989C127.946 377.989 128.062 378.032 128.26 378.117C128.311 375.48 128.375 372.842 128.452 370.206L128.116 370.22C128.041 372.808 127.979 375.396 127.928 377.985L127.946 377.989ZM141.553 475.117C141.386 473.307 141.225 471.497 141.069 469.686L141.405 469.684C141.562 471.503 141.724 473.321 141.892 475.138L141.553 475.117ZM137.861 386.284C137.978 386.305 138.089 386.32 138.196 386.328C138.228 382.668 138.285 379.008 138.363 375.348C138.253 375.283 138.143 375.217 138.033 375.15C137.952 378.861 137.895 382.572 137.861 386.284ZM147.8 407.22C147.782 405.981 147.767 404.741 147.755 403.502L148.089 403.491C148.103 404.763 148.118 406.034 148.136 407.306C148.026 407.269 147.914 407.241 147.8 407.22ZM152.953 492.764C152.418 487.746 151.924 482.729 151.472 477.712L151.684 477.415L151.77 477.295C152.263 482.784 152.805 488.273 153.395 493.763C153.349 493.658 153.302 493.553 153.255 493.448L152.953 492.764ZM147.712 391.996C147.823 392.018 147.934 392.038 148.047 392.054C148.055 389.096 148.076 386.138 148.111 383.18C147.999 383.154 147.888 383.124 147.778 383.091C147.742 386.059 147.72 389.027 147.712 391.996ZM157.771 391.853L158.106 391.846C158.113 388.899 158.134 385.951 158.168 383.004C158.058 382.967 157.947 382.933 157.835 382.904C157.8 385.887 157.778 388.871 157.771 391.853ZM175.982 136.916C160.06 191.086 149.165 245.257 143.297 299.427L143.074 299.535L142.919 299.808C148.78 245.475 159.694 191.143 175.664 136.81L175.982 136.916ZM170.001 130.507C146.893 203.24 133.344 275.98 129.352 348.722L129.149 348.569L129.053 348.087C133.092 275.454 146.657 202.824 169.747 130.202L170.001 130.507ZM121.188 320.275L121.482 320.716C127.508 256.254 141.447 191.797 163.301 127.341L162.908 127.46C141.135 191.728 127.228 256 121.188 320.275ZM204.211 53.2468C204.856 51.5912 205.506 49.9357 206.159 48.2801L206.601 48.0729C205.945 49.7341 205.293 51.3952 204.645 53.0564L204.211 53.2468ZM215.032 59.9489C215.511 58.5524 215.993 57.1548 216.477 55.7571L217.645 53.4179C217.086 55.0194 216.53 56.6209 215.979 58.2213L215.625 58.4961H215.885L215.493 59.6358L215.032 59.9489ZM224.409 52.8053C224.752 51.7725 225.096 50.7387 225.441 49.7059L225.877 49.4581C225.543 50.4571 225.21 51.4549 224.879 52.4539L224.409 52.8053ZM229.437 38.9797C229.118 39.9033 228.801 40.8268 228.485 41.7514L228.053 41.9834C228.374 41.0419 228.697 40.1003 229.022 39.1588L229.437 38.9797ZM229.357 38.188L229.789 37.9594L230.246 36.6417L229.817 36.8557L229.357 38.188ZM229.992 36.3523L230.412 36.1631L230.839 34.94L230.414 35.1404L229.992 36.3523ZM230.51 34.8657L230.753 34.753L230.933 34.6674L231.23 33.8183L230.821 33.9737L230.51 34.8657ZM237.591 33.5964L237.664 33.3768H237.973L237.591 33.5964ZM224.405 53.8842L223.905 54.3324L223.495 55.5769L223.865 55.524L224.405 53.8842ZM238.333 219.238C238.588 217.102 238.849 214.966 239.113 212.83C239.23 212.74 239.354 212.649 239.485 212.555C239.201 214.837 238.923 217.121 238.65 219.405L238.333 219.238ZM285.786 805.964C253.362 690.689 234.551 575.439 229.354 460.205C229.454 460.043 229.558 459.885 229.669 459.729C234.841 575.247 253.699 690.781 286.239 806.341C286.091 806.212 285.94 806.086 285.786 805.964ZM248.264 214.768L248.612 214.666C248.787 213.136 248.967 211.605 249.148 210.075L248.81 210.078C248.625 211.641 248.443 213.204 248.264 214.768ZM249.195 206.85C249.308 206.873 249.417 206.896 249.523 206.921C249.86 204.124 250.203 201.325 250.554 198.526L250.266 198.141C249.9 201.043 249.543 203.946 249.195 206.85ZM251.594 187.851C251.952 185.142 252.318 182.434 252.691 179.724L253.025 179.75C252.665 182.371 252.31 184.991 251.963 187.612L251.594 187.851ZM259.099 204.685L258.761 204.703C258.522 206.804 258.287 208.907 258.055 211.009L258.41 210.847C258.636 208.793 258.866 206.739 259.099 204.685ZM296.084 794.788C269.817 685.442 254.308 576.094 249.557 466.747L249.887 466.634C254.316 568.702 268.12 670.77 291.299 772.838H291.096C291.219 773.041 291.331 773.245 291.439 773.448C293.033 780.46 294.67 787.462 296.349 794.454C296.258 794.566 296.169 794.677 296.084 794.788ZM260.259 476.38L259.916 476.191C264.478 575.697 277.354 675.205 298.543 774.731H298.885C277.706 675.268 264.831 575.823 260.259 476.38ZM299.902 781.061L299.65 779.892C299.87 780.115 299.953 780.241 300.036 780.408C299.973 780.622 299.928 780.84 299.902 781.061ZM307.605 815.144C306.604 810.901 305.62 806.656 304.652 802.412C304.777 802.439 304.898 802.469 305.014 802.499C305.675 805.395 306.344 808.29 307.02 811.186C306.924 811.253 306.83 811.317 306.741 811.377L307.037 811.824L307.242 812.134C307.474 813.128 307.707 814.122 307.941 815.115C307.831 815.128 307.718 815.137 307.605 815.144ZM303.546 763.261C285.908 671.459 274.853 579.671 270.378 487.885C270.491 487.97 270.607 488.055 270.725 488.141C275.208 579.83 286.26 671.524 303.881 763.231L303.546 763.261ZM310.688 762.343H310.695C310.8 762.377 310.917 762.405 311.043 762.429C309.819 755.539 308.627 748.643 307.468 741.741C307.335 741.637 307.204 741.53 307.075 741.42C308.245 748.401 309.449 755.375 310.688 762.343ZM306.747 739.461H307.086C293.347 657.037 284.528 574.614 280.631 492.192L280.292 492.108C284.187 574.559 293.005 657.01 306.747 739.461ZM287.894 191.661H288.231C288.487 189.046 288.748 186.432 289.014 183.817L288.641 184.167C288.388 186.665 288.139 189.163 287.894 191.661ZM290.639 165.329L291.011 165.011C291.599 159.704 292.207 154.396 292.835 149.088L292.477 149.262C291.844 154.617 291.23 159.973 290.639 165.329ZM292.897 145.738L293.247 145.631C293.531 143.268 293.818 140.905 294.11 138.542L293.786 138.446C293.485 140.876 293.189 143.306 292.897 145.738ZM287.512 123.629C287.284 125.236 287.06 126.843 286.837 128.449L286.489 128.525C286.741 126.7 286.997 124.876 287.255 123.051L287.512 123.629ZM286.304 132.327L286.007 132.028C284.184 145.374 282.499 158.738 280.95 172.119L281.313 171.901C282.843 158.693 284.507 145.501 286.304 132.327ZM303.109 71.6853C303.821 67.1143 304.548 62.5456 305.289 57.9792H305.538L305.621 58.0276C304.907 62.4206 304.207 66.8159 303.521 71.2134L303.475 71.2281L303.109 71.6853ZM299.024 174.649L298.656 174.976C298.11 180.538 297.586 186.1 297.082 191.661H297.419C297.931 185.99 298.467 180.32 299.024 174.649ZM314.713 740.647C301.892 657.817 293.67 574.978 290.049 492.135L290.38 492.068C294.002 574.959 302.23 657.847 315.064 740.723L314.713 740.647ZM306.258 193.325C306.356 193.436 306.457 193.555 306.564 193.684C307.005 188.331 307.464 182.978 307.94 177.625C307.829 177.614 307.717 177.606 307.606 177.6C307.139 182.84 306.69 188.082 306.258 193.325ZM308.366 169.22L308.511 167.655C308.676 168.149 308.575 168.705 308.366 169.22ZM315.416 195.743C315.611 194.916 315.726 193.753 315.689 192.115L315.416 195.743ZM315.97 188.438C316.113 186.584 316.258 184.73 316.405 182.876C316.508 182.88 316.62 182.881 316.74 182.883C316.611 184.519 316.483 186.156 316.355 187.793C316.198 188.023 316.07 188.234 315.97 188.438ZM312.481 16.2784C312.603 16.2514 312.722 16.2233 312.837 16.1951C313.043 15.0644 313.25 13.9325 313.46 12.8007L313.094 12.9403L312.481 16.2784ZM343.814 5.36083L344.14 5.44304L344.172 5.20654L343.822 5.30114C343.82 5.3211 343.817 5.34101 343.814 5.36083ZM348.027 36.7464L348.002 36.9784V36.8185C348.01 36.7943 348.018 36.7703 348.027 36.7464ZM345.811 57.6199L345.456 57.8035L345.073 61.5425C345.188 61.5797 345.296 61.6169 345.398 61.6551C345.535 60.3104 345.672 58.9646 345.811 57.6199ZM344.397 68.2492L344.753 64.7016C344.87 64.6383 344.988 64.5782 345.108 64.5214C344.949 66.0931 344.791 67.6649 344.635 69.2369C344.559 68.9068 344.48 68.5776 344.397 68.2492ZM98.0277 382.486C97.9774 385.52 97.9466 388.555 97.9353 391.589L97.5997 391.908C97.611 388.783 97.6414 385.657 97.6921 382.531L98.0277 382.486ZM306.193 13.5012L306.157 13.6836L305.881 13.5913L306.193 13.5012ZM412.116 1.16452L412.113 1.32219L411.956 1.20393L412.116 1.16452ZM419.395 1.7907L419.434 1.80646C419.534 1.84588 419.633 1.8853 419.729 1.92584L419.731 1.5418C419.619 1.5292 419.508 1.51154 419.397 1.48887L419.395 1.7907ZM469.7 80.8314L469.435 75.992L469.773 76.0562C469.878 77.9539 469.982 79.8516 470.085 81.7481L470.065 81.7222C469.938 81.4272 469.817 81.1303 469.7 80.8314ZM478.302 83.0985H478.636C478.385 79.1792 478.13 75.2599 477.868 71.3407C477.787 71.4159 477.707 71.4929 477.628 71.5716L477.552 71.6279C477.806 75.4525 478.056 79.2749 478.302 83.0985ZM486.981 85.878C487.089 85.8892 487.202 85.9016 487.318 85.9118C486.956 80.9845 486.584 76.0573 486.203 71.1289C486.09 71.109 485.976 71.0876 485.863 71.0648C486.244 76.0021 486.617 80.9406 486.981 85.878ZM495.039 80.9429C495.147 80.7244 495.241 80.5374 495.326 80.373C494.987 76.4062 494.642 72.44 494.29 68.4744H493.954C494.322 72.6302 494.684 76.7871 495.039 80.9429ZM503.26 79.1229L503.597 79.133C503.573 78.8803 503.549 78.6277 503.524 78.3751C503.44 78.2245 503.356 78.0743 503.271 77.9246L503.118 77.6532L503.26 79.1229ZM496.873 15.7457L496.954 16.4463C496.838 16.4103 496.722 16.375 496.605 16.3404L496.519 15.5982L496.873 15.7457ZM496.664 13.9483L496.74 14.6015L496.39 14.4889L496.318 13.8638L496.664 13.9483ZM488.85 12.0112C488.735 11.9798 488.62 11.9487 488.504 11.9177L488.518 12.054L488.866 12.1587L488.85 12.0123V12.0112ZM481.041 10.0313C480.927 10.007 480.813 9.98298 480.698 9.9592L480.809 11.1665L481.155 11.2746L481.117 10.8602L481.067 10.8388L481.115 10.8467L481.041 10.0313ZM473.198 7.4725L473.27 8.37911L472.929 8.31491L472.857 7.40267L472.94 7.41957L473.198 7.4725ZM465.485 6.10414C465.347 6.08161 465.234 6.06584 465.146 6.05346L465.149 6.08724C465.262 6.1154 465.376 6.1413 465.49 6.16608C465.488 6.14548 465.486 6.12482 465.485 6.10414ZM465.27 7.89145L465.232 7.3137C465.342 7.34298 465.456 7.37001 465.572 7.39254L465.612 7.98493C465.498 7.95397 465.384 7.92281 465.27 7.89145ZM469.325 74.0121C469.21 71.9421 469.094 69.871 468.977 67.801L469.307 67.7187C469.429 69.88 469.551 72.0412 469.67 74.2024L469.325 74.0121ZM461.116 69.7212L461.244 72.4872C461.113 72.3235 460.993 72.1512 460.885 71.9714L460.797 70.0568C460.887 69.9329 460.995 69.8203 461.116 69.7212ZM473.067 10.0482L473.411 10.1518L473.396 9.97384L473.395 9.94794L473.341 9.26883L472.997 9.17648L473.053 9.86347L473.054 9.88262L473.067 10.0482ZM472.984 9.00979C473.113 9.04358 473.226 9.07512 473.327 9.10327L473.297 8.7136C473.184 8.70064 473.071 8.68637 472.958 8.6708L472.984 9.00979ZM465.195 6.76861L465.536 6.8497L465.506 6.41047L465.502 6.35754L465.5 6.32262L465.16 6.24942L465.162 6.28658L465.167 6.34627L465.195 6.76861ZM465.55 7.06593L465.552 7.09409L465.56 7.20333L465.561 7.22698C465.446 7.19002 465.331 7.15059 465.217 7.10873V7.09972L465.214 7.05467H465.255C465.353 7.05498 465.451 7.05874 465.55 7.06593ZM480.879 11.9301C480.991 11.9526 481.105 11.974 481.22 11.9909L481.183 11.5753L480.835 11.4469L480.879 11.9301ZM488.691 13.723C488.878 13.7489 488.967 13.7591 489.031 13.7625L489.02 13.6476C488.907 13.5682 488.787 13.4985 488.662 13.4392L488.691 13.723ZM488.636 13.187C488.754 13.2095 488.866 13.2365 488.981 13.2703L488.903 12.5225L488.555 12.4087L488.636 13.187ZM557.578 458.886L557.901 459.298C558.817 427.764 559.067 396.229 558.65 364.695C558.531 364.985 558.423 365.251 558.326 365.494C558.726 396.626 558.476 427.764 557.578 458.886ZM567.223 468.863C567.332 468.945 567.44 469.025 567.549 469.104C569.065 427.248 569.308 385.356 568.278 343.486C568.172 343.674 568.065 343.87 567.957 344.071C568.969 385.666 568.724 427.264 567.223 468.863ZM576.326 485.566C576.433 485.618 576.542 485.67 576.654 485.72C579.02 436.071 579.457 386.349 577.966 336.667C577.86 336.775 577.751 336.881 577.64 336.984C579.119 386.512 578.681 436.038 576.326 485.566ZM585.914 491.39L586.218 491.979C589.209 437.33 589.688 382.573 587.654 327.88L587.318 327.864C589.345 382.373 588.878 436.88 585.914 491.39ZM594.699 505.943C594.804 506.045 594.91 506.142 595.015 506.237C599.557 438.67 599.983 370.889 596.288 303.271C596.177 303.266 596.065 303.263 595.953 303.26C599.643 370.784 599.224 438.47 594.699 505.943ZM604.505 507.713C604.584 507.587 604.664 507.455 604.743 507.32C610.215 431.834 610.194 356.051 604.68 280.568C604.574 280.769 604.477 280.975 604.389 281.184C609.869 356.601 609.865 432.316 604.377 507.732L604.505 507.713ZM614.548 502.475C614.661 502.471 614.772 502.464 614.885 502.456C620.253 429.981 620.222 357.207 614.79 284.737C614.678 284.733 614.566 284.728 614.453 284.722C619.888 357.203 619.92 429.989 614.548 502.475ZM624.355 502.349L624.691 502.36C630.387 430.075 630.364 357.452 624.621 285.17C624.512 285.215 624.405 285.264 624.297 285.315C630.029 357.546 630.048 430.116 624.355 502.349ZM633.907 505.278L634.242 505.283C640.635 430.885 640.588 356.073 634.103 281.683C634.027 281.989 633.94 282.29 633.845 282.583C640.254 356.676 640.274 431.182 633.907 505.278ZM644.127 500.198C644.248 500.089 644.368 499.985 644.49 499.887C650.899 425.973 650.566 351.629 643.496 277.775L643.16 277.767C650.241 351.727 650.565 426.179 644.127 500.198ZM654.013 499.069L654.342 499.141C661.165 424.241 660.677 349.332 652.882 274.42L652.55 274.461C660.341 349.336 660.829 424.206 654.013 499.069ZM663.834 495.621C663.947 495.601 664.061 495.584 664.175 495.569C670.894 423.214 670.406 350.862 662.713 278.507L662.614 278.546L662.356 278.314C670.073 350.75 670.566 423.184 663.834 495.621ZM672.202 509.18C672.303 509.24 672.408 509.299 672.518 509.357C681.219 431.338 681.065 353.32 672.053 275.301L671.718 275.322C680.724 353.275 680.885 431.228 672.202 509.18ZM624.226 748.867C625.495 745.376 626.744 741.886 627.975 738.394L628.408 738.171C627.148 741.751 625.869 745.324 624.572 748.891C624.456 748.884 624.34 748.875 624.226 748.867ZM630.892 748.411L631.304 748.268C640.746 723.595 649.202 698.922 656.67 674.251C656.339 674.912 656.02 675.579 655.713 676.251C654.819 679.18 653.913 682.106 652.995 685.027L652.986 685.095L652.958 685.142C646.247 706.451 638.888 727.55 630.892 748.411ZM637.6 747.333C637.719 747.332 637.841 747.33 637.963 747.325C655.885 702.855 670.421 658.385 681.571 613.914L680.982 614.886C669.859 659.035 655.398 703.184 637.6 747.333ZM644.929 744.592L645.513 744.066C705.194 602.366 728.602 460.622 715.738 318.888C715.624 318.871 715.51 318.853 715.397 318.834C728.293 460.761 704.804 602.697 644.929 744.592ZM654.301 736.716L654.854 736.283C715 597.637 738.576 459.032 725.581 320.446C725.464 320.371 725.346 320.299 725.225 320.229C738.283 459.031 714.642 597.852 654.301 736.716ZM663.407 729.871L663.95 729.478C724.237 595.016 748.253 460.589 735.997 326.155L735.668 326.222C747.926 460.764 723.839 595.297 663.407 729.871ZM672.309 723.565L672.854 723.184C736.339 586.353 760.209 449.479 744.467 312.617L744.111 312.457C759.913 449.5 735.979 586.551 672.309 723.565ZM681.272 717.301L681.833 716.906C745.544 584.048 769.914 451.223 754.945 318.391L754.584 318.172C769.627 451.208 745.189 584.234 681.272 717.301ZM690.501 710.644L691.092 710.203C743.126 604.887 769.145 499.591 769.145 394.29C769.145 370.944 767.865 347.598 765.308 324.252C765.189 324.195 765.07 324.137 764.952 324.079C767.519 347.395 768.807 370.833 768.809 394.29C768.809 499.729 742.708 605.172 690.501 710.644ZM700.259 702.985L700.915 702.436C753.105 599.768 779.203 497.07 779.203 394.354C779.203 372.748 778.048 351.141 775.739 329.533L775.329 328.857C777.684 350.61 778.865 372.474 778.867 394.354C778.867 497.245 752.667 600.125 700.259 702.985ZM712.65 690.442L713.667 689.194C764.061 590.884 789.26 492.589 789.26 394.29C789.26 381.677 788.846 369.064 788.016 356.451C787.88 356.064 787.741 355.676 787.602 355.29C788.484 368.271 788.925 381.279 788.926 394.29C788.926 492.996 763.502 591.706 712.65 690.442ZM728.757 670.687L729.745 669.476C775.051 579.653 798.177 489.825 799.116 399.994C799.016 399.413 798.909 398.808 798.797 398.182C798.148 489.012 774.804 579.847 728.757 670.687ZM745.555 650.085L746.501 648.925C780.165 580.56 800.275 512.201 806.827 443.842L806.567 443.04C800.056 512.048 779.719 581.06 745.555 650.085ZM719.081 707.095C724.407 698.758 729.576 690.322 734.585 681.79C735.057 681.199 735.53 680.609 736.007 680.024C730.721 689.087 725.254 698.043 719.611 706.887C719.44 706.97 719.263 707.039 719.081 707.095ZM731.315 695.287C731.92 694.564 732.532 693.822 733.152 693.064C741.875 679.518 750.007 665.97 757.545 652.422C757.429 652.397 757.312 652.377 757.195 652.36C749.232 666.67 740.605 680.978 731.315 695.287ZM820.622 484.19C819.128 491.902 817.452 499.578 815.595 507.211C815.285 508.068 814.953 508.953 814.592 509.879C817.125 499.723 819.336 489.49 821.222 479.195C821.204 479.635 821.164 480.082 821.122 480.531C820.947 481.82 820.781 483.036 820.622 484.19ZM827.507 435.346C827.419 436.348 827.327 437.348 827.232 438.349L826.92 438.099C827.346 433.583 827.705 429.067 828 424.55V429.327L827.907 430.543L827.656 430.292C827.656 430.319 827.652 430.411 827.644 430.567C827.617 431.188 827.544 432.821 827.507 435.346ZM812.864 317.329L813.552 319.582L813.698 320.55L813.868 321.683L813.899 321.887L813.9 321.9C813.888 321.885 813.876 321.871 813.864 321.857L813.946 322.209L814.077 323.104L814.074 323.107L814.08 323.125C815.409 332.258 816.484 341.426 817.307 350.618C817.201 350.223 817.098 349.827 816.997 349.43L816.777 348.508C815.931 339.482 814.839 330.481 813.505 321.515L813.482 321.364C813.364 320.566 813.242 319.769 813.119 318.973L813.018 318.313L812.99 318.129C812.948 317.862 812.906 317.596 812.864 317.329ZM789.538 252.965C789.832 253.608 790.123 254.253 790.412 254.906L790.755 256.18C796.235 276.698 800.495 297.216 803.533 317.735L803.184 317.655C800.05 296.524 795.618 275.39 789.891 254.258L789.538 252.965ZM769.741 215.165C769.473 214.703 769.202 214.243 768.932 213.782L769.361 215.083C780.381 248.614 788.309 282.144 793.143 315.673L793.49 315.737C788.73 282.673 780.963 249.61 770.192 216.547L769.741 215.165ZM751.216 186.069L751.943 187.094L751.971 187.172C767.186 229.429 777.745 271.685 783.648 313.94L783.301 313.875C777.343 271.286 766.652 228.693 751.228 186.098L751.216 186.069ZM736.084 165.657C751.516 206.583 762.805 247.509 769.953 288.435L769.608 288.399C762.411 247.229 751.019 206.056 735.435 164.883L736.084 165.657ZM774.974 322.74C774.854 322.69 774.735 322.636 774.618 322.579L774.827 324.356C774.95 324.439 775.065 324.503 775.187 324.56L774.974 322.74ZM787.017 347.447C786.131 336.579 784.94 325.737 783.448 314.935L783.792 314.98C785.153 324.846 786.262 334.745 787.119 344.667L787.083 344.612C787.009 345.054 787.03 345.527 787.051 346.004C787.072 346.49 787.094 346.98 787.017 347.447ZM798.589 378.715C798.706 379.016 798.826 379.315 798.948 379.613C798.373 358.447 796.582 337.331 793.582 316.371L793.236 316.317C796.2 336.998 797.987 357.831 798.589 378.715ZM808.867 394.29C808.867 368.897 806.995 343.504 803.25 318.11L803.599 318.184C807.334 343.552 809.201 368.922 809.201 394.29C809.201 401.801 809.038 409.312 808.71 416.822L808.448 415.111C808.727 408.171 808.867 401.231 808.867 394.29ZM792.057 556.597C800.882 529.956 807.533 503.315 812.01 476.674L812.011 476.745C812.102 476.837 812.195 476.939 812.286 477.049C807.88 503.167 801.386 529.284 792.804 555.4L792.057 556.597ZM814.032 463.607C814.143 463.621 814.255 463.628 814.367 463.626C817.619 440.686 819.253 417.546 819.259 394.377C819.259 383.102 818.87 371.83 818.094 360.582C817.952 360.096 817.807 359.611 817.657 359.128C818.502 370.859 818.925 382.616 818.925 394.377C818.925 417.453 817.294 440.529 814.032 463.607ZM722.223 149.359C739.906 195.515 752.59 241.667 760.277 287.819C760.159 287.765 760.039 287.719 759.915 287.68C752.18 241.328 739.402 194.973 721.579 148.614L722.223 149.359ZM709.106 134.526C727.57 182.372 740.932 230.212 749.19 278.051L748.917 277.686L748.735 277.383C740.424 229.54 727.007 181.695 708.484 133.846L709.106 134.526ZM699.492 128.78C714.988 170.184 726.858 211.588 735.102 252.996L735.01 252.93L734.705 252.711C726.454 211.371 714.587 170.033 699.104 128.696L699.492 128.78ZM691.427 127.328C706.529 169.613 718.042 211.895 725.969 254.175L725.58 253.915C717.648 211.703 706.139 169.488 691.052 127.27L691.427 127.328ZM726.735 258.321L726.268 257.625C727.463 264.155 728.574 270.699 729.601 277.257C729.77 277.702 729.945 278.14 730.144 278.564C729.096 271.801 727.959 265.053 726.735 258.321ZM734.615 315.507C734.401 313.482 734.179 311.456 733.949 309.43L734.291 309.48C734.621 312.393 734.935 315.306 735.232 318.218C735.031 317.313 734.823 316.409 734.615 315.507ZM683.429 126.234C698.615 170.853 710.009 215.473 717.611 260.095C717.436 259.763 717.265 259.428 717.101 259.091C709.493 214.789 698.146 170.489 683.061 126.189L683.429 126.234ZM675.62 125.341C687.793 162.933 697.413 200.529 704.481 238.127L704.144 237.927L704.099 237.9C697.029 200.365 687.415 162.833 675.256 125.301L675.62 125.341ZM667.568 124.536C678.392 159.686 687.102 194.838 693.694 229.99L693.274 229.566C686.686 194.545 677.997 159.523 667.207 124.502L667.568 124.536ZM695.79 241.572C695.662 241.501 695.536 241.427 695.411 241.35C696.169 245.687 696.895 250.03 697.59 254.378C697.727 254.521 697.863 254.665 697.998 254.809C697.294 250.391 696.558 245.979 695.79 241.572ZM666.504 149.047C672.704 172.383 678.055 195.937 682.546 219.662L682.143 219.331C677.657 195.686 672.317 172.211 666.132 148.952L666.504 149.047ZM684.667 231.274C684.525 231.126 684.385 230.977 684.248 230.826C685.07 235.47 685.856 240.113 686.608 244.757L686.996 245.056C686.253 240.456 685.477 235.862 684.667 231.274ZM658.511 150.378C665.648 178.937 671.532 207.496 676.161 236.054C676.036 235.95 675.907 235.85 675.774 235.756C671.173 207.445 665.342 179.134 658.277 150.822C658.363 150.657 658.44 150.51 658.511 150.378ZM681.524 273.729L681.215 273.807C690.962 352.753 691.13 431.699 681.716 510.644L682.05 510.659C691.467 431.685 691.297 352.711 681.543 273.736L681.524 273.729ZM691.331 511.113C700.059 442.048 701.045 372.989 694.291 303.934C694.41 304.01 694.529 304.084 694.649 304.157C701.378 373.144 700.383 442.135 691.665 511.133L691.331 511.113ZM683.7 560.888C686.054 547.834 688.136 534.732 689.946 521.592L690.465 520.273L690.467 520.265C688.585 534.068 686.403 547.829 683.922 561.538C683.84 561.324 683.766 561.107 683.7 560.888ZM657.124 671.587C660.357 660.808 663.415 649.977 666.297 639.098L666.911 638.087C663.872 649.609 660.635 661.077 657.203 672.488C657.172 672.188 657.145 671.887 657.124 671.587ZM683.205 605.876C683.548 604.455 683.888 603.032 684.225 601.611C684.454 600.947 684.623 600.525 684.791 600.104C684.873 599.953 684.953 599.802 685.03 599.651C684.461 602.08 683.882 604.506 683.294 606.93C683.246 606.58 683.216 606.229 683.205 605.876ZM687.598 586.838C687.614 587.326 687.621 587.813 687.618 588.299C708.277 495.021 714.036 401.741 704.897 308.462L704.548 308.324C713.661 401.162 708.012 494 687.598 586.838ZM708.373 262.539C708.482 262.494 708.589 262.454 708.694 262.422C708.454 260.914 708.21 259.407 707.964 257.901H707.625C707.878 259.447 708.128 260.993 708.373 262.539ZM707.049 254.447C706.761 252.732 706.467 251.018 706.167 249.304C706.292 249.374 706.417 249.443 706.544 249.509C706.839 251.202 707.128 252.896 707.413 254.589L707.14 254.459L707.049 254.447ZM700.873 276.708L701.214 276.734C700.854 274.05 700.481 271.365 700.096 268.681C699.987 268.702 699.877 268.722 699.767 268.74C700.148 271.395 700.516 274.052 700.873 276.708ZM651.15 155.047C656.464 177.914 661.04 200.947 664.87 224.108C664.742 224.005 664.612 223.904 664.48 223.806C660.649 200.685 656.075 177.694 650.765 154.867C650.891 154.937 651.021 154.997 651.15 155.047ZM641.718 151.082C647.26 175.883 651.977 200.862 655.862 225.976C655.761 225.986 655.651 225.998 655.53 226.013C651.781 201.78 647.256 177.673 641.962 153.73C641.971 153.7 641.977 153.669 641.983 153.638L641.911 153.494C641.737 152.71 641.564 151.927 641.388 151.143C641.501 151.12 641.612 151.098 641.718 151.082ZM632.918 148.601C638.629 175.352 643.43 202.29 647.312 229.367L646.947 229.177C642.721 199.751 637.412 170.492 631.029 141.458C631.169 141.586 631.31 141.694 631.444 141.784C631.886 143.804 632.324 145.825 632.756 147.845C632.677 147.928 632.6 148.024 632.528 148.133L632.918 148.601ZM625.913 156.633C631.42 184.872 635.963 213.29 639.536 241.838L639.201 241.866C635.627 213.301 631.08 184.866 625.568 156.61C625.69 156.617 625.805 156.625 625.913 156.633ZM619.341 168.706C623.827 194.423 627.558 220.265 630.529 246.201H630.293C630.293 246.407 630.282 246.623 630.266 246.842C627.287 220.734 623.538 194.719 619.024 168.832C619.126 168.782 619.232 168.74 619.341 168.706ZM632.179 264.721C631.979 262.725 631.775 260.729 631.566 258.734L631.968 259.362C632.15 261.106 632.329 262.852 632.503 264.596L632.179 264.721ZM612.236 179.875C616.832 209.327 620.491 238.917 623.206 268.601L622.884 268.753C620.168 239.027 616.505 209.394 611.901 179.901C612.011 179.89 612.122 179.881 612.236 179.875ZM609.554 228.978C611.221 243.735 612.667 258.516 613.891 273.315L613.569 273.49C612.339 258.589 610.884 243.708 609.203 228.851C609.32 228.893 609.437 228.934 609.554 228.978ZM599.652 225.137C601.464 241.835 603.01 258.562 604.288 275.31C604.167 275.131 604.041 274.955 603.912 274.782C602.641 258.201 601.107 241.642 599.312 225.11L599.652 225.137ZM590.147 224.694C591.718 240.135 593.076 255.597 594.221 271.075L593.878 270.984C592.734 255.523 591.376 240.078 589.807 224.654L590.064 224.694H590.147ZM583.089 250.347C583.335 253.399 583.573 256.451 583.803 259.503C583.675 259.292 583.546 259.08 583.42 258.867C583.215 256.163 583.004 253.459 582.786 250.755C582.881 250.62 582.981 250.484 583.089 250.347ZM581.89 240.005C582.009 240.157 582.133 240.306 582.265 240.453C581.83 235.411 581.375 230.369 580.899 225.327C580.789 225.352 580.679 225.374 580.569 225.395C581.029 230.264 581.47 235.135 581.89 240.005ZM573.791 164.643L573.904 164.649L573.721 164.103L573.791 164.643ZM570.438 139.895C570.573 140.049 570.71 140.209 570.844 140.373C570.193 135.792 569.524 131.211 568.838 126.63L568.495 126.602C569.159 131.033 569.806 135.465 570.438 139.895ZM560.195 126.777C560.076 126.732 559.956 126.683 559.837 126.635C560.005 127.832 560.17 129.03 560.335 130.229C560.454 130.255 560.571 130.284 560.685 130.318L560.195 126.777ZM562.293 142.284C562.185 142.323 562.078 142.365 561.972 142.41C562.955 149.897 563.894 157.39 564.789 164.888C564.841 164.77 564.964 164.693 565.094 164.619C564.203 157.174 563.27 149.729 562.293 142.284ZM554.063 148.279L553.926 148.365C554.214 150.789 554.498 153.214 554.778 155.637C554.9 155.649 555.011 155.659 555.118 155.667C554.829 153.167 554.536 150.667 554.239 148.168C554.179 148.204 554.121 148.241 554.063 148.279ZM555.935 165.861L555.751 164.208C555.835 164.129 555.939 164.054 556.062 163.976L556.33 166.394C556.216 166.282 556.113 166.158 556.024 166.026L555.935 165.861ZM555.614 159.998L555.758 161.273C555.627 160.852 555.547 160.431 555.614 159.998ZM561.487 136.213L561.71 137.877C561.333 137.155 561.167 136.742 561.291 136.451C561.334 136.356 561.402 136.274 561.487 136.213ZM580.315 148.483C579.884 145.554 579.444 142.626 578.996 139.698C579.11 139.717 579.226 139.735 579.343 139.751C579.82 142.869 580.287 145.988 580.745 149.106L580.608 148.907C580.511 148.765 580.413 148.624 580.315 148.483ZM593.07 174.998C591.764 165.712 590.377 156.437 588.909 147.175C589.016 147.311 589.116 147.458 589.205 147.616L589.324 147.657C590.766 156.778 592.13 165.911 593.416 175.055L593.07 174.998ZM585.101 81.4271L584.592 79.0542C584.641 79.0204 584.69 78.9922 584.735 78.9697C584.693 78.8578 584.661 78.743 584.637 78.6262C584.607 78.4562 584.62 78.2771 584.688 77.9189L585.462 81.5172L585.101 81.4271ZM587.044 90.6475L586.565 88.35C586.692 88.3951 586.817 88.4514 586.941 88.5111C588.364 95.3184 589.741 102.135 591.072 108.961C590.957 108.946 590.841 108.935 590.725 108.927C589.579 103.059 588.4 97.1972 587.187 91.3424L587.312 90.8413C587.221 90.7795 587.132 90.7149 587.044 90.6475ZM602.051 174.53C601.092 168.145 600.092 161.767 599.052 155.395L599.524 156.211C600.53 162.393 601.496 168.573 602.424 174.754C602.298 174.682 602.174 174.608 602.051 174.53ZM609.488 164.948L609.077 162.495C609.199 162.579 609.327 162.661 609.456 162.737L609.832 164.977C609.717 164.971 609.602 164.961 609.488 164.948ZM618.268 164.536L617.734 161.552H618.074C618.266 162.614 618.455 163.676 618.643 164.738L618.268 164.536ZM610.033 120.462C610.371 122.058 610.706 123.655 611.038 125.251C610.926 125.267 610.813 125.276 610.701 125.278C610.366 123.666 610.028 122.055 609.687 120.443L610.033 120.462ZM622.683 142.242C621.96 138.743 621.222 135.244 620.469 131.746L620.666 131.616L620.399 129.838C621.331 134.141 622.241 138.443 623.129 142.747L622.683 142.242ZM617.496 118.283C617.671 118.492 617.831 118.694 617.975 118.883C614.838 104.993 611.479 91.1546 607.898 77.3727C607.851 77.3277 607.809 77.2871 607.771 77.2489C607.799 77.2352 607.827 77.2231 607.856 77.2128C606.236 70.9789 604.571 64.7567 602.861 58.5468L602.458 58.344C607.962 78.3233 612.975 98.3025 617.496 118.283ZM628.422 129.848C627.766 126.992 627.1 124.136 626.423 121.281L626.772 121.302C627.47 124.25 628.157 127.197 628.833 130.144C628.702 130.037 628.565 129.938 628.422 129.848ZM640.795 148.494L640.576 147.532C640.711 147.803 640.837 148.062 640.951 148.305L640.795 148.494ZM639.519 142.905C637.891 135.855 636.199 128.819 634.443 121.799L634.794 121.823C636.596 129.03 638.327 136.238 639.987 143.446C639.852 143.287 639.715 143.129 639.576 142.972L639.519 142.905ZM647.05 139.379C647.07 139.311 647.101 139.246 647.141 139.187C647.19 139.135 647.251 139.096 647.318 139.072L646.683 136.52L646.282 135.917C646.365 135.917 646.449 135.92 646.533 135.922C646.331 135.119 646.13 134.316 645.926 133.512C645.818 133.543 645.707 133.561 645.595 133.568C646.086 135.505 646.57 137.442 647.05 139.379ZM639.238 109.557L639.668 109.858C636.825 99.5526 633.827 89.2476 630.673 78.9427C630.529 78.8494 630.384 78.7566 630.239 78.6645C633.381 88.9199 636.381 99.2183 639.238 109.557ZM629.296 75.6034C629.423 75.6248 629.546 75.6485 629.669 75.6755C629.175 74.0778 628.677 72.4812 628.176 70.8857C628.029 70.7843 627.88 70.6841 627.732 70.585C628.257 72.2574 628.779 73.9299 629.296 75.6034ZM619.301 65.6476C619.97 67.8663 620.632 70.0849 621.287 72.3025L620.881 72.111C620.223 69.8856 619.559 67.6602 618.886 65.4348L619.301 65.6476ZM627.37 69.4362C627.519 69.5365 627.667 69.6367 627.816 69.7392L627.476 68.6591L627.456 68.6479L627.036 68.3753L627.37 69.4362ZM618.623 63.4098L618.854 64.1678C618.704 64.0709 618.557 63.9707 618.412 63.8671C618.357 63.6822 618.301 63.4975 618.244 63.3129H618.259C618.404 63.3501 618.519 63.3794 618.623 63.4098ZM618.132 61.7948L618.228 62.1101L617.8 61.8579L617.699 61.5256C617.83 61.6045 617.959 61.6856 618.087 61.7655L618.132 61.7948ZM626.615 67.052L626.682 67.0982L626.854 67.2705L627.105 67.4901L626.953 67.0081C626.918 66.9841 626.885 66.957 626.854 66.927L626.523 66.7603L626.615 67.052ZM635.702 72.8374L635.694 72.816L636.151 73.1325L636.152 73.1393L635.702 72.8374ZM644.989 79.2389L645.456 79.5745L645.462 79.5891L644.999 79.2682C644.995 79.2584 644.992 79.2487 644.989 79.2389ZM636.192 73.2564L635.74 72.9546L636.03 73.8364C636.232 74.0594 636.427 74.2925 636.612 74.538L636.192 73.2564ZM636.828 75.198L636.383 74.9142L636.59 75.5471C636.756 75.6485 636.898 75.6992 636.992 75.7003L636.828 75.198ZM647.216 85.8386C646.485 83.6514 645.748 81.4654 645.002 79.2783L645.467 79.6072C646.212 81.7934 646.95 83.982 647.68 86.1731C647.526 86.0604 647.371 85.9501 647.216 85.8386ZM648.389 89.3704L647.736 87.3995H648L648.106 87.4524L648.781 89.4909C648.652 89.4447 648.521 89.4045 648.389 89.3704ZM640.056 85.227C639.881 85.0806 639.721 84.9443 639.576 84.8193H639.575C642.782 94.928 645.844 105.082 648.76 115.278C648.894 115.332 649.024 115.381 649.15 115.426C646.262 105.317 643.23 95.2496 640.056 85.227ZM655.826 112.804C653.68 105.762 651.462 98.7433 649.17 91.7479C649.312 91.8222 649.453 91.8931 649.592 91.9607C651.863 98.9025 654.063 105.867 656.191 112.854L655.826 112.804ZM658.144 119.745H657.914C658.298 121.036 658.68 122.328 659.059 123.619L659.416 123.649C659.023 122.309 658.628 120.969 658.23 119.63L658.144 119.745ZM660.01 126.888C659.711 125.852 659.409 124.816 659.106 123.781L659.463 123.811C659.785 124.914 660.106 126.015 660.425 127.118C660.288 127.039 660.15 126.962 660.01 126.888ZM664.825 144.072C663.838 140.431 662.832 136.795 661.805 133.165H661.926L662.22 133.4C663.303 137.235 664.363 141.077 665.401 144.925C665.203 144.645 665.011 144.361 664.825 144.072ZM667.157 124.34L667.519 124.373C663.572 111.571 659.374 98.8476 654.928 86.2102L654.45 85.8588C658.939 98.6007 663.176 111.43 667.157 124.34ZM675.204 125.142C671.722 114.404 668.055 103.726 664.204 93.1151L664.698 93.4946C668.501 103.994 672.126 114.557 675.569 125.18L675.204 125.142ZM683.007 126.03C680.184 117.75 677.247 109.509 674.196 101.311L674.725 101.776C677.72 109.836 680.604 117.937 683.376 126.076L683.007 126.03ZM690.997 127.115C689.105 121.826 687.164 116.554 685.175 111.301L685.728 111.815C687.655 116.917 689.537 122.036 691.372 127.172L690.997 127.115ZM699.049 128.548C698.224 126.351 697.392 124.157 696.551 121.966L697.111 122.494C697.895 124.537 698.67 126.584 699.437 128.634C699.308 128.605 699.178 128.576 699.049 128.548ZM645.401 79.4112C645.246 79.3027 645.092 79.1946 644.937 79.0868L644.928 79.0598L645.394 79.3921L645.401 79.4112ZM636.087 72.9388L636.129 73.0649C635.977 72.9627 635.826 72.8602 635.675 72.7575L635.634 72.6347L636.087 72.9388ZM611.138 61.8151L610.731 61.6124C612.503 67.7449 614.229 73.8905 615.91 80.0486C616.042 80.1387 616.184 80.2378 616.336 80.3437C614.65 74.1546 612.917 67.9782 611.138 61.8151ZM626.285 120.703C624.748 114.232 623.16 107.773 621.519 101.328L622.009 101.897C623.6 108.162 625.142 114.439 626.636 120.728C626.519 120.72 626.402 120.712 626.285 120.703ZM634.308 121.258C633.521 118.122 632.722 114.985 631.909 111.848C632.057 111.965 632.204 112.084 632.347 112.205C633.131 115.231 633.901 118.257 634.659 121.283C634.542 121.275 634.425 121.267 634.308 121.258ZM621.659 73.5661C624.28 82.4689 626.791 91.3717 629.193 100.276C629.016 100.061 628.842 99.8444 628.671 99.6247C626.29 90.8251 623.811 82.0524 621.234 73.3082L621.659 73.5661ZM600.963 51.7196L600.553 51.5011L600.557 51.5124L600.649 51.839L601.056 52.0485L600.967 51.7331L600.963 51.7196ZM594.457 54.7266C600.145 76.4064 605.288 98.0863 609.885 119.766L609.54 119.747C604.894 97.8674 599.728 76.1018 594.044 54.4687L594.457 54.7277V54.7266ZM592.367 46.8487L592.421 47.0503L592.021 46.8521L591.965 46.6426L592.367 46.8487ZM584.016 42.7549L583.622 42.5668L583.658 42.7053L584.053 42.9013L584.016 42.7549ZM583.785 43.2031L583.778 43.1794L583.961 43.2695L584.175 43.3765L584.178 43.3923L583.785 43.2031ZM575.788 39.1374L575.808 39.2219L575.622 39.1408L575.423 39.053L575.396 38.9403L575.788 39.1374ZM567.182 35.3634L567.563 35.5267L567.573 35.5673L567.194 35.4096L567.182 35.3634ZM570.318 49.2532L569.906 47.3949C570.049 47.5109 570.187 47.6168 570.318 47.7102L570.697 49.4187C570.57 49.3656 570.443 49.3104 570.318 49.2532ZM570.666 50.8299L570.643 50.7308C570.75 50.7465 570.87 50.7522 570.991 50.7533L571.068 51.099L570.666 50.8299ZM571.343 53.9191L570.954 52.1419L571.339 52.3356L571.773 54.3223C571.634 54.1827 571.491 54.0482 571.343 53.9191ZM571.914 56.5432L571.603 55.1129C571.716 55.1276 571.826 55.1264 571.946 55.1152L572.291 56.7065C572.166 56.6495 572.04 56.5951 571.914 56.5432ZM572.729 60.3296L572.081 57.3203L572.465 57.5163L572.993 59.9658C572.915 60.0943 572.827 60.216 572.729 60.3296ZM570.029 46.4128L570.058 46.539C570.021 46.5103 569.985 46.4814 569.949 46.4522L570.029 46.4128ZM578.253 50.9065L577.833 49.1191L578.241 49.3894C580.288 58.0703 582.261 66.7685 584.16 75.4829C583.996 75.2419 583.826 74.9874 583.651 74.7227C581.92 66.8023 580.129 58.8952 578.277 51.0022L578.253 50.9065ZM577.921 48.0346L578.214 49.2757C578.082 49.1858 577.947 49.1009 577.809 49.0212L577.497 47.7001C577.586 47.7677 577.679 47.8409 577.771 47.9152L577.921 48.0346ZM585.766 50.7544C585.738 50.7397 585.71 50.7251 585.682 50.7105C591.366 73.4397 596.51 96.3006 601.109 119.274L601.453 119.29C596.879 96.4309 591.765 73.6834 586.115 51.0664C585.994 50.9684 585.877 50.8643 585.766 50.7544ZM601.784 122.672L601.248 119.968L601.592 119.983C601.773 120.888 601.952 121.792 602.131 122.697L601.784 122.672ZM610.817 173.059L610.615 171.811C610.808 172.14 610.956 172.5 611.038 172.908C610.964 172.967 610.891 173.017 610.817 173.059ZM603.613 182.83C603.483 182.746 603.356 182.655 603.235 182.558C603.565 184.83 603.888 187.103 604.207 189.376C604.306 189.657 604.405 189.913 604.505 190.112L604.312 190.127C604.808 193.684 605.291 197.24 605.762 200.797C605.939 201.223 606.105 201.637 606.263 202.042C605.421 195.633 604.538 189.229 603.613 182.83ZM595.145 187.719C595.454 190.051 595.758 192.385 596.056 194.717C595.942 194.704 595.827 194.688 595.713 194.669C595.409 192.302 595.101 189.934 594.787 187.566L594.877 187.532C594.9 187.532 594.973 187.587 595.096 187.682L595.145 187.719ZM584.632 177.136L584.856 178.869C584.746 178.887 584.635 178.9 584.524 178.906L584.33 177.417C584.424 177.334 584.523 177.242 584.632 177.136ZM583.055 167.824L583.187 167.747C583.25 167.73 583.315 167.724 583.38 167.73C582.911 164.277 582.431 160.826 581.94 157.376C581.822 157.325 581.703 157.272 581.581 157.221C581.788 158.682 581.994 160.142 582.198 161.603C582.465 161.92 582.636 162.345 582.671 162.929H582.383C582.609 164.561 582.833 166.192 583.055 167.824ZM584.142 173.407L584.046 173.424L584.195 173.811L584.142 173.407ZM571.321 143.757L571.498 145.017C571.105 144.478 570.937 144.031 571.321 143.757ZM737.804 269.198C737.626 268.19 737.446 267.182 737.264 266.174C737.4 266.348 737.547 266.546 737.712 266.774C737.86 267.6 738.007 268.424 738.152 269.25C738.035 269.238 737.919 269.221 737.804 269.198ZM813.81 321.627L813.635 320.892L813.837 321.652C813.827 321.644 813.818 321.636 813.81 321.627ZM548.452 394.526C548.452 390.997 548.445 387.467 548.431 383.938C548.546 383.843 548.657 383.744 548.764 383.64C548.78 387.291 548.788 390.941 548.787 394.591C548.675 394.569 548.564 394.547 548.452 394.526ZM548.118 434.698L548.166 431.616L548.506 431.276C548.481 432.888 548.455 434.501 548.427 436.112C548.315 435.642 548.209 435.17 548.118 434.698Z" stroke="url(#paint0_linear_1067_31926)" stroke-opacity="0.5" stroke-width="1.03838" stroke-miterlimit="10"/>
</g>
</g>
<defs>
<linearGradient id="paint0_linear_1067_31926" x1="414" y1="36.3782" x2="414" y2="736.766" gradientUnits="userSpaceOnUse">
<stop stop-color="white"/>
<stop offset="1" stop-color="white" stop-opacity="0"/>
</linearGradient>
</defs>
</svg>
