<svg width="28" height="28" viewBox="0 0 28 28" fill="none" xmlns="http://www.w3.org/2000/svg">
<mask id="mask0_1067_35434" style="mask-type:luminance" maskUnits="userSpaceOnUse" x="1" y="1" width="26" height="26">
<path d="M26.7992 1.19824H1.19922V26.7983H26.7992V1.19824Z" fill="white"/>
</mask>
<g mask="url(#mask0_1067_35434)">
<mask id="mask1_1067_35434" style="mask-type:luminance" maskUnits="userSpaceOnUse" x="1" y="1" width="26" height="26">
<path d="M26.7992 1.19824H1.19922V26.7983H26.7992V1.19824Z" fill="white"/>
</mask>
<g mask="url(#mask1_1067_35434)">
<mask id="mask2_1067_35434" style="mask-type:alpha" maskUnits="userSpaceOnUse" x="1" y="1" width="26" height="26">
<path d="M5.89634 22.8519L1.62994 19.6519C1.4969 19.5531 1.38896 19.4244 1.31483 19.2762C1.24069 19.128 1.20243 18.9645 1.20313 18.7987V9.19871C1.20243 9.033 1.24069 8.86943 1.31483 8.72123C1.38896 8.57303 1.4969 8.44433 1.62994 8.34551L5.89634 5.14551C5.78172 5.25313 5.69511 5.38709 5.64402 5.53578C5.59292 5.68446 5.57889 5.84337 5.60314 5.99871V21.9987C5.57889 22.154 5.59292 22.313 5.64402 22.4617C5.69511 22.6103 5.78172 22.7443 5.89634 22.8519Z" fill="white"/>
<path d="M26.3312 5.64105C26.1554 5.52558 25.9495 5.46437 25.7392 5.46505C25.6029 5.46395 25.4678 5.48975 25.3415 5.54095C25.2152 5.59216 25.1002 5.66777 25.0032 5.76345L24.9289 5.83825L16.4169 13.9982L11.7073 18.5154L7.35001 22.6915L7.27521 22.7662C7.17827 22.8621 7.06334 22.9379 6.93703 22.9891C6.81072 23.0404 6.67553 23.0662 6.53921 23.0651C6.30845 23.0646 6.08399 22.9897 5.89921 22.8514L1.63281 19.6514C1.84956 19.8143 2.12023 19.8884 2.38969 19.8587C2.65916 19.8289 2.90717 19.6976 3.08321 19.4914L7.81921 13.9931L11.7073 9.48106L18.518 1.57145C18.6169 1.45431 18.7402 1.36022 18.8793 1.29574C19.0184 1.23128 19.1699 1.19801 19.3232 1.19825C19.5335 1.19757 19.7394 1.25877 19.9152 1.37425L26.3312 5.64105Z" fill="white"/>
<path d="M26.3273 22.3547L19.9273 26.6215C19.7096 26.7637 19.4479 26.8226 19.1903 26.7873C18.9327 26.752 18.6963 26.625 18.5249 26.4295L11.7033 18.5147L7.8153 13.9923L3.07931 8.4987C2.90168 8.29463 2.65345 8.1653 2.38442 8.13665C2.1154 8.10802 1.8455 8.18221 1.62891 8.34431L5.8953 5.14431C6.08009 5.00609 6.30454 4.93117 6.5353 4.9307C6.67162 4.92955 6.80682 4.95536 6.93312 5.00664C7.05943 5.05791 7.17436 5.13365 7.2713 5.22951L7.34611 5.3043L11.7033 9.48033L16.4129 13.9975L24.9249 22.1575L24.9993 22.2323C25.0963 22.328 25.2113 22.4036 25.3376 22.4548C25.4639 22.506 25.599 22.5318 25.7353 22.5307C25.9456 22.5314 26.1515 22.4702 26.3273 22.3547Z" fill="white"/>
<path d="M26.8049 6.53122V21.4648C26.805 21.6409 26.7618 21.8142 26.679 21.9695C26.5962 22.1248 26.4763 22.2572 26.3301 22.3552L19.9301 26.622C20.0764 26.524 20.1962 26.3914 20.279 26.236C20.3618 26.0806 20.4051 25.9073 20.4049 25.7312V2.26482C20.4026 2.08745 20.3566 1.9134 20.2709 1.75803C20.1853 1.60267 20.0627 1.47078 19.9141 1.37402L26.3301 5.64083C26.476 5.73915 26.5955 5.87171 26.6783 6.02694C26.7611 6.18216 26.8046 6.35531 26.8049 6.53122Z" fill="white"/>
</mask>
<g mask="url(#mask2_1067_35434)">
<path d="M5.89634 22.8509L1.62994 19.6509C1.4969 19.5521 1.38896 19.4235 1.31483 19.2752C1.24069 19.127 1.20243 18.9634 1.20313 18.7978V9.19773C1.20243 9.03201 1.24069 8.86846 1.31483 8.72025C1.38896 8.57205 1.4969 8.44334 1.62994 8.34453L5.89634 5.14453C5.78172 5.25214 5.69511 5.38612 5.64402 5.5348C5.59292 5.68348 5.57889 5.84239 5.60314 5.99773V21.9977C5.57889 22.1531 5.59292 22.3119 5.64402 22.4606C5.69511 22.6094 5.78172 22.7433 5.89634 22.8509Z" fill="white"/>
<g filter="url(#filter0_dd_1067_35434)">
<path d="M26.3312 5.64105C26.1554 5.52558 25.9495 5.46437 25.7392 5.46505C25.603 5.46395 25.4678 5.48975 25.3415 5.54095C25.2152 5.59216 25.1003 5.66777 25.0032 5.76345L24.9288 5.83825L20.3952 10.1851L16.4168 13.9982L11.7072 18.5154L7.35001 22.6915L7.27521 22.7662C7.17828 22.8621 7.06335 22.9379 6.93704 22.9891C6.81073 23.0404 6.67553 23.0662 6.53922 23.0651C6.30845 23.0646 6.08399 22.9897 5.89921 22.8514L1.63281 19.6514C1.84956 19.8143 2.12023 19.8884 2.3897 19.8587C2.65916 19.8289 2.90717 19.6976 3.08321 19.4914L5.47282 16.7182L7.81922 13.9931L11.7072 9.48106L18.518 1.57145C18.6169 1.45431 18.7403 1.36022 18.8793 1.29574C19.0184 1.23128 19.1699 1.19801 19.3232 1.19825C19.5336 1.19757 19.7394 1.25877 19.9152 1.37425L26.3312 5.64105Z" fill="white"/>
</g>
<g filter="url(#filter1_dd_1067_35434)">
<path d="M26.3312 22.3547L19.9312 26.6215C19.7135 26.7637 19.4518 26.8225 19.1941 26.7873C18.9365 26.752 18.7003 26.625 18.5289 26.4295L11.7072 18.5147L7.81922 13.9923L5.47282 11.2723L3.08321 8.49869C2.90559 8.29462 2.65736 8.16529 2.38834 8.13665C2.11931 8.10801 1.84941 8.18219 1.63281 8.34429L5.89921 5.14429C6.08399 5.00607 6.30845 4.93116 6.53922 4.9307C6.67553 4.92954 6.81073 4.95535 6.93704 5.00663C7.06335 5.05791 7.17828 5.13365 7.27521 5.2295L7.35001 5.3043L11.7072 9.48033L16.4168 13.9975L20.4008 17.8163L24.9288 22.1575L25.0032 22.2323C25.1003 22.3279 25.2152 22.4036 25.3415 22.4548C25.4678 22.506 25.603 22.5318 25.7392 22.5307C25.9495 22.5314 26.1554 22.4702 26.3312 22.3547Z" fill="white"/>
</g>
<g filter="url(#filter2_dd_1067_35434)">
<path d="M26.8049 6.53122V21.4648C26.805 21.6409 26.7618 21.8142 26.679 21.9695C26.5962 22.1248 26.4763 22.2573 26.3301 22.3552L19.9301 26.6221C20.0764 26.524 20.1962 26.3914 20.279 26.236C20.3618 26.0807 20.4051 25.9073 20.4049 25.7312V2.26482C20.4026 2.08745 20.3566 1.9134 20.2709 1.75803C20.1853 1.60267 20.0627 1.47078 19.9141 1.37402L26.3301 5.64082C26.476 5.73915 26.5955 5.87172 26.6783 6.02694C26.7611 6.18216 26.8046 6.35532 26.8049 6.53122Z" fill="white"/>
</g>
</g>
</g>
</g>
<defs>
<filter id="filter0_dd_1067_35434" x="-3.85291" y="-2.91605" width="35.6707" height="32.8383" filterUnits="userSpaceOnUse" color-interpolation-filters="sRGB">
<feFlood flood-opacity="0" result="BackgroundImageFix"/>
<feColorMatrix in="SourceAlpha" type="matrix" values="0 0 0 0 0 0 0 0 0 0 0 0 0 0 0 0 0 0 127 0" result="hardAlpha"/>
<feOffset dy="0.260571"/>
<feGaussianBlur stdDeviation="0.260571"/>
<feColorMatrix type="matrix" values="0 0 0 0 0 0 0 0 0 0 0 0 0 0 0 0 0 0 0.24 0"/>
<feBlend mode="normal" in2="BackgroundImageFix" result="effect1_dropShadow_1067_35434"/>
<feColorMatrix in="SourceAlpha" type="matrix" values="0 0 0 0 0 0 0 0 0 0 0 0 0 0 0 0 0 0 127 0" result="hardAlpha"/>
<feOffset dy="1.37143"/>
<feGaussianBlur stdDeviation="2.74286"/>
<feColorMatrix type="matrix" values="0 0 0 0 0 0 0 0 0 0 0 0 0 0 0 0 0 0 0.22 0"/>
<feBlend mode="normal" in2="effect1_dropShadow_1067_35434" result="effect2_dropShadow_1067_35434"/>
<feBlend mode="normal" in="SourceGraphic" in2="effect2_dropShadow_1067_35434" result="shape"/>
</filter>
<filter id="filter1_dd_1067_35434" x="-3.85291" y="0.816374" width="35.6707" height="32.838" filterUnits="userSpaceOnUse" color-interpolation-filters="sRGB">
<feFlood flood-opacity="0" result="BackgroundImageFix"/>
<feColorMatrix in="SourceAlpha" type="matrix" values="0 0 0 0 0 0 0 0 0 0 0 0 0 0 0 0 0 0 127 0" result="hardAlpha"/>
<feOffset dy="0.260571"/>
<feGaussianBlur stdDeviation="0.260571"/>
<feColorMatrix type="matrix" values="0 0 0 0 0 0 0 0 0 0 0 0 0 0 0 0 0 0 0.24 0"/>
<feBlend mode="normal" in2="BackgroundImageFix" result="effect1_dropShadow_1067_35434"/>
<feColorMatrix in="SourceAlpha" type="matrix" values="0 0 0 0 0 0 0 0 0 0 0 0 0 0 0 0 0 0 127 0" result="hardAlpha"/>
<feOffset dy="1.37143"/>
<feGaussianBlur stdDeviation="2.74286"/>
<feColorMatrix type="matrix" values="0 0 0 0 0 0 0 0 0 0 0 0 0 0 0 0 0 0 0.22 0"/>
<feBlend mode="normal" in2="effect1_dropShadow_1067_35434" result="effect2_dropShadow_1067_35434"/>
<feBlend mode="normal" in="SourceGraphic" in2="effect2_dropShadow_1067_35434" result="shape"/>
</filter>
<filter id="filter2_dd_1067_35434" x="3.45692" y="-15.0831" width="39.8049" height="58.1623" filterUnits="userSpaceOnUse" color-interpolation-filters="sRGB">
<feFlood flood-opacity="0" result="BackgroundImageFix"/>
<feColorMatrix in="SourceAlpha" type="matrix" values="0 0 0 0 0 0 0 0 0 0 0 0 0 0 0 0 0 0 127 0" result="hardAlpha"/>
<feOffset/>
<feGaussianBlur stdDeviation="0.137143"/>
<feColorMatrix type="matrix" values="0 0 0 0 0 0 0 0 0 0 0 0 0 0 0 0 0 0 0.24 0"/>
<feBlend mode="normal" in2="BackgroundImageFix" result="effect1_dropShadow_1067_35434"/>
<feColorMatrix in="SourceAlpha" type="matrix" values="0 0 0 0 0 0 0 0 0 0 0 0 0 0 0 0 0 0 127 0" result="hardAlpha"/>
<feOffset/>
<feGaussianBlur stdDeviation="8.22857"/>
<feColorMatrix type="matrix" values="0 0 0 0 0 0 0 0 0 0 0 0 0 0 0 0 0 0 0.3 0"/>
<feBlend mode="normal" in2="effect1_dropShadow_1067_35434" result="effect2_dropShadow_1067_35434"/>
<feBlend mode="normal" in="SourceGraphic" in2="effect2_dropShadow_1067_35434" result="shape"/>
</filter>
</defs>
</svg>
